<?xml version="1.0" encoding="utf-8"?>
<!-- Generator: Adobe Illustrator 13.0.0, SVG Export Plug-In . SVG Version: 6.00 Build 14948)  -->
<!DOCTYPE svg PUBLIC "-//W3C//DTD SVG 1.1//EN" "http://www.w3.org/Graphics/SVG/1.1/DTD/svg11.dtd" [
	<!ENTITY ns_flows "http://ns.adobe.com/Flows/1.0/">
	<!ENTITY ns_extend "http://ns.adobe.com/Extensibility/1.0/">
	<!ENTITY ns_ai "http://ns.adobe.com/AdobeIllustrator/10.0/">
	<!ENTITY ns_graphs "http://ns.adobe.com/Graphs/1.0/">
]>
<svg version="1.1"
	 id="svg2" xmlns:x="&ns_extend;" xmlns:i="&ns_ai;" xmlns:graph="&ns_graphs;" inkscape:export-ydpi="31.843102" inkscape:export-xdpi="31.843102" inkscape:version="0.48.4 r9939" sodipodi:docname="AgileCRM2-transparent.svg" inkscape:export-filename="C:\Users\Manohar\Desktop\New Agile Logo\agile-logo300.png" xmlns:dc="http://purl.org/dc/elements/1.1/" xmlns:cc="http://creativecommons.org/ns#" xmlns:rdf="http://www.w3.org/1999/02/22-rdf-syntax-ns#" xmlns:svg="http://www.w3.org/2000/svg" xmlns:sodipodi="http://sodipodi.sourceforge.net/DTD/sodipodi-0.dtd" xmlns:inkscape="http://www.inkscape.org/namespaces/inkscape"
	 xmlns="http://www.w3.org/2000/svg" xmlns:xlink="http://www.w3.org/1999/xlink" xmlns:a="http://ns.adobe.com/AdobeSVGViewerExtensions/3.0/"
	 x="0px" y="0px" width="632px" height="204px" viewBox="0 0 632 204" enable-background="new 0 0 632 204" xml:space="preserve">
<sodipodi:namedview  id="namedview39" inkscape:current-layer="#409de4ff" inkscape:window-y="-8" inkscape:window-x="-8" inkscape:window-height="705" inkscape:window-width="1366" inkscape:pageshadow="2" inkscape:pageopacity="0" inkscape:window-maximized="1" inkscape:cy="127.5" inkscape:cx="395" guidetolerance="10" gridtolerance="10" inkscape:zoom="0.36202532" objecttolerance="10" borderopacity="1" showgrid="false" bordercolor="#666666" pagecolor="#ffffff">
	</sodipodi:namedview>
<g>
	
		<path id="path18" inkscape:export-ydpi="35.244366" inkscape:export-xdpi="35.244366" inkscape:export-filename="C:\Users\Manohar\Desktop\New Agile Logo\cloud.png" fill="#409DE4" d="
		M85.2,39.25c5.97-0.4,12-0.47,17.96,0.05c15.51,3.06,28.43,15.83,32.21,31.11c1.42,5.19,1.45,10.63,0.95,15.95
		c6.33-0.78,12.92,0.37,18.25,3.99c7.46,4.83,12.01,13.81,11.3,22.7c-0.17,12.851-11.94,24.47-24.88,23.95
		c-26.35-0.02-52.7-0.01-79.05-0.01c-5.21-0.01-10.59,0.31-15.56-1.53c-9.71-3.21-17.78-10.94-21.45-20.479
		c-2.57-6.021-2.06-12.761-1.66-19.141c2.36-14.75,15.52-26.49,30.21-28.24C58.14,53.5,70.52,42.01,85.2,39.25 M63.14,68.09
		c9.63,1.68,17.83,7.36,26.49,11.53c-1.41,2.66-2.82,5.32-4.28,7.95c-4.89-2.84-10.07-5.12-15.06-7.77
		c-5.81-3.01-12.65-4.29-19.05-2.61c-11.82,2.75-20.66,14.64-19.69,26.77c0.59,13.101,12.38,24.38,25.49,24.38
		c27.67,0.03,55.33-0.01,82.99,0.02c6.82,0.181,13.35-4.26,15.89-10.549c2.57-6.271,0.76-13.961-4.34-18.411
		c-4.66-4.52-12.09-5.41-17.93-2.88c-1.85,4.36-4.2,8.53-7.32,12.1c-2.23-1.97-4.49-3.92-6.76-5.851
		c4.18-5.01,7.05-11.149,7.86-17.649c2.18-15.06-7.3-30.66-21.61-35.76C89.67,42.82,69.01,51.56,63.14,68.09z"/>
</g>
<g>
	<path id="path20" fill="#409DE4" d="M412.74,81.79c5.399-7.09,14.49-10.83,23.31-10.32c7.96-0.31,16.63,2.521,21.16,9.46
		c1.87,3.11,4.12,6.34,4.37,10.06c-5.5,1.5-10.62,4.06-16,5.91c-1.47-3.13-2.66-6.82-5.88-8.63c-3.851-2.1-9.28-1.04-11.71,2.75
		c-2.95,4.36-3.33,9.9-3.24,15.02c0.32,4.55,1.01,9.46,4.05,13.069c3.13,3.781,9.391,3.86,12.96,0.681
		c2.16-1.92,3.521-4.51,5.04-6.931c5.101,2.791,10.28,5.421,15.391,8.19c-3.511,7.511-9.921,13.86-18.131,15.83
		c-8.689,1.92-18.55,1.38-25.93-4.069c-7.34-5.141-11.17-13.98-12.01-22.69C405.11,100.35,406.55,89.73,412.74,81.79z"/>
	<path id="path22" fill="#409DE4" d="M527.75,72.54c5.55-0.05,11.11-0.04,16.67-0.02c5.44,11.76,11.13,23.42,15.83,35.51
		c4.63-12.1,10.39-23.72,15.72-35.51c5.521-0.02,11.04-0.02,16.561,0c0.06,21.44,0.09,42.871,0.06,64.3
		c-5.7-0.021-11.39,0.01-17.07-0.03c0.03-10.47-0.199-20.96,0.101-31.431c-4.39,11.65-10.21,22.701-15.49,33.951
		c-5.29-11.131-10.61-22.25-15.61-33.511c0.57,10.32,0.181,20.67,0.28,31.011c-5.68-0.011-11.359,0.029-17.04-0.03
		C527.72,115.359,527.78,93.95,527.75,72.54z"/>
	<path id="path24" fill="#409DE4" d="M466.76,72.52c10.41-0.02,20.82-0.01,31.23-0.01c6.649,0.16,13.89,1.85,18.43,7.08
		c4.6,5.27,4.95,12.87,3.85,19.46c-1.109,5.97-5.439,10.89-10.93,13.33c4.38,8.101,8.53,16.31,12.91,24.41
		c-6.81,0.03-13.63,0.04-20.45,0c-3.479-7.14-6.88-14.31-10.42-21.42c-2.27,0.01-4.54,0.021-6.8,0.021
		c0.04,7.129,0.01,14.27,0.02,21.409c-5.949,0.011-11.899,0.04-17.84-0.02C466.72,115.359,466.77,93.94,466.76,72.52 M484.52,87.17
		c0.07,4.57,0.061,9.15,0.011,13.72c4.68,0.15,9.439,0.48,14.06-0.51c5.851-1.58,5.58-11.91-0.58-12.84
		C493.55,86.86,489.01,87.27,484.52,87.17z"/>
</g>
<g id="_x23_121313ff">
	<path id="path27" fill="#121313" d="M303.25,69.26c5.47-1.9,13.42,1.13,13.31,7.72c0.21,9.55-15.27,11.33-18.8,3.3
		C295.79,75.85,298.43,70.25,303.25,69.26z"/>
	<path id="path29" fill="#121313" d="M321.55,76.26c5.521-2.09,10.931-4.479,16.46-6.58c0.23,22.37,0.021,44.75,0.12,67.12
		c-5.55,0-11.09,0.011-16.63-0.01C321.48,116.609,321.5,96.44,321.55,76.26z"/>
	<path id="path31" fill="#121313" d="M207.04,72.49c6.08,0.04,12.15,0.01,18.23,0.02c7.79,21.43,15.58,42.86,23.37,64.29
		c-6.55-0.01-13.11,0.021-19.66-0.02c-1.17-3.73-2.32-7.47-3.52-11.19c-6.29-0.04-12.58-0.01-18.87-0.02
		c-1.16,3.74-2.37,7.47-3.45,11.229c-6.51-0.01-13.02,0.021-19.53-0.02C191.46,115.359,199.13,93.88,207.04,72.49 M215.95,92.7
		c-1.48,6.23-3.39,12.35-5,18.55c3.41,0.03,6.81,0.03,10.22,0.02C219.42,105.08,217.82,98.85,215.95,92.7z"/>
	<path id="path33" fill="#121313" d="M253.49,92.45c5.33-6.59,15.81-6.39,22.04-1.17c-0.01-0.7-0.02-2.08-0.02-2.771
		c5.66,0,11.33,0,17,0c0.04,13.83,0.07,27.67,0.05,41.5c-0.09,6.221-1.35,13.08-6.21,17.42c-5.23,4.721-12.49,6.08-19.24,7.08
		c-2.06-3.29-4.18-6.54-6.2-9.84c4.33-0.92,9.12-1.27,12.7-4.15c1.98-1.81,1.88-4.709,1.93-7.17c-5.31,4.461-13.5,5.601-19.39,1.62
		c-5.92-4.319-7.37-12.18-7.8-19.04C248.17,107.939,248.33,99.03,253.49,92.45 M267.57,101.71c-2.71,2.181-2.56,6.12-2.83,9.29
		c0.2,4-0.18,8.59,2.41,11.91c2.62,1.9,6.02,0.55,8.36-1.16c-0.06-6.15,0.01-12.3,0.02-18.45
		C273.28,101.62,270.29,100.54,267.57,101.71z"/>
	<path id="path35" fill="#121313" d="M345.98,96.93c7.27-12.39,28.279-12.96,35.779-0.55c3.971,6.28,4.221,14,4.03,21.19
		c-9.46,0.01-18.92-0.021-28.38,0.02c0.71,2.79,2,5.99,5.1,6.79c5.3,1.42,10.811-0.59,15.521-2.989
		c2.25,3.59,4.359,7.27,6.59,10.879c-7.78,4.641-17.18,6.75-26.14,4.95c-7.521-1.659-13.49-8.01-15.24-15.439
		C341.21,113.58,341.6,104.33,345.98,96.93 M357.33,106.85c4.55,0.301,9.12,0.17,13.689,0.16c-0.42-4.08-3.609-8.21-8.159-7.05
		C359.26,100.19,358.15,103.98,357.33,106.85z"/>
	<path id="path37" fill="#121313" d="M298.26,88.51c5.59,0,11.181,0,16.771,0c0.17,16.08,0.029,32.16,0.09,48.24
		c-5.63,0.08-11.25,0.061-16.88,0.03C298.17,120.689,298.31,104.6,298.26,88.51z"/>
</g>
</svg>
