<svg version="1.1" id="Ebene_1" xmlns="http://www.w3.org/2000/svg" x="0" y="0" viewBox="0 0 590 94" xml:space="preserve"><style>.st0{fill-rule:evenodd;clip-rule:evenodd;fill:#ff6c3f}</style><path class="st0" d="M121.9 9c8.3 6.9 12.5 16.8 12.5 29 0 16.5-8.5 27.1-23.4 32.6 0 3 1 5.8 2.4 9.7.4 1.1 1 2.5 1.7 3.8l.3.5.3.5c1.4 3 2.6 6 1.4 7.3-1.9 2.2-7.9 1.5-13.8-1s-9.3-5.6-12-8.9c-1.8-2.1-3.1-4.3-4.3-6.2-1.1-1.8-1.4-3.1-3.4-2.9-4.1.3-8.1.7-12.2 1-.8.1-1.5-.6-1.5-1.4V56.2c0-.7.6-1.3 1.3-1.4 6.1-.5 12.1-1 18.2-1.5 14.4-1.1 21.6-6.9 21.6-18.1 0-10.8-7.2-16-21.6-15.1l-.8.1c-5.7.4-11.5.9-17.2 1.4-.8.1-1.5-.6-1.5-1.4V3.1c0-.7.6-1.3 1.3-1.4 6.2-.5 12.5-1 18.7-1.5 12.8-1 23.5 1.9 32 8.8zM60 4.5v17.1c0 .7-.6 1.3-1.3 1.4L40 24.5C26.8 26 20.2 31.7 20.2 42c0 10.7 6.6 16 19.8 15.5l18.5-1.4c.8-.1 1.5.6 1.5 1.4v17.1c0 .7-.6 1.3-1.3 1.4-8 .7-16 1.3-24 1.8h-.9c-9.8.3-17.7-2.7-24-8.9C3.2 62.4 0 53.6 0 42.7c0-3 .3-5.8.8-8.5V34c1.4-6.7 4.6-12.5 9.4-17.6C16.7 9.7 25 5.9 34.8 5l23.8-1.8c.7-.1 1.4.5 1.4 1.3zM182.5 23.4c11.7 0 20 6.8 23.1 18.8.1.5-.2.9-.6 1.1h-.1L193 45.4c-.4.1-.9-.2-1-.6-1.8-6-5.3-9.1-10.2-9.1-6.2 0-10.5 5.5-10.5 13.3 0 7.9 4.4 13.3 10.9 13.3 4.5 0 7.6-2.1 9.3-6.3.1-.3.4-.6.8-.6h.1l12.5 1c.6 0 1 .6.8 1.1-3.4 11.3-11.5 17-23.9 17-7.3 0-13.1-2.3-17.7-7s-6.8-10.8-6.8-18.6c0-7.4 2.3-13.5 7.1-18.4 4.7-4.7 10.8-7.1 18.1-7.1zM530.5 37.3c10 0 16.5 5.2 18.4 14.7.1.5-.3 1-.8 1.1l-10.7 1.1c-.5.1-.9-.3-1-.8-.5-4.3-2.4-6.3-5.3-6.3-3.2 0-5.1 3.4-5.1 8.8s2.2 8.8 5.8 8.8c2.4 0 4.5-1.5 5.4-4.7.2-.5.7-.8 1.2-.6l9.7 2.9c.5.2.8.8.6 1.3-4 7.6-9.2 10.9-17.1 10.9-12.1 0-19.1-6.8-19.1-18.5 0-5.3 1.7-9.8 5.1-13.2 3.5-3.7 7.7-5.5 12.9-5.5zM223.5 24.4c.5 0 .9.4.9.9v47.5c0 .5-.4.9-.9.9h-11.6c-.5 0-.9-.4-.9-.9V25.3c0-.5.4-.9.9-.9h11.6zM373.8 37.6c1.1 0 2.1.1 3 .3.4.1.7.5.7.9v10.5c0 .6-.6 1-1.2.9-1.1-.3-2.5-.5-3.9-.5-5 0-7.5 2.3-7.5 6.8v16.1c0 .5-.4.9-.9.9h-11.4c-.5 0-.9-.4-.9-.9V39.1c0-.5.4-.9.9-.9H363c.5 0 .9.4.9.9v6.7l.2-.6c2-5 5.3-7.6 9.7-7.6zM281.6 38.2c.3 0 .5.2.6.5l5.5 20.4c.1.3.5.3.6 0l5.4-20.4c.1-.3.3-.5.6-.5h12.5c.4 0 .8.4.6.9l-11.8 34.1c-.1.3-.3.4-.6.4h-14c-.3 0-.5-.2-.6-.4L268.5 39c-.1-.4.2-.9.6-.9h12.5zM566.2 24.5c.5 0 .9.4.9.9V44l.2-.4c2.4-4.1 5.8-6.3 10.2-6.3 8 0 12.5 4.9 12.5 13.9v21.4c0 .5-.4.9-.9.9h-11.4c-.5 0-.9-.4-.9-.9V53.5c0-3.8-1.4-5.7-4.3-5.7-3.3 0-5.4 2.7-5.4 6.9v18c0 .5-.4.9-.9.9h-11.4c-.5 0-.9-.4-.9-.9V25.4c0-.5.4-.9.9-.9h11.4zM507.2 38.2h-10.4c-.5 0-.9.4-.9.9v5.2l-.2-.5c-1.7-4-5.8-6.5-10.6-6.5-4.6 0-8.5 1.7-11.6 5.1-3.1 3.5-4.6 7.9-4.6 13.4 0 5.6 1.5 10 4.7 13.4 3.2 3.5 7 5.1 11.9 5.1 4.7 0 8.6-2.7 10.3-7.2l.2-.6v6c0 .5.4.9.9.9h10.4c.5 0 .9-.4.9-.9V39.1c-.1-.5-.5-.9-1-.9zm-18.5 26.4c-3.9 0-7.2-3.3-7.2-8.8s3.3-8.8 7.2-8.8c3.5 0 6.3 3.9 6.3 8.8-.1 5-2.8 8.8-6.3 8.8zM460.5 42.3c-3.2-3.3-7.5-4.9-13.1-4.9s-10.4 1.8-14.1 5.2c-3.7 3.5-5.6 7.9-5.6 13.3 0 5.8 1.9 10.3 5.7 13.6 3.7 3.3 8.6 4.9 14.6 4.9 8.1 0 13.8-2.8 17-8.2.3-.5.1-1.1-.4-1.3l-8.9-3.5c-.4-.2-.8 0-1.1.3-1.6 2.4-3.7 3-6.3 3-3.7 0-7.1-2.1-7.7-5.8v-.1h24c.5 0 .9-.4.9-.9v-2.4c-.2-5.5-1.8-9.9-5-13.2zm-20.1 10v-.1c.5-3.5 3.5-5.6 6.4-5.6 3 0 5.6 1.9 6 5.6v.1h-12.4zM262.4 42.3c-3.2-3.3-7.5-4.9-13.1-4.9s-10.4 1.8-14.1 5.2c-3.7 3.5-5.6 7.9-5.6 13.3 0 5.8 1.9 10.3 5.7 13.6 3.7 3.3 8.6 4.9 14.6 4.9 8.1 0 13.8-2.8 17-8.2.3-.5.1-1.1-.4-1.3l-8.9-3.5c-.4-.2-.8 0-1.1.3-1.6 2.4-3.7 3-6.3 3-3.7 0-7.1-2.1-7.7-5.8v-.1h24c.5 0 .9-.4.9-.9v-2.4c-.2-5.5-1.8-9.9-5-13.2zm-20.1 10v-.1c.5-3.5 3.5-5.6 6.4-5.6 3 0 5.6 1.9 6 5.6v.1h-12.4zM341.3 42.3c-3.2-3.3-7.5-4.9-13.1-4.9s-10.4 1.8-14.1 5.2c-3.7 3.5-5.6 7.9-5.6 13.3 0 5.8 1.9 10.3 5.7 13.6 3.7 3.3 8.6 4.9 14.6 4.9 8.1 0 13.8-2.8 17-8.2.3-.5.1-1.1-.4-1.3l-8.9-3.5c-.4-.2-.8 0-1.1.3-1.6 2.4-3.7 3-6.3 3-3.7 0-7.1-2.1-7.7-5.8v-.1h24c.5 0 .9-.4.9-.9v-2.4c-.2-5.5-1.8-9.9-5-13.2zm-20.1 10v-.1c.5-3.5 3.5-5.6 6.4-5.6 3 0 5.6 1.9 6 5.6v.1h-12.4zM422.3 65.9c-4.3-4.4-6.9-9.2-6.9-10.5 6.9-2.2 9-8 9-13.8 0-5.3-1.9-9.4-5.4-12.5-3.6-3-8-4.6-13.5-4.6h-22c-.5.1-.8.4-.8.9v47.5c.1.5.4.8.9.8h11.6c.5-.1.8-.4.8-.9V59.2c.1-.8.7-1.3 1.4-1.3h3.5c1.2.1 1.1 1.2 3.1 5.3 2.9 5.6 6.7 9.4 13 11 4.4 1.1 8.9.4 9.7-1.3 1.2-1.7-2.6-4.9-4.4-7zm-18.2-18.6H396.9c-.4-.1-.7-.4-.7-.8V35.8c.1-.4.4-.7.8-.7h6.9c4.4 0 7.1 2.4 7.1 6.2 0 3.7-2.6 6-6.9 6z"/></svg>