<svg width="174" height="33" viewBox="0 0 174 33" version="1.1" xmlns="http://www.w3.org/2000/svg" xmlns:xlink="http://www.w3.org/1999/xlink">
<g id="Canvas" fill="none">
<g id="b24_com">
<g id="Group">
<g id="Group_2">
<g id="Vector">
<path d="M 3.05176e-06 27.1L 18.7 27.1L 18.7 23L 6.3 23C 8 16.2 18.4 14.7 18.4 7.1C 18.4 3 15.6 0 9.80001 0C 6.10001 0 3 1.1 0.799998 2.2L 2.1 6C 4.1 5.1 6.3 4.2 9 4.2C 11.2 4.2 13.2 5.1 13.2 7.6C 13.3 13.2 1.1 13.6 3.05176e-06 27.1Z" transform="translate(106.8 5.29999)" fill="#00629A"/>
</g>
</g>
<g id="Group_3">
<g id="Vector_2">
<path d="M 10.4 20.8C 4.69999 20.8 0 16.1 0 10.4C 0 4.7 4.69999 -9.53674e-08 10.4 -9.53674e-08C 16.1 -9.53674e-08 20.8 4.7 20.8 10.4C 20.8 16.1 16.1 20.8 10.4 20.8ZM 10.4 1.9C 5.69999 1.9 1.89999 5.7 1.89999 10.4C 1.89999 15.1 5.69999 18.9 10.4 18.9C 15.1 18.9 18.9 15.1 18.9 10.4C 18.9 5.7 15.1 1.9 10.4 1.9Z" transform="translate(152.5 5.89999)" fill="#00629A"/>
</g>
</g>
<g id="Vector_3">
<path d="M 6.6 5.2L 1.40001 5.2L 1.40001 1.90735e-07L -3.05176e-06 1.90735e-07L -3.05176e-06 6.6L 6.6 6.6L 6.6 5.2Z" transform="translate(162.2 11.1)" fill="#00629A"/>
</g>
<g id="Group_4">
<g id="Group_5">
<g id="Vector_4">
<path d="M 0 -4.76837e-08L 9 -4.76837e-08C 15.6 -4.76837e-08 18.6 3.8 18.6 7.8C 18.6 10.5 17.3 12.9 14.9 14.2L 14.9 14.3C 18.5 15.2 20.7 18.1 20.7 21.7C 20.7 26.5 17.1 30.8 9.9 30.8L 0 30.8L 0 -4.76837e-08ZM 8.3 12.9C 11.4 12.9 13.1 11.2 13.1 8.8C 13.1 6.5 11.6 4.7 8.3 4.7L 5.7 4.7L 5.7 12.9L 8.3 12.9ZM 9.2 26.2C 12.9 26.2 15 24.8 15 21.7C 15 19.1 13 17.5 9.9 17.5L 5.7 17.5L 5.7 26.2L 9.2 26.2Z" transform="translate(0 1.60001)" fill="#3FC0F0"/>
</g>
<g id="Vector_5">
<path d="M 1.52588e-06 3.4C 1.52588e-06 1.5 1.5 4.76837e-08 3.4 4.76837e-08C 5.3 4.76837e-08 6.9 1.4 6.9 3.4C 6.9 5.2 5.4 6.7 3.4 6.7C 1.4 6.7 1.52588e-06 5.3 1.52588e-06 3.4ZM 0.6 10.3L 6.2 10.3L 6.2 32.4L 0.6 32.4L 0.6 10.3Z" transform="translate(24.9 0)" fill="#3FC0F0"/>
</g>
<g id="Vector_6">
<path d="M 4 23.4L 4 11.1L -1.52588e-06 11.1L -1.52588e-06 6.7L 4 6.7L 4 1.6L 9.6 1.90735e-07L 9.6 6.7L 16.3 6.7L 14.9 11.1L 9.6 11.1L 9.6 22C 9.6 24.1 10.3 24.8 11.8 24.8C 13.1 24.8 14.3 24.3 15.2 23.7L 16.9 27.5C 15.3 28.6 12.6 29.2 10.4 29.2C 6.4 29.3 4 27.1 4 23.4Z" transform="translate(34.6 3.60001)" fill="#3FC0F0"/>
</g>
<g id="Vector_7">
<path d="M 0.1 0.5L 4.8 0.5L 5.4 3C 7.4 1 9.2 0 11.5 0C 12.5 0 13.7 0.3 14.6 0.9L 12.6 5.6C 11.6 5 10.7 4.9 10.1 4.9C 8.6 4.9 7.4 5.5 5.6 7.1L 5.6 22.7L 1.52588e-06 22.7L 1.52588e-06 0.5L 0.1 0.5Z" transform="translate(54.4 9.79999)" fill="#3FC0F0"/>
</g>
<g id="Vector_8">
<path d="M -3.05176e-06 3.4C -3.05176e-06 1.5 1.5 4.76837e-08 3.4 4.76837e-08C 5.3 4.76837e-08 6.8 1.5 6.8 3.4C 6.8 5.2 5.3 6.7 3.3 6.7C 1.3 6.7 -3.05176e-06 5.3 -3.05176e-06 3.4ZM 0.600003 10.3L 6.2 10.3L 6.2 32.4L 0.600003 32.4L 0.600003 10.3Z" transform="translate(71.2 0)" fill="#3FC0F0"/>
</g>
<g id="Vector_9">
<path d="M 8.1 11L 0.0999969 0L 5.9 0L 11.1 7.2L 16.4 0L 22.2 0L 14.1 11L 22.3 22.1L 16.5 22.1L 11.2 14.7L 5.8 22.1L -1.52588e-06 22.1L 8.1 11Z" transform="translate(80.6 10.3)" fill="#3FC0F0"/>
</g>
</g>
</g>
<g id="Vector_10">
<path d="M 16.8 16.6L 16.8 0L 13.3 0L 6.10352e-06 17.3L 6.10352e-06 20.6L 12 20.6L 12 27.2L 16.8 27.2L 16.8 20.6L 20.8 20.6L 20.8 16.6L 16.8 16.6ZM 12 12.7L 12 16.5L 8.79999 16.5C 7.79999 16.5 6 16.6 5.4 16.6L 12.2 7.4C 12.2 8.2 12 10.6 12 12.7Z" transform="translate(126.1 5.29999)" fill="#00629A"/>
</g>
</g>
</g>
</g>
</svg>

