<svg xmlns="http://www.w3.org/2000/svg" xmlns:xlink="http://www.w3.org/1999/xlink" version="1.1" x="0px" y="0px" viewBox="0 0 243.2 190.2" enable-background="new 0 0 243.2 190.2" xml:space="preserve">
<g id="logo">
	<g>
		<path fill="#4E5E9E" d="M26.1,187.9v-20.8c0-5.1-2.7-9.8-8-9.8c-5.2,0-8.3,4.6-8.3,9.8v20.8H0.3V149h8.9l0.7,4.7    c2-3.9,6.5-5.4,10.2-5.4c4.6,0,9.3,1.9,11.5,7.2c3.5-5.5,8-7.1,13-7.1c11,0,16.5,6.8,16.5,18.4v21h-9.6v-21c0-5.1-2.1-9.5-7.3-9.5    c-5.2,0-8.4,4.5-8.4,9.6v20.8H26.1z"/>
		<path fill="#4E5E9E" d="M98.5,149.1h9.2v38.8h-9.1l-0.5-5.7c-2.2,4.6-8.3,6.8-12.6,6.9c-11.5,0.1-20-7-20-20.6    c0-13.4,8.9-20.4,20.2-20.3c5.2,0,10.2,2.4,12.4,6.3L98.5,149.1z M75.2,168.5c0,7.4,5.1,11.8,11.5,11.8c15.1,0,15.1-23.6,0-23.6    C80.3,156.7,75.2,161.1,75.2,168.5z"/>
		<path fill="#4E5E9E" d="M123.5,149.1v20.3c0,5.9,3.2,10.4,9.4,10.4c5.9,0,9.9-5,9.9-10.9v-19.9h9.5V188h-8.6l-0.6-5.3    c-4,3.9-7.7,5.8-13.2,5.8c-9.3,0-16.1-7-16.1-19.1v-20.4H123.5z"/>
		<path fill="#4E5E9E" d="M174.4,138.1v11h10.7v8.3h-10.8v16.8c0,3.7,2,5.5,5,5.5c1.5,0,3.2-0.5,4.6-1.2l2.7,8.2    c-2.8,1.1-5,1.6-8,1.7c-8.4,0.3-13.9-4.5-13.9-14.2v-16.8h-7.2v-8.3h7.2v-10L174.4,138.1z"/>
		<path fill="#4E5E9E" d="M202.7,138.1c0,7.5-11.3,7.5-11.3,0C191.4,130.7,202.7,130.7,202.7,138.1z M192.3,148.9v39h9.6v-39H192.3z    "/>
		<path fill="#4E5E9E" d="M242.6,183c-4.5,4.4-9.2,6.1-15,6.1c-11.3,0-20.6-6.8-20.6-20.6s9.4-20.6,20.6-20.6c5.5,0,9.8,1.6,14,5.8    l-6.1,6.4c-2.3-2-5.1-3.1-7.8-3.1c-6.5,0-11.2,4.7-11.2,11.5c0,7.4,5,11.3,11,11.3c3.1,0,6.1-0.9,8.5-3.2L242.6,183z"/>
	</g>
</g>
<g id="brandmark">
	<g>
		<path fill="#4E5E9E" d="M121.2,119c-32.7,0-59.4-26.6-59.4-59.4S88.5,0.2,121.2,0.2c7.9,0,15.6,1.5,22.8,4.6c2,0.9,3,3.2,2.2,5.3    c-0.9,2-3.2,3-5.3,2.2c-6.3-2.6-12.9-3.9-19.7-3.9c-28.3,0-51.3,23-51.3,51.3s23,51.3,51.3,51.3c28.3,0,51.3-23,51.3-51.3    c0-6.1-1-12-3.1-17.6c-0.8-2.1,0.3-4.4,2.4-5.2c2.1-0.8,4.4,0.3,5.2,2.4c2.4,6.5,3.6,13.4,3.6,20.4C180.6,92.3,154,119,121.2,119z    "/>
	</g>
	<g>
		<polygon fill="#FDB933" points="147.2,53.5 138,63.1 143.1,84.6 154.7,84.6   "/>
	</g>
	<polygon fill="#FDB933" points="143.4,25.1 146.6,28.3 121.2,55.2 99.5,32.9 87,84.6 98.6,84.6 105.5,55.9 121.2,73 154.8,36.4    158,39.7 161.2,21.6  "/>
</g>
</svg>
