<?xml version="1.0" encoding="UTF-8"?>
<svg xmlns="http://www.w3.org/2000/svg" viewBox="0 0 32 32" style="fill: #933A8D">
	<path
		d="M 5 3 L 5 4 L 5 28 L 5 29 L 6 29 L 22 29 L 23 29 L 23 28 L 23 25 L 23 24.03125 L 23 23.1875 L 21.90625 22.125 L 21.0625 21.25 L 21 21.25 L 21 24.03125 L 21 25 L 21 27 L 7 27 L 7 5 L 21 5 L 21 8.03125 L 21 10.8125 L 21.90625 9.875 L 23 8.8125 L 23 6.875 L 23 4 L 23 3 L 22 3 L 6 3 L 5 3 z M 23.34375 11.28125 L 21.90625 12.71875 L 24.1875 15 L 12 15 L 12 17 L 24.1875 17 L 21.90625 19.28125 L 23.34375 20.71875 L 27.34375 16.71875 L 28.03125 16 L 27.34375 15.28125 L 23.34375 11.28125 z"
		overflow="visible"
	/>
</svg>
