<?xml version="1.0" encoding="utf-8"?>
<!-- Generator: Adobe Illustrator 24.3.0, SVG Export Plug-In . SVG Version: 6.00 Build 0)  -->
<svg version="1.1" id="katman_1" xmlns="http://www.w3.org/2000/svg" xmlns:xlink="http://www.w3.org/1999/xlink" x="0px" y="0px"
	 viewBox="0 0 2500 2500" style="enable-background:new 0 0 2500 2500;" xml:space="preserve">
<style type="text/css">
	.st0{fill:#CF272D;}
</style>
<g>
	<path class="st0" d="M1248.6,1996.3c-411.4,0-744.9-333.5-744.9-744.9c0-411.4,333.5-744.9,744.9-744.9
		c411.4,0,744.9,333.5,744.9,744.9C1993.5,1662.8,1660,1996.3,1248.6,1996.3L1248.6,1996.3z M1248.6,239.9
		C690,239.9,237.2,692.8,237.2,1251.4c0,558.6,452.8,1011.4,1011.5,1011.4c558.6,0,1011.4-452.8,1011.4-1011.4
		C2260.1,692.8,1807.2,239.9,1248.6,239.9L1248.6,239.9z"/>
	<path class="st0" d="M1290.2,999.5c0-116.1,94.2-210.3,210.3-210.3s210.3,94.2,210.3,210.3c0,116.2-94.2,210.3-210.3,210.3
		C1384.4,1209.8,1290.2,1115.6,1290.2,999.5 M1290.2,1503.3c0-116.1,94.2-210.3,210.3-210.3s210.3,94.2,210.3,210.3
		c0,116.2-94.2,210.3-210.3,210.3C1384.4,1713.6,1290.2,1619.4,1290.2,1503.3 M786.4,1503.3c0-116.1,94.2-210.3,210.3-210.3
		c116.2,0,210.3,94.2,210.3,210.3c0,116.2-94.2,210.3-210.3,210.3C880.6,1713.6,786.4,1619.4,786.4,1503.3 M786.4,999.5
		c0-116.2,94.2-210.3,210.3-210.3c116.2,0,210.3,94.2,210.3,210.3c0,116.2-94.2,210.3-210.3,210.3
		C880.6,1209.8,786.4,1115.6,786.4,999.5"/>
</g>
</svg>
