<?xml version="1.0" encoding="UTF-8"?>
<svg fill="#000000" xmlns="http://www.w3.org/2000/svg" viewBox="0 0 57 57" width="57" height="57">
    <style id="style2" type="text/css">
        .st0 {
            fill-rule: evenodd;
            clip-rule: evenodd;
            fill: #1856ED;
        }
        .st1 {
            fill-rule: evenodd;
            clip-rule: evenodd;
            fill: #FF9E1A;
        }
    </style>
    <g id="g46">
        <path class="st1"
            d="m 36.3,23.1 c 0.5,1.5 1.9,2.4 3.5,2.4 0.4,0 0.8,-0.1 1.2,-0.2 1.9,-0.7 2.9,-2.8 2.2,-4.7 -1.2,-3.3 -3.7,-5.9 -7.2,-7.5 -1.8,-0.8 -4,0 -4.9,1.8 -0.8,1.8 0,4 1.8,4.9 1.8,0.8 2.9,1.9 3.4,3.3 z"
            id="path38"></path>
        <path class="st1"
            d="m 35.1,0.1 c -2,-0.4 -3.9,0.9 -4.3,2.9 -0.4,2 0.9,3.9 2.9,4.3 8.3,1.6 13.9,7.2 15.3,15.3 0.3,1.8 1.9,3 3.6,3 0.2,0 0.4,0 0.6,-0.1 2,-0.4 3.3,-2.3 3,-4.2 -1.9,-11 -9.8,-19 -21.1,-21.2 z"
            id="path40"></path>
        <path class="st0"
            d="m 25.8,36.7 c -3.3,0 -6.1,-2.7 -6.1,-6.1 0,-3.3 2.7,-6.1 6.1,-6.1 2,0 3.7,-1.6 3.7,-3.7 0,-2.1 -1.6,-3.7 -3.7,-3.7 -7.4,0 -13.4,6 -13.4,13.4 0,7.4 6,13.4 13.4,13.4 7.4,0 13.4,-6 13.4,-13.4 0,-2 -1.6,-3.7 -3.7,-3.7 -2,0 -3.7,1.6 -3.7,3.7 0.1,3.5 -2.7,6.2 -6,6.2 z"
            id="path42"></path>
        <path class="st0"
            d="m 47.9,27 c -2,0 -3.7,1.6 -3.7,3.7 0,10.2 -8.3,18.5 -18.5,18.5 -10.2,0 -18.5,-8.3 -18.5,-18.5 0,-10.2 8.3,-18.5 18.5,-18.5 2,0 3.7,-1.6 3.7,-3.7 0,-2 -1.6,-3.7 -3.7,-3.7 C 11.6,4.8 0,16.4 0,30.6 0,44.8 11.6,56.4 25.8,56.4 40,56.4 51.6,44.8 51.6,30.6 51.6,28.6 50,27 47.9,27 Z"
            id="path44"></path>
    </g>
</svg>