<svg width="400" height="400" viewBox="0 0 400 400" fill="none" xmlns="http://www.w3.org/2000/svg">
<rect width="400" height="400" fill="#453DD8"/>
<path d="M226.514 105.651C222.78 105.651 219.74 108.721 219.74 112.492C219.74 116.264 222.78 119.334 226.514 119.334C230.248 119.334 233.288 116.264 233.288 112.492C233.288 108.721 230.248 105.651 226.514 105.651Z" fill="white"/>
<path d="M226.514 137.182C222.78 137.182 219.74 140.252 219.74 144.024C219.74 147.795 222.78 150.865 226.514 150.865C230.248 150.865 233.288 147.795 233.288 144.024C233.288 140.252 230.248 137.182 226.514 137.182Z" fill="white"/>
<path d="M226.514 168.712C222.78 168.712 219.74 171.781 219.74 175.553C219.74 179.325 222.78 182.394 226.514 182.394C230.248 182.394 233.288 179.325 233.288 175.553C233.288 171.781 230.248 168.712 226.514 168.712Z" fill="white"/>
<path d="M258.348 105.651C254.614 105.651 251.575 108.721 251.575 112.492C251.575 116.264 254.614 119.334 258.348 119.334C262.083 119.334 265.122 116.264 265.122 112.492C265.122 108.721 262.083 105.651 258.348 105.651Z" fill="white"/>
<path d="M258.352 137.182C254.617 137.182 251.578 140.252 251.578 144.024C251.578 147.795 254.617 150.865 258.352 150.865C262.086 150.865 265.125 147.795 265.125 144.024C265.125 140.252 262.086 137.182 258.352 137.182Z" fill="white"/>
<path d="M258.352 168.712C254.617 168.712 251.578 171.781 251.578 175.553C251.578 179.325 254.617 182.394 258.352 182.394C262.086 182.394 265.125 179.325 265.125 175.553C265.125 171.781 262.086 168.712 258.352 168.712Z" fill="white"/>
<path d="M289.621 105.651C285.887 105.651 282.847 108.721 282.847 112.492C282.847 116.264 285.887 119.334 289.621 119.334C293.355 119.334 296.395 116.264 296.395 112.492C296.438 108.721 293.399 105.651 289.621 105.651Z" fill="white"/>
<path d="M289.624 137.182C285.89 137.182 282.85 140.252 282.85 144.024C282.85 147.795 285.89 150.865 289.624 150.865C293.358 150.865 296.398 147.795 296.398 144.024C296.441 140.252 293.402 137.182 289.624 137.182Z" fill="white"/>
<path d="M289.624 168.712C285.89 168.712 282.85 171.781 282.85 175.553C282.85 179.325 285.89 182.394 289.624 182.394C293.358 182.394 296.398 179.325 296.398 175.553C296.398 171.781 293.402 168.712 289.624 168.712Z" fill="white"/>
<path fill-rule="evenodd" clip-rule="evenodd" d="M99.9993 143.826C99.9993 121.923 117.755 104.167 139.659 104.167C161.562 104.167 179.318 121.923 179.318 143.826V254.14C179.318 276.043 161.562 293.799 139.659 293.799C117.755 293.799 99.9993 276.043 99.9993 254.14V143.826ZM111.339 252.897C111.704 237.042 124.695 224.481 140.327 224.85C155.989 225.219 168.373 238.396 167.979 254.252C167.614 270.107 154.623 282.668 138.991 282.298C123.359 281.929 110.975 268.752 111.339 252.897ZM130.206 263.855H149.146V244.644H130.206V263.855ZM140.931 116.356C156.571 116.74 168.964 129.912 168.611 145.777C168.258 161.641 155.292 174.19 139.651 173.806C124.011 173.421 111.618 160.249 111.971 144.385C112.324 128.52 125.29 115.971 140.931 116.356Z" fill="white"/>
<path fill-rule="evenodd" clip-rule="evenodd" d="M216.499 211.501V295.833H299.999V211.501H216.499ZM283.034 272.677H233.489V262.24H283.034V272.677ZM233.489 245.05H283.034V234.613H233.489V245.05Z" fill="white"/>
</svg>
