<?xml version="1.0" encoding="UTF-8"?> <!-- Generator: Adobe Illustrator 25.4.1, SVG Export Plug-In . SVG Version: 6.00 Build 0) --> <svg xmlns="http://www.w3.org/2000/svg" xmlns:xlink="http://www.w3.org/1999/xlink" version="1.1" id="Layer_1" x="0px" y="0px" viewBox="0 0 881.7 465.3" style="enable-background:new 0 0 881.7 465.3;" xml:space="preserve"> <style type="text/css"> .st0{fill:#FFFFFF;} .st1{fill:#E06154;} .st2{fill:#384257;} .st3{fill:#969696;} </style> <g> <path class="st0" d="M506.4,169.7V84c0-11.4-9.2-20.6-20.6-20.6h-88c-11.4,0-20.6,9.2-20.6,20.6v85.7c0,11.4,9.2,20.6,20.6,20.6 h21.5l-17.5,5.5l14,44.5l65.9-20.9l-9.1-29.2h13.2C497.1,190.2,506.3,181,506.4,169.7"></path> <path class="st1" d="M441.2,144.1c-30.1,0-55,8.2-67.8,19.7c-0.1,15.1,12.1,27.3,27.1,27.4c0.2,0,0.4,0,0.6,0h80.4 c15.9,0,27.8-11.9,27.9-26.8C496.4,152.9,471.4,144.2,441.2,144.1"></path> <path class="st2" d="M435.7,115.1c0.9-3.4-0.1-6.6-2.2-7.1s-4.5,1.8-5.4,5.2c-0.9,3.3,0.2,6.6,2.3,7.1 C432.5,120.8,434.9,118.4,435.7,115.1 M447.8,115.2c1,3.3,3.4,5.6,5.5,5s3-3.8,2-7.2c-1-3.4-3.4-5.5-5.5-5 C447.8,108.5,446.9,111.8,447.8,115.2 M419.7,168.9c-2.8-4.8-7.6-7.3-10.6-5.5c-3,1.8-3.1,7.1-0.3,11.9c2.8,4.8,7.6,7.3,10.6,5.6 S422.5,173.8,419.7,168.9 M477,175.6c2.8-4.9,2.7-10.2-0.3-12s-7.7,0.7-10.6,5.6c-2.8,4.8-2.7,10.2,0.3,11.9 C469.4,182.9,474.1,180.4,477,175.6 M504.5,168.9c-0.1,11.9-9.7,21.5-21.6,21.5h-83.3c-11.9,0-21.6-9.6-21.6-21.6c0,0,0,0,0,0v-8.7 c13.7-9.5,36.3-16,63.1-16s49.6,7,63.3,16.6L504.5,168.9z M504.5,154c-13.9-9.8-36.8-15.7-63.3-15.7c-26.3,0-49.2,6-63.1,15.7V85.5 c0-11.9,9.7-21.6,21.6-21.6c0,0,0,0,0,0h83.3c11.9,0,21.6,9.7,21.6,21.6L504.5,154z M406.8,200.5l20.4,10.3l-10.6,20.6L406.8,200.5 z M421.2,235.3l11.3-21.9l12.8,6.4l7.3-13l22.5,11.4L421.2,235.3z M451.5,196.5l-8.7,15.7l-31-15.7H451.5z M477.1,212.8l-21.8-11 l3-5.3h13.7L477.1,212.8z M545.6,91.3l-48.5-28.1c-4.4-3.1-9.6-4.8-15-5.1c-8.4-20.1-15.4-5.9-17.7-0.1h-46.1 c-8.4-19.9-15.4-5.8-17.6,0c-6.1,0.1-12,2-16.9,5.7L336,91.2c0,0,19.2,15.4,36,6.9v68.8c0,15.6,12.1,28.5,27.7,29.4v0.1 c0,0.3,0,0.5,0,0.8c0,0.3,0.1,0.6,0.2,0.8v0.3l12.5,39.3l0,0c0.2,0.6,0.5,1.2,0.8,1.7c0.2,0.2,0.4,0.5,0.6,0.7 c0.2,0.2,0.4,0.4,0.6,0.6l0,0c1.1,0.9,2.5,1.4,3.9,1.4c0.6,0,1.2-0.1,1.8-0.3l59.9-18.9c1.8-0.6,3.2-1.9,3.9-3.7l0,0l0,0 c0.2-0.6,0.3-1.2,0.4-1.8c0,0,0-0.2,0-0.3c0-0.6-0.1-1.2-0.3-1.8l-5.9-18.8h3.3c16-0.2,28.9-13.2,28.9-29.2l-0.6-69.1 C526.5,106.6,545.7,91.2,545.6,91.3"></path> </g> <g> <path class="st2" d="M195.7,272.2c1.3,4.7,2,9.5,2.2,14.3c0,6.2-0.5,51.3-0.5,51.3l15.7,0.3l-0.2-52c0,0,6-5.7,13.3-5.4 c5.4-0.1,9.9,4.1,10,9.5c0,0,0,0.1,0,0.1c0,4-0.3,47.7-0.3,47.7l15.7-0.2l0.2-52c3.4-3.2,7.8-5,12.4-5.2c7.3,0,10,6.4,10.2,10.2 c0.2,3.8-0.3,47.3-0.3,47.3l16.1-0.5l-0.2-50.4c0,0-2.6-18-22.8-18c-7.4-0.1-14.6,2.5-20.2,7.3c-2.8-2.6-7.8-7.8-17.1-7.1 s-12.6,1.7-20.9,6.9c-0.4-2.1-1.2-4.1-2.4-5.9L195.7,272.2z"></path> <path class="st2" d="M362.3,299.1c-2.2-28.3-23.5-29.5-23.5-29.5h-9.3c-24.4,1.8-27.5,25.8-28,30.7c0,0.5,0.2,9,0.2,9 c0.2,26.2,24.2,29.7,24.2,29.7h9c26.4-2.8,27.6-30.2,27.6-30.2S362.4,305.7,362.3,299.1 M332.2,327.7 c-12.8-0.1-15.3-11.4-15.2-22.8c0.3-11,0.8-23.3,14.9-23.8c0,0,15.7-2.2,15.3,22.4C347.4,315.7,344.9,327.3,332.2,327.7"></path> <path class="st2" d="M478,285.4c0,0-9.4-3.9-16.6-3.5c-7.2,0.4-10.9,1-11,6.6c-0.1,5.6,5.6,7.1,14.6,10.5c9,3.5,16.8,9.2,16.7,19.6 s-9.2,21.2-27.4,20.3c-15.5-0.2-20.1-5.5-20.1-5.5l3.7-10.5c0,0,9.2,4,16.8,3.7s11.5-1,11.5-7.3s-7.4-8.4-14.6-11.6 s-17-7.9-16.6-19c0.4-11.1,9.6-19.5,25.3-19.3c15.7,0.3,20.5,4.5,20.5,4.5L478,285.4z"></path> <path class="st2" d="M537.4,322.2c0,0-3.8,4.4-17.1,4.4c-17,0.3-17.6-13-17.8-14.4c14,0.3,41.3-5.5,40.6-23.6 c-0.8-18.1-20.1-19-20.1-19l-6.1-0.1c-26.9,3.2-28.9,32.9-28.9,32.9c-0.7,28.3,17.8,36.8,31.6,36.8c8.6-0.1,16.9-2.8,23.9-7.8 L537.4,322.2z M519.6,281c0,0,10,0.3,10,8.7c0,8.4-15.6,13-27.6,11.9C502,301.6,502,281.8,519.6,281"></path> <path class="st2" d="M553.2,272.8c1,4.5,1.8,9,2.2,13.6c0.2,4.7-0.2,53-0.2,53h15.7l-0.3-52.5c3.5-2.8,7.8-4.4,12.3-4.7 c6.6,0,12.1,2.8,12.1,10.2v46.9h16.3l-0.5-49.3c0,0-1.2-20.3-23.8-20.3c0,0-9.1-1.4-19.9,7.1c-1.4-3.8-2.4-6.5-2.4-6.5L553.2,272.8 z"></path> <path class="st2" d="M685.8,327.5c-2.4,0.5-4.7-1-5.2-3.4c-0.1-0.3-0.1-0.6-0.1-1c-0.5-5.4,0-81.2,0-81.2l-14.9,1.7l-0.3,26.8 c0,0-7.6-1-11-1c-3.4,0-30.6,0.3-31.6,35c-1,34.7,23.7,34.7,26.1,34.7c2.4,0,13-0.5,18.5-9.1c0.5,2.2,2.1,8.1,11.9,7.9 c2.3-0.1,4.6-0.5,6.8-1.2L685.8,327.5z M665.2,314.2c0,0-1.4,13.5-14.3,13.5s-12.8-16.4-12.8-22.3c0-5.8,0-24.3,17.4-24.3 c3.3-0.1,6.5,0.2,9.7,1V314.2z"></path> <path class="st2" d="M430,299.2c-2.2-28.3-23.5-29.6-23.5-29.6h-9.3c-24.3,2.1-27.5,25.9-28,30.8c0,0.5,0.2,9,0.2,9 c0.2,26.3,24.2,29.7,24.2,29.7h9c26.5-2.6,27.7-30.2,27.7-30.2S430.2,305.8,430,299.2 M399.9,327.7c-12.8-0.1-15.3-11.4-15.1-22.8 c0.3-11,0.8-23.3,14.9-23.7c0,0,15.7-2.2,15.3,22.4C415.2,315.9,412.6,327.4,399.9,327.7"></path> <path class="st3" d="M670.2,377.5h-4.3l8.2,19.2l-1.2,3.2c-0.3,0.9-0.8,1.7-1.3,2.4c-0.6,0.6-1.4,0.9-2.2,0.8 c-0.6,0-1.2-0.1-1.8-0.3l-0.4,3.4c0.4,0.1,0.8,0.2,1.3,0.2h1.2c0.8,0,1.7-0.1,2.5-0.4c0.7-0.2,1.3-0.6,1.8-1c0.5-0.5,1-1,1.4-1.6 c0.4-0.7,0.7-1.4,1-2.2l9.3-23.7h-4.1l-5.3,15.1l0,0L670.2,377.5z M644.3,377.5c0,0.6,0.1,1.3,0.1,2.1c0,0.8,0,1.5,0,2v15.1h3.8 v-10.2c-0.1-1.7,0.4-3.3,1.4-4.6c0.9-1.1,2.2-1.7,3.7-1.7c0.8,0,1.5,0.1,2.2,0.5c0.6,0.3,1,0.8,1.3,1.3c0.3,0.6,0.6,1.2,0.7,1.8 c0.1,0.7,0.2,1.5,0.2,2.2v10.6h3.8v-11.9c0-1-0.1-2-0.4-3c-0.5-1.8-1.8-3.4-3.5-4.2c-1-0.4-2.1-0.7-3.2-0.6c-0.7,0-1.4,0.1-2,0.3 c-0.6,0.2-1.3,0.4-1.8,0.8c-0.5,0.3-1,0.7-1.4,1.2c-0.4,0.4-0.7,0.9-1,1.4h-0.1c0-0.4,0-0.9,0-1.5s0-1.2-0.1-1.6L644.3,377.5z M633.6,384.8c-1.6,0-3.2,0-4.8,0.2c-1.5,0.1-2.9,0.4-4.3,0.9c-1.2,0.4-2.2,1-3.1,1.9c-0.8,1-1.3,2.2-1.2,3.5c0,1,0.2,1.9,0.7,2.8 c0.4,0.7,1,1.4,1.7,1.8c0.7,0.5,1.4,0.8,2.2,1c0.8,0.2,1.6,0.3,2.4,0.3c1.3,0,2.6-0.3,3.8-0.9c1.1-0.6,2-1.4,2.6-2.4h0.1 c0,0.9,0.1,1.9,0.3,2.8h3.4c-0.1-0.6-0.2-1.2-0.2-1.8c0-0.7,0-1.4,0-2v-8.4c0-1-0.2-2-0.5-3c-0.3-0.9-0.8-1.7-1.5-2.4 c-0.7-0.7-1.5-1.3-2.5-1.6c-1.2-0.4-2.4-0.6-3.7-0.6c-1.5,0-3,0.2-4.4,0.8c-1.3,0.5-2.5,1.2-3.5,2.1l2,2.4c0.7-0.7,1.5-1.2,2.4-1.6 c1-0.4,2-0.6,3.1-0.6c1.2-0.1,2.4,0.3,3.4,1c0.9,0.8,1.4,2,1.3,3.2L633.6,384.8z M633.6,387.6v0.9c0.1,1.5-0.5,2.9-1.4,4 c-1.1,1.1-2.6,1.7-4.1,1.6c-0.5,0-0.9-0.1-1.4-0.1c-0.4-0.1-0.9-0.3-1.3-0.5c-0.4-0.2-0.7-0.6-0.9-0.9c-0.2-0.4-0.4-0.9-0.3-1.4 c0-0.7,0.3-1.4,0.8-1.9c0.6-0.5,1.3-0.9,2-1.1c0.9-0.3,1.8-0.4,2.7-0.5c1,0,2-0.1,2.9-0.1L633.6,387.6z M598.9,393.9h0.1 c0.7,1.1,1.7,2,2.9,2.5c1.2,0.6,2.5,0.9,3.9,0.9c1.4,0,2.7-0.3,4-0.8c1.1-0.5,2.2-1.2,3-2.2c0.9-0.9,1.5-2,1.9-3.2 c0.5-1.3,0.7-2.6,0.7-4c0-1.3-0.2-2.7-0.7-3.9c-0.4-1.2-1.1-2.3-2-3.2c-0.9-0.9-1.9-1.7-3.1-2.2c-1.2-0.5-2.6-0.8-3.9-0.8 c-1.5,0-2.9,0.3-4.2,1c-1.1,0.6-2.1,1.5-2.7,2.5h-0.1v-3h-3.7v28.9h3.8L598.9,393.9z M611.1,389.7c-0.3,0.8-0.7,1.6-1.2,2.2 c-0.5,0.7-1.2,1.2-2,1.6c-0.9,0.4-1.8,0.6-2.8,0.6c-0.9,0-1.8-0.2-2.7-0.6c-0.8-0.4-1.5-0.9-2-1.5c-0.6-0.6-1-1.4-1.3-2.2 c-0.6-1.7-0.6-3.6,0-5.3c0.3-0.8,0.7-1.6,1.3-2.2c0.6-0.6,1.3-1.2,2-1.5c0.8-0.4,1.7-0.6,2.7-0.6c1,0,1.9,0.2,2.8,0.6 c0.8,0.4,1.5,0.9,2,1.5c0.5,0.7,1,1.4,1.2,2.2C611.7,386.2,611.7,388,611.1,389.7 M562.1,380.7h-0.1c0-0.4,0-0.9,0-1.5 s0-1.2-0.1-1.6h-3.7c0,0.6,0.1,1.3,0.1,2.1c0,0.8,0,1.5,0,2v15.1h3.8v-10.2c-0.1-1.7,0.4-3.3,1.4-4.6c0.8-1.1,2.1-1.7,3.5-1.7 c0.6,0,1.3,0.1,1.8,0.4c0.5,0.3,0.9,0.6,1.3,1.1c0.3,0.5,0.6,1,0.7,1.6c0.1,0.7,0.2,1.4,0.2,2.1v11.4h3.8v-10.4 c0-0.8,0.1-1.5,0.3-2.2c0.2-0.7,0.4-1.4,0.8-2c0.4-0.6,0.9-1.1,1.5-1.4c0.7-0.4,1.4-0.6,2.2-0.5c0.7,0,1.4,0.1,2.1,0.5 c0.5,0.3,1,0.8,1.3,1.3c0.3,0.6,0.6,1.2,0.7,1.8c0.1,0.7,0.2,1.5,0.2,2.2v10.6h3.8v-11.9c0-1-0.1-2-0.4-3c-0.3-0.9-0.7-1.8-1.3-2.5 c-0.6-0.7-1.4-1.3-2.2-1.7c-1-0.4-2.1-0.7-3.2-0.6c-1.3,0-2.6,0.3-3.8,1c-1.2,0.7-2.1,1.7-2.7,2.9c-0.5-1.2-1.3-2.3-2.4-3 c-1.1-0.6-2.3-0.9-3.5-0.9c-1.3,0-2.7,0.3-3.8,1.1c-1,0.6-1.8,1.5-2.3,2.6 M552.4,383c-0.5-1.2-1.3-2.3-2.2-3.2 c-1-0.9-2.1-1.6-3.3-2.1c-2.6-1-5.5-1-8.2,0c-1.2,0.5-2.3,1.2-3.3,2.1c-0.9,0.9-1.7,2-2.2,3.2c-1.1,2.6-1.1,5.5,0,8.2 c0.5,1.2,1.2,2.3,2.2,3.2c0.9,0.9,2.1,1.6,3.3,2.1c2.6,1,5.5,1,8.2,0c2.5-0.9,4.5-2.9,5.5-5.3C553.4,388.6,553.4,385.6,552.4,383 M548.7,389.7c-0.3,0.8-0.7,1.6-1.2,2.2c-0.5,0.7-1.2,1.2-2,1.6c-1.7,0.8-3.7,0.8-5.5,0c-0.8-0.4-1.5-0.9-2-1.6 c-0.6-0.7-1-1.4-1.2-2.2c-0.3-0.8-0.4-1.7-0.4-2.6c0-0.9,0.1-1.8,0.4-2.6c0.3-0.8,0.7-1.6,1.2-2.2c0.5-0.6,1.2-1.2,2-1.5 c1.7-0.8,3.7-0.8,5.5,0c0.8,0.4,1.4,0.9,2,1.5c0.6,0.6,1,1.4,1.2,2.2c0.3,0.8,0.4,1.7,0.4,2.6C549.1,388,549,388.9,548.7,389.7 M529,380.2c-0.8-1.1-1.9-1.9-3.2-2.4c-1.3-0.5-2.6-0.8-4-0.8c-1.4,0-2.8,0.2-4.1,0.7c-1.2,0.5-2.3,1.2-3.3,2.1 c-0.9,0.9-1.7,2-2.1,3.2c-0.5,1.3-0.8,2.7-0.8,4.1c0,1.4,0.2,2.9,0.8,4.2c0.5,1.2,1.2,2.3,2.2,3.2c0.9,0.9,2.1,1.6,3.3,2 c1.3,0.5,2.7,0.7,4.1,0.7c1.4,0,2.8-0.2,4.1-0.8c1.2-0.5,2.2-1.2,3.1-2.2l-2.6-2.3c-0.5,0.7-1.2,1.2-2,1.6c-1.7,0.8-3.6,0.8-5.3,0 c-0.8-0.4-1.4-0.9-2-1.5c-0.6-0.6-1-1.4-1.2-2.2c-0.6-1.7-0.6-3.6,0-5.3c0.3-0.8,0.7-1.6,1.2-2.2c0.5-0.6,1.2-1.1,2-1.5 c0.8-0.4,1.7-0.6,2.6-0.6c0.9,0,1.8,0.2,2.6,0.6c0.7,0.4,1.4,0.9,1.8,1.6L529,380.2z M493.2,376.5c0.2,0.5,0.5,1,0.9,1.4 c0.4,0.4,0.9,0.7,1.4,0.9c0.5,0.2,1.1,0.3,1.7,0.3c0.6,0,1.2-0.1,1.7-0.3c0.5-0.2,1-0.5,1.4-0.9c0.8-0.8,1.3-1.9,1.3-3.1 c0-1.2-0.5-2.3-1.3-3.1c-0.4-0.4-0.9-0.7-1.4-0.9c-0.5-0.2-1.1-0.4-1.7-0.3c-0.6,0-1.2,0.1-1.7,0.3c-0.5,0.2-1,0.5-1.4,0.9 c-0.4,0.4-0.7,0.9-0.9,1.4c-0.2,0.5-0.4,1.1-0.3,1.7C492.9,375.4,493,376,493.2,376.5 M493.9,373.4c0.4-0.9,1.1-1.6,2-2 c0.5-0.2,0.9-0.3,1.4-0.3c0.5,0,1,0.1,1.5,0.3c0.4,0.2,0.8,0.5,1.2,0.8c0.3,0.3,0.6,0.7,0.8,1.2c0.4,0.9,0.4,2,0,2.9 c-0.4,0.9-1.1,1.6-2,2c-0.5,0.2-1,0.3-1.5,0.3c-0.5,0-1-0.1-1.4-0.3c-0.4-0.2-0.8-0.5-1.2-0.8c-0.3-0.3-0.6-0.7-0.8-1.2 C493.5,375.3,493.5,374.3,493.9,373.4 M495.6,377.3h0.9v-2.1h0.6l1.2,2.1h1.1l-1.3-2.2c0.3-0.1,0.6-0.2,0.8-0.5 c0.2-0.2,0.3-0.6,0.3-0.9c0-0.2,0-0.5-0.2-0.7c-0.1-0.2-0.2-0.3-0.4-0.4c-0.2-0.1-0.4-0.2-0.6-0.3c-0.2,0-0.5,0-0.7,0h-1.7V377.3z M496.5,374.5v-1.4h0.8c0.2,0,0.5,0,0.7,0.1c0.2,0.1,0.3,0.3,0.3,0.5c0,0.3-0.1,0.5-0.3,0.6c-0.2,0.1-0.5,0.2-0.7,0.1H496.5z M475.9,385.3c0.1-0.7,0.3-1.5,0.6-2.1c0.7-1.3,1.8-2.3,3.1-2.9c0.7-0.3,1.5-0.4,2.3-0.4c0.8,0,1.6,0.1,2.3,0.4 c0.6,0.3,1.2,0.7,1.7,1.2c0.5,0.5,0.8,1.1,1,1.7c0.2,0.7,0.4,1.4,0.4,2.1H475.9z M490.5,382.7c-0.4-1.2-1-2.2-1.8-3.1 c-0.8-0.9-1.8-1.5-2.9-2c-1.2-0.5-2.5-0.7-3.8-0.7c-1.3,0-2.7,0.2-3.9,0.7c-1.2,0.5-2.3,1.2-3.2,2.1c-0.9,0.9-1.6,2-2.1,3.2 c-0.5,1.3-0.8,2.7-0.7,4.1c0,1.4,0.2,2.8,0.8,4.1c0.5,1.2,1.2,2.3,2.1,3.2c0.9,0.9,2,1.6,3.2,2c2.8,1,5.9,1,8.7-0.2 c1.4-0.7,2.7-1.7,3.7-3l-2.7-2.2c-0.6,0.8-1.3,1.6-2.2,2.1c-2.5,1.5-5.6,1.1-7.7-0.8c-0.6-0.5-1-1.1-1.4-1.8 c-0.3-0.7-0.5-1.5-0.5-2.3h15.2c0-0.2,0-0.4,0-0.7v-0.6C491.2,385.5,491,384.1,490.5,382.7 M458.5,381.6v15.1h3.8v-10.1 c0-0.8,0.1-1.6,0.3-2.3c0.2-0.7,0.5-1.4,1-2c0.5-0.6,1-1,1.7-1.4c0.8-0.3,1.6-0.5,2.4-0.5c0.6,0,1.2,0.1,1.8,0.2l0.2-3.5 c-0.5-0.1-1-0.2-1.5-0.2c-1.2,0-2.5,0.3-3.5,1c-1,0.7-1.9,1.6-2.4,2.7h-0.1c0-0.4,0-0.9,0-1.6s0-1.2-0.1-1.7h-3.7 c0,0.6,0.1,1.3,0.1,2.1C458.6,380.4,458.6,381.1,458.5,381.6 M452.5,383c-0.5-1.2-1.2-2.3-2.2-3.2c-1-0.9-2.1-1.6-3.3-2.1 c-2.6-1-5.5-1-8.2,0c-2.5,0.9-4.5,2.8-5.5,5.3c-1.1,2.6-1.1,5.5,0,8.2c0.5,1.2,1.2,2.3,2.2,3.2c0.9,0.9,2.1,1.6,3.3,2.1 c2.6,1,5.5,1,8.2,0c1.2-0.5,2.4-1.2,3.3-2.1c0.9-0.9,1.7-2,2.2-3.2C453.5,388.5,453.5,385.6,452.5,383 M448.8,389.7 c-0.3,0.8-0.7,1.6-1.2,2.2c-0.5,0.7-1.2,1.2-2,1.6c-1.7,0.8-3.7,0.8-5.5,0c-0.8-0.4-1.5-0.9-2-1.6c-0.5-0.7-1-1.4-1.2-2.2 c-0.3-0.8-0.4-1.7-0.4-2.6c0-0.9,0.1-1.8,0.4-2.6c0.3-0.8,0.7-1.6,1.2-2.2c0.6-0.6,1.2-1.2,2-1.5c1.7-0.8,3.7-0.8,5.5,0 c0.8,0.4,1.4,0.9,2,1.5c0.6,0.7,1,1.4,1.2,2.2c0.3,0.8,0.4,1.7,0.4,2.6C449.2,387.9,449.1,388.8,448.8,389.7 M430,380.1 c-0.8-1.1-1.9-1.9-3.2-2.4c-2.6-1-5.5-1-8.1,0c-1.2,0.5-2.3,1.2-3.3,2.1c-0.9,0.9-1.7,2-2.1,3.2c-0.5,1.3-0.8,2.7-0.8,4.1 c0,1.4,0.2,2.9,0.8,4.2c0.5,1.2,1.2,2.3,2.2,3.2c0.9,0.9,2,1.6,3.3,2c1.3,0.5,2.7,0.7,4.1,0.7c1.4,0,2.8-0.2,4.1-0.8 c1.2-0.5,2.2-1.3,3-2.2l-2.6-2.3c-0.5,0.7-1.2,1.2-2,1.6c-1.7,0.8-3.6,0.8-5.3,0c-0.8-0.4-1.4-0.9-2-1.5c-0.5-0.6-1-1.4-1.2-2.2 c-0.6-1.7-0.6-3.6,0-5.3c0.3-0.8,0.7-1.6,1.2-2.2c0.6-0.6,1.2-1.1,2-1.5c0.8-0.4,1.7-0.6,2.6-0.6c0.9,0,1.8,0.2,2.6,0.6 c0.7,0.4,1.4,0.9,1.8,1.6L430,380.1z M393.2,385.4c0.1-0.7,0.3-1.5,0.6-2.1c0.7-1.3,1.8-2.3,3.2-2.9c0.7-0.3,1.5-0.4,2.3-0.4 c0.8,0,1.6,0.1,2.3,0.4c0.6,0.3,1.2,0.7,1.7,1.2c0.5,0.5,0.8,1.1,1,1.7c0.2,0.7,0.4,1.4,0.4,2.1H393.2z M407.8,382.8 c-0.4-1.2-1-2.2-1.8-3.1c-0.8-0.9-1.8-1.5-2.9-2c-2.5-1-5.3-1-7.8,0c-1.2,0.5-2.3,1.2-3.2,2.1c-0.9,0.9-1.6,2.1-2,3.3 c-0.5,1.3-0.8,2.7-0.7,4.1c0,1.4,0.2,2.8,0.8,4.1c0.9,2.4,2.9,4.3,5.3,5.2c2.8,1,5.9,1,8.7-0.2c1.5-0.7,2.7-1.7,3.7-3l-2.7-2.2 c-0.6,0.8-1.3,1.5-2.2,2.1c-1,0.6-2.2,0.9-3.4,0.9c-0.8,0-1.6-0.1-2.4-0.4c-0.7-0.3-1.4-0.7-2-1.2c-0.6-0.5-1-1.1-1.4-1.8 c-0.3-0.7-0.5-1.5-0.5-2.3h15.2c0-0.2,0-0.4,0-0.7V387C408.5,385.5,408.3,384.1,407.8,382.8 M385,377.5h-5.1v-5.5h-3.8v5.5h-3.7 v3.1h3.7v10.4c-0.1,1.6,0.4,3.2,1.4,4.5c1.1,1.1,2.6,1.6,4.1,1.5c0.6,0,1.2-0.1,1.7-0.1c0.5-0.1,1-0.2,1.5-0.4l-0.1-3.1 c-0.3,0.2-0.7,0.3-1.1,0.4c-0.4,0.1-0.8,0.1-1.1,0.1c-0.8,0.1-1.5-0.2-2.1-0.7c-0.5-0.7-0.7-1.6-0.6-2.5v-10h5.1L385,377.5z M367.3,377.5h-3.8v19.2h3.8V377.5z M367.2,368.8c-0.5-0.5-1.1-0.7-1.8-0.7c-0.7,0-1.3,0.2-1.8,0.7c-0.5,0.5-0.8,1.1-0.7,1.8 c0,0.6,0.3,1.3,0.7,1.7c0.5,0.5,1.1,0.7,1.8,0.7c0.7,0,1.3-0.2,1.8-0.7c0.5-0.5,0.8-1.1,0.8-1.8C368,369.9,367.7,369.2,367.2,368.8 M356.1,370.6c-1-1.1-2.2-1.9-3.5-2.4c-1.5-0.6-3.1-0.9-4.7-0.9c-1.2,0-2.4,0.2-3.6,0.5c-1.1,0.3-2.2,0.8-3.1,1.5 c-0.9,0.7-1.7,1.5-2.3,2.6c-1.1,2.2-1.1,4.8-0.2,7c0.4,0.9,1,1.6,1.7,2.2c0.7,0.6,1.5,1.1,2.4,1.5c0.9,0.4,1.8,0.7,2.7,1l2.6,0.9 c0.8,0.2,1.5,0.6,2.2,1c0.6,0.4,1.1,0.9,1.5,1.5c0.4,0.7,0.6,1.4,0.5,2.2c0,0.8-0.2,1.5-0.5,2.2c-0.3,0.6-0.8,1.1-1.4,1.5 c-0.5,0.4-1.2,0.7-1.8,0.9c-0.7,0.2-1.3,0.3-2,0.3c-2.6,0-4.9-1.3-6.4-3.4l-3.1,2.6c1.1,1.4,2.6,2.4,4.2,3.1c2.8,1.2,6,1.4,9,0.5 c1.2-0.3,2.2-0.9,3.2-1.6c0.9-0.7,1.7-1.7,2.2-2.7c0.6-1.2,0.9-2.5,0.8-3.9c0-1.2-0.2-2.4-0.8-3.5c-0.5-0.9-1.2-1.7-2-2.3 c-0.8-0.6-1.7-1.1-2.7-1.5c-1-0.4-2-0.7-3-1l-2.3-0.8c-0.6-0.2-1.3-0.5-1.8-0.9c-0.5-0.4-0.9-0.8-1.3-1.3c-0.3-0.6-0.5-1.3-0.5-2 c0-0.7,0.2-1.4,0.5-2.1c0.3-0.6,0.8-1.1,1.3-1.5c0.6-0.4,1.2-0.7,1.8-0.9c0.6-0.2,1.3-0.3,2-0.3c1.1,0,2.3,0.2,3.3,0.7 c0.9,0.4,1.7,1.1,2.3,1.8L356.1,370.6z M317,384.7c-1.6,0-3.2,0-4.8,0.2c-1.5,0.1-2.9,0.4-4.3,0.9c-1.2,0.4-2.2,1-3.1,1.9 c-0.8,1-1.2,2.2-1.2,3.5c0,1,0.2,1.9,0.7,2.8c0.4,0.7,1,1.4,1.7,1.8c0.7,0.5,1.4,0.8,2.2,1c0.8,0.2,1.6,0.3,2.4,0.3 c1.3,0,2.6-0.3,3.8-0.9c1.1-0.6,2-1.4,2.6-2.4h0.1c0,0.9,0.1,1.9,0.3,2.8h3.5c-0.1-0.6-0.2-1.2-0.2-1.8c0-0.7,0-1.4,0-2v-8.4 c0-1-0.1-2-0.5-3c-0.3-0.9-0.8-1.7-1.5-2.4c-0.7-0.7-1.5-1.3-2.5-1.6c-1.2-0.4-2.4-0.6-3.7-0.6c-1.5,0-3,0.2-4.4,0.8 c-1.3,0.5-2.5,1.2-3.5,2.1l2,2.4c1.5-1.4,3.4-2.2,5.5-2.2c1.2-0.1,2.5,0.3,3.5,1c0.9,0.8,1.4,2,1.3,3.2L317,384.7z M317,387.5v1 c0.1,1.5-0.5,2.9-1.4,4c-1.1,1.1-2.6,1.7-4.1,1.6c-0.5,0-1-0.1-1.4-0.1c-0.4-0.1-0.9-0.3-1.2-0.5c-0.4-0.2-0.7-0.5-0.9-0.9 c-0.2-0.4-0.4-0.9-0.3-1.4c0-0.7,0.3-1.4,0.8-1.9c0.6-0.5,1.3-0.9,2-1.1c0.9-0.3,1.8-0.4,2.8-0.5c1,0,2-0.1,2.9-0.1H317z"></path> </g> </svg> 