<svg xmlns="http://www.w3.org/2000/svg" height="40" width="200" viewBox="0 0 850 150" data-name="Layer 1" id="Layer_1"><defs><style>.cls-1{fill:#131144;}.cls-2{fill:#1daafc;}</style></defs><polygon class="cls-1" points="99.25 0 0 0.19 82.76 141.48 164.97 0.06 131.34 0 82.48 86.01 50.35 29.09 84.46 29.09 99.25 0"/><polygon class="cls-2" points="230.55 0 197.18 0 114.71 141.39 147.96 141.39 230.55 0"/><path class="cls-1" d="M381.72,584.09a2.82,2.82,0,0,1-2.16-.9,3,3,0,0,1-.84-2.1v-78a2.88,2.88,0,0,1,3-3h55.2a2.88,2.88,0,0,1,3,3v12.12a2.88,2.88,0,0,1-3,3H399.84v17.63h34.68a2.8,2.8,0,0,1,2.16.91,3.11,3.11,0,0,1,.84,2.22v12a3,3,0,0,1-.84,2.11,2.85,2.85,0,0,1-2.16.89H399.84v27.12a3,3,0,0,1-.84,2.1,2.82,2.82,0,0,1-2.16.9Z" transform="translate(-129.37 -464.22)"/><path class="cls-1" d="M473.88,585.29a23.69,23.69,0,0,1-12.18-3.12,21.11,21.11,0,0,1-8.34-9.17,33.19,33.19,0,0,1-3-14.83V524.69a2.89,2.89,0,0,1,3-3h15a3.14,3.14,0,0,1,2.22.85,2.82,2.82,0,0,1,.9,2.15v32.77q0,11.76,10.44,11.75a10.39,10.39,0,0,0,7.86-3.06c2-2,2.94-4.93,2.94-8.69V524.69a2.89,2.89,0,0,1,3-3h15a2.89,2.89,0,0,1,3,3v56.4a3,3,0,0,1-.84,2.1,2.82,2.82,0,0,1-2.16.9H496.8a3.08,3.08,0,0,1-3-3v-4.55a19.69,19.69,0,0,1-8.1,6.54A29,29,0,0,1,473.88,585.29Z" transform="translate(-129.37 -464.22)"/><path class="cls-1" d="M530.88,584.09a2.81,2.81,0,0,1-2.16-.9,3,3,0,0,1-.84-2.1v-56.4a2.89,2.89,0,0,1,3-3h13.8a3.14,3.14,0,0,1,2.22.85,2.82,2.82,0,0,1,.9,2.15v4.57a23.66,23.66,0,0,1,8-6.24,26.27,26.27,0,0,1,11.88-2.52,24,24,0,0,1,12.3,3.11,21.75,21.75,0,0,1,8.4,9.12q3.06,6,3.06,14.88v33.48a3,3,0,0,1-.84,2.1,2.82,2.82,0,0,1-2.16.9H573.36a3.08,3.08,0,0,1-3-3V548.33c0-3.75-.9-6.66-2.7-8.69s-4.46-3.06-8-3.06a10.39,10.39,0,0,0-7.86,3.06c-2,2-2.94,4.94-2.94,8.69v32.76a3.08,3.08,0,0,1-3,3Z" transform="translate(-129.37 -464.22)"/><path class="cls-1" d="M608,584.09a2.81,2.81,0,0,1-2.16-.9,3,3,0,0,1-.84-2.1v-56.4a2.89,2.89,0,0,1,3-3h13.8a3.14,3.14,0,0,1,2.22.85,2.82,2.82,0,0,1,.9,2.15v4.57a23.66,23.66,0,0,1,8-6.24,26.27,26.27,0,0,1,11.88-2.52,24,24,0,0,1,12.3,3.11,21.81,21.81,0,0,1,8.4,9.12q3.06,6,3.06,14.88v33.48a3,3,0,0,1-.84,2.1,2.82,2.82,0,0,1-2.16.9H650.52a3.08,3.08,0,0,1-3-3V548.33c0-3.75-.9-6.66-2.7-8.69s-4.46-3.06-8-3.06a10.38,10.38,0,0,0-7.86,3.06c-2,2-2.94,4.94-2.94,8.69v32.76a2.86,2.86,0,0,1-.9,2.1,2.89,2.89,0,0,1-2.1.9Z" transform="translate(-129.37 -464.22)"/><path class="cls-1" d="M711,585.29q-14.16,0-22.56-7.68t-8.76-22.8v-4.2a34.87,34.87,0,0,1,4.26-16.26A25.86,25.86,0,0,1,694.73,524a34.9,34.9,0,0,1,16.14-3.54q10.56,0,17.46,4.19a26.78,26.78,0,0,1,10.38,11.41,37.32,37.32,0,0,1,3.48,16.44v2.88a2.88,2.88,0,0,1-3,3h-38.4v.83a18.89,18.89,0,0,0,1.26,6.36,10.22,10.22,0,0,0,3.36,4.56,8.72,8.72,0,0,0,5.46,1.68,9.24,9.24,0,0,0,4-.77,10.35,10.35,0,0,0,2.7-1.81,21.22,21.22,0,0,0,1.68-1.73,5.93,5.93,0,0,1,1.74-1.62,5.38,5.38,0,0,1,2.1-.31H738a2.81,2.81,0,0,1,2,.72,2.18,2.18,0,0,1,.66,1.92,10.51,10.51,0,0,1-2,4.92,24.8,24.8,0,0,1-5.58,5.71,30.8,30.8,0,0,1-9.18,4.62A41.78,41.78,0,0,1,711,585.29Zm-10.2-38.75h20.28v-.25a18,18,0,0,0-1.14-6.77,9.29,9.29,0,0,0-3.48-4.38,9.82,9.82,0,0,0-5.58-1.56,9.33,9.33,0,0,0-5.4,1.56,9.8,9.8,0,0,0-3.48,4.38,17.22,17.22,0,0,0-1.2,6.77Z" transform="translate(-129.37 -464.22)"/><path class="cls-1" d="M756.47,584.09a2.82,2.82,0,0,1-2.16-.9,3,3,0,0,1-.84-2.1V501.9a2.86,2.86,0,0,1,3-3h14.16a2.86,2.86,0,0,1,3,3v79.19a3,3,0,0,1-.84,2.1,2.82,2.82,0,0,1-2.16.9Z" transform="translate(-129.37 -464.22)"/><path class="cls-2" d="M792.11,584.09a2.82,2.82,0,0,1-2.16-.9,3,3,0,0,1-.84-2.1v-78a2.88,2.88,0,0,1,3-3h15.12a2.88,2.88,0,0,1,3,3v26.63l22.2-27.35a6,6,0,0,1,1.62-1.5,5.34,5.34,0,0,1,3.06-.78h17.28a2.35,2.35,0,0,1,1.8.78,2.5,2.5,0,0,1,.72,1.73,2.76,2.76,0,0,1-.36,1.45l-28.8,36.24,31,39.83a2,2,0,0,1,.48,1.45,2.48,2.48,0,0,1-.72,1.73,2.31,2.31,0,0,1-1.8.78H838.79a4.94,4.94,0,0,1-3.3-1,9.62,9.62,0,0,1-1.5-1.44l-23.76-29.64v29a3,3,0,0,1-.84,2.1,2.82,2.82,0,0,1-2.16.9Z" transform="translate(-129.37 -464.22)"/><path class="cls-2" d="M870.23,512.69a2.88,2.88,0,0,1-3-3V498.9a3,3,0,0,1,.84-2.1,2.79,2.79,0,0,1,2.16-.9h14.4a2.84,2.84,0,0,1,2.1.9,2.88,2.88,0,0,1,.9,2.1v10.79a2.79,2.79,0,0,1-.9,2.16,2.94,2.94,0,0,1-2.1.84Zm.12,71.4a2.82,2.82,0,0,1-2.16-.9,3,3,0,0,1-.84-2.1v-56.4a2.89,2.89,0,0,1,3-3h14.16a2.89,2.89,0,0,1,3,3v56.4a3,3,0,0,1-.84,2.1,2.82,2.82,0,0,1-2.16.9Z" transform="translate(-129.37 -464.22)"/><path class="cls-2" d="M933.59,584.09a32.53,32.53,0,0,1-13.26-2.46,18,18,0,0,1-8.58-7.67q-3-5.24-3-13.5v-23h-9.36a3.13,3.13,0,0,1-2.22-.84,2.82,2.82,0,0,1-.9-2.16v-9.73a2.82,2.82,0,0,1,.9-2.15,3.14,3.14,0,0,1,2.22-.85h9.36V501.9a2.86,2.86,0,0,1,.9-2.17,3,3,0,0,1,2.1-.83h13.92a2.86,2.86,0,0,1,3,3v19.79h15a3.14,3.14,0,0,1,2.22.85,2.82,2.82,0,0,1,.9,2.15v9.73a2.82,2.82,0,0,1-.9,2.16,3.13,3.13,0,0,1-2.22.84h-15v21.35a11.72,11.72,0,0,0,1.56,6.48c1,1.61,2.8,2.4,5.28,2.4h9.24a2.89,2.89,0,0,1,3,3v10.44a3,3,0,0,1-.84,2.1,2.82,2.82,0,0,1-2.16.9Z" transform="translate(-129.37 -464.22)"/></svg>