<?xml version="1.0" encoding="UTF-8"?> <svg class="logo-text" width="24" height="24" viewBox="0 0 24 24" fill="none" xmlns="http://www.w3.org/2000/svg"><path class="head-ed" d="M6.92764 7.57876C4.84414 7.57876 3.14906 5.87816 3.14906 3.78322C3.14906 1.7006 4.84414 0 6.92764 0C9.01117 0 10.7062 1.7006 10.7062 3.78322C10.7062 5.87816 9.01117 7.57876 6.92764 7.57876Z" fill="#008EFF"></path><path class="body-ed" d="M18.7671 12.7977C18.72 9.12067 18.2259 5.5041 16.7786 2.11733C16.4845 1.43998 15.4137 1.50046 15.1078 2.11733C12.2957 7.69337 6.96557 11.0318 0.98836 11.8059H0.976595C0.43535 11.8059 0 12.2534 0 12.8098C0 13.3662 0.43535 13.8138 0.976595 13.8138C6.96561 14.5879 12.3074 17.9383 15.1078 23.5144C15.4137 24.1313 16.4845 24.1918 16.7786 23.5144C18.2259 20.1276 18.72 16.511 18.7671 12.834V12.8219V12.7977Z" fill="#008EFF"></path></svg>