<svg id="Layer_1" data-name="Layer 1" xmlns="http://www.w3.org/2000/svg" viewBox="0 0 1200 1200"><defs><style>.cls-1{fill:#15be7c;}.cls-2{fill:#fff;fill-rule:evenodd;}</style></defs><g id="Layer_2" data-name="Layer 2"><g id="Layer_1-2" data-name="Layer 1-2"><rect class="cls-1" x="33.44" y="33.44" width="1133.12" height="1133.12" rx="113.31"/></g></g><path class="cls-2" d="M963.55,310.23V525l0,0A130.54,130.54,0,0,0,851,444.6a126.56,126.56,0,0,0-42.21,4L297.47,585.73a46.1,46.1,0,0,1-10.15,1.68,41,41,0,0,1-7.05.61,43.45,43.45,0,0,1-43.45-42.9,49,49,0,0,1-.4-6.07V466.34c0-.11,0-.22,0-.33s0-.18,0-.25c0-.84.11-1.64.15-2.47s0-1.57.11-2.33c.11-1.35.29-2.65.47-4,.07-.37.11-.77.18-1.13.22-1.27.48-2.51.8-3.75.11-.54.22-1,.37-1.52.29-1,.58-2,.87-3s.69-2,1-3c.19-.39.33-.83.51-1.27a60.87,60.87,0,0,1,40.69-35.92L880.91,246.93a65.88,65.88,0,0,1,12.33-2.26,61.12,61.12,0,0,1,9.31-1.23c.9,0,1.78-.07,2.69-.07a58,58,0,0,1,58,58c0,.36,0,.76,0,1.16A66.88,66.88,0,0,1,963.55,310.23Z"/><path class="cls-2" d="M825.14,530.34c-1.36,0-2.67,0-4,.11s-2.81-.11-4.23-.11a91.43,91.43,0,0,0-23.54,3.09L714,554.71,284.69,669.84a56.34,56.34,0,0,0-18.75,6.66c-.24.1-.45.24-.66.34A58,58,0,0,0,236.44,727V946.66a2.41,2.41,0,0,0,4.54,1.15,261.89,261.89,0,0,1,84.38-93,.61.61,0,0,1,.2-.14,210.26,210.26,0,0,1,50.2-26.24s0,0,.07,0q8.26-3,16.85-5.3l30.4-8.15L833.14,705.06l8.5-2.29a79,79,0,0,0,12.17-3.26,87,87,0,0,0-28.67-169.17Z"/></svg>