<svg id="logosandtypes_com" data-name="logosandtypes com" xmlns="http://www.w3.org/2000/svg" viewBox="0 0 150 150"><defs><style>.cls-1{fill:none;}.cls-2{fill:#36a635;}</style></defs><path class="cls-1" d="M0,.2H150v150H0Z" transform="translate(0 -0.2)"/><path class="cls-2" d="M116.58,122l-10.52,10.89c-1.51,1.88-3.76,1.51-5.64,0L63.22,94.94v35.32c0,2.26-1.51,3.76-4.14,3.76h-15a3.55,3.55,0,0,1-3.76-3.76V20.16a3.55,3.55,0,0,1,3.76-3.76h15c2.63,0,4.14,1.5,4.14,3.76V56.23H114A3.56,3.56,0,0,1,117.71,60V75.4A3.56,3.56,0,0,1,114,79.16H79.38l37.2,37.58C118.08,118.24,118.08,120.12,116.58,122Z" transform="translate(0 -0.2)"/></svg>