<svg version="1.1" id="Layer_1" xmlns="http://www.w3.org/2000/svg" xmlns:xlink="http://www.w3.org/1999/xlink" x="0px" y="0px"
	 width="100%" viewBox="0 0 256 256" enable-background="new 0 0 256 256" xml:space="preserve">
<path fill="#FFFFFF" opacity="1.000000" stroke="none" 
	d="
M123.000000,257.000000 
	C82.000000,257.000000 41.500004,257.000000 1.000005,257.000000 
	C1.000004,171.666672 1.000004,86.333351 1.000002,1.000017 
	C86.333321,1.000011 171.666641,1.000011 257.000000,1.000006 
	C257.000000,86.333313 257.000000,171.666626 257.000000,256.999969 
	C212.500000,257.000000 168.000000,257.000000 123.000000,257.000000 
M172.021088,162.628448 
	C172.639801,163.439102 173.258530,164.249741 174.010788,165.714798 
	C174.943985,166.972473 175.877197,168.230133 176.959656,170.136719 
	C178.753967,172.940750 180.431900,175.827759 182.362122,178.534882 
	C192.407578,192.623749 211.421585,196.466415 225.891068,187.396759 
	C240.311615,178.357803 245.744293,159.687607 237.221008,144.968246 
	C230.231110,132.896973 221.959534,121.567886 214.064453,109.262367 
	C212.805649,107.465973 211.546829,105.669586 209.990753,103.320984 
	C209.198807,102.134354 208.406860,100.947731 207.261826,99.188789 
	C206.311615,97.753204 205.361389,96.317627 204.038513,94.271347 
	C202.344879,91.680351 200.651245,89.089348 198.784042,85.887260 
	C197.339157,83.664406 195.978027,81.381523 194.435394,79.228706 
	C186.154999,67.673096 171.586609,62.799511 158.272461,67.075584 
	C144.625519,71.458542 135.660812,83.865334 135.877319,98.344284 
	C135.931305,101.953514 136.528397,105.554619 136.291397,108.815201 
	C129.845596,99.704773 123.384514,90.605118 116.957069,81.481766 
	C101.561356,59.628551 74.962799,60.140118 60.435581,82.630585 
	C50.134583,98.578171 39.914989,114.578484 29.712337,130.589218 
	C28.881384,131.893204 28.462013,133.459457 27.919279,134.957993 
	C27.919279,134.957993 27.969627,134.887253 27.349545,134.499069 
	C26.930872,135.026627 26.512199,135.554184 25.733450,136.661789 
	C23.986204,139.488846 21.969595,142.186508 20.538685,145.165512 
	C14.584420,157.561676 15.547235,169.567993 24.190462,180.251770 
	C32.848335,190.953659 44.518925,194.638031 57.754795,191.013412 
	C70.986183,187.390015 79.031425,178.317673 81.045029,164.642685 
	C81.751549,159.844421 81.067581,154.841431 81.671539,150.137863 
	C88.447495,159.610855 95.073273,169.195755 102.030716,178.533508 
	C116.420769,197.846786 143.312988,196.750168 156.218658,176.461395 
	C160.146683,170.286179 164.123993,164.142319 168.688080,158.224075 
	C169.699142,159.391922 170.710220,160.559753 171.720505,161.919098 
	C171.720505,161.919098 171.884018,162.021378 172.021088,162.628448 
z"/>
<path fill="#2E53A0" opacity="1.000000" stroke="none" 
	d="
M27.851395,134.903854 
	C28.462013,133.459457 28.881384,131.893204 29.712337,130.589218 
	C39.914989,114.578484 50.134583,98.578171 60.435581,82.630585 
	C74.962799,60.140118 101.561356,59.628551 116.957069,81.481766 
	C123.384514,90.605118 129.845596,99.704773 136.630829,109.330055 
	C138.498657,111.988289 140.018509,114.137817 141.556824,116.274055 
	C152.146790,130.980042 171.014404,134.500565 186.153931,124.645248 
	C187.308105,123.893913 188.683182,123.481926 189.955597,123.269325 
	C182.663315,135.078995 175.371017,146.531540 168.078735,157.984100 
	C164.123993,164.142319 160.146683,170.286179 156.218658,176.461395 
	C143.312988,196.750168 116.420769,197.846786 102.030716,178.533508 
	C95.073273,169.195755 88.447495,159.610855 81.336258,150.065796 
	C81.000984,149.993713 81.065384,149.996201 81.043785,149.711746 
	C80.690811,149.259979 80.359428,149.092651 80.004883,148.574615 
	C78.919289,146.555634 77.896057,144.860840 76.788055,143.223434 
	C69.844513,132.962189 60.436295,127.619987 47.774120,127.839119 
	C40.192951,127.970314 34.163292,131.638596 27.851395,134.903854 
z"/>
<path fill="#28BEBF" opacity="1.000000" stroke="none" 
	d="
M27.885338,134.930923 
	C34.163292,131.638596 40.192951,127.970314 47.774120,127.839119 
	C60.436295,127.619987 69.844513,132.962189 76.788055,143.223434 
	C77.896057,144.860840 78.919289,146.555634 80.017578,148.917435 
	C80.390762,149.739380 80.728073,149.867783 81.065384,149.996201 
	C81.065384,149.996201 81.000984,149.993713 81.009766,149.962814 
	C81.067581,154.841431 81.751549,159.844421 81.045029,164.642685 
	C79.031425,178.317673 70.986183,187.390015 57.754795,191.013412 
	C44.518925,194.638031 32.848335,190.953659 24.190462,180.251770 
	C15.547235,169.567993 14.584420,157.561676 20.538685,145.165512 
	C21.969595,142.186508 23.986204,139.488846 26.222675,136.344238 
	C27.131144,135.646881 27.550385,135.267059 27.969627,134.887253 
	C27.969627,134.887253 27.919279,134.957993 27.885338,134.930923 
z"/>
<path fill="#F18334" opacity="1.000000" stroke="none" 
	d="
M189.955582,122.912209 
	C188.683182,123.481926 187.308105,123.893913 186.153931,124.645248 
	C171.014404,134.500565 152.146790,130.980042 141.556824,116.274055 
	C140.018509,114.137817 138.498657,111.988289 136.923065,109.502182 
	C136.528397,105.554619 135.931305,101.953514 135.877319,98.344284 
	C135.660812,83.865334 144.625519,71.458542 158.272461,67.075584 
	C171.586609,62.799511 186.154999,67.673096 194.435394,79.228706 
	C195.978027,81.381523 197.339157,83.664406 198.861847,86.661888 
	C201.730942,99.774895 200.152451,111.072693 190.772141,120.834595 
	C190.307510,121.726135 190.118286,122.361298 189.960922,122.983353 
	C189.992798,122.970253 189.955582,122.912209 189.955582,122.912209 
z"/>
<path fill="#94C74B" opacity="1.000000" stroke="none" 
	d="
M214.256088,109.909805 
	C221.959534,121.567886 230.231110,132.896973 237.221008,144.968246 
	C245.744293,159.687607 240.311615,178.357803 225.891068,187.396759 
	C211.421585,196.466415 192.407578,192.623749 182.362122,178.534882 
	C180.431900,175.827759 178.753967,172.940750 177.026184,169.457977 
	C181.162323,162.560410 185.459976,156.477097 189.253052,150.093948 
	C196.658157,137.632339 203.748047,124.983696 211.078568,112.477028 
	C211.722717,111.378036 213.177704,110.754295 214.256088,109.909805 
z"/>
<path fill="#6C9238" opacity="1.000000" stroke="none" 
	d="
M191.047546,120.578209 
	C200.152451,111.072693 201.730942,99.774895 198.948624,86.967430 
	C200.651245,89.089348 202.344879,91.680351 203.840668,94.643288 
	C203.351578,95.932259 202.715530,96.892212 202.823486,97.759544 
	C203.698227,104.786507 202.281189,111.403374 198.715149,117.370049 
	C193.111496,126.746025 187.045776,135.844543 181.320465,145.149612 
	C177.975418,150.586182 174.911621,156.195816 171.721298,161.727585 
	C170.710220,160.559753 169.699142,159.391922 168.383408,158.104095 
	C175.371017,146.531540 182.663315,135.078995 189.955597,123.269325 
	C189.955582,122.912209 189.992798,122.970253 190.275757,122.809570 
	C190.721649,121.958664 190.884598,121.268433 191.047546,120.578209 
z"/>
<path fill="#8EBE47" opacity="1.000000" stroke="none" 
	d="
M214.160278,109.586090 
	C213.177704,110.754295 211.722717,111.378036 211.078568,112.477028 
	C203.748047,124.983696 196.658157,137.632339 189.253052,150.093948 
	C185.459976,156.477097 181.162323,162.560410 176.951553,169.133514 
	C175.877197,168.230133 174.943985,166.972473 174.257568,165.236572 
	C179.423370,157.344772 184.592102,150.082703 189.203125,142.482285 
	C196.173691,130.992615 205.535950,120.734123 207.997955,106.828407 
	C208.190277,105.742233 209.498444,104.853615 210.288025,103.873184 
	C211.546829,105.669586 212.805649,107.465973 214.160278,109.586090 
z"/>
<path fill="#84B142" opacity="1.000000" stroke="none" 
	d="
M210.139374,103.597084 
	C209.498444,104.853615 208.190277,105.742233 207.997955,106.828407 
	C205.535950,120.734123 196.173691,130.992615 189.203125,142.482285 
	C184.592102,150.082703 179.423370,157.344772 174.190796,164.909363 
	C173.258530,164.249741 172.639801,163.439102 172.301849,162.276733 
	C173.273880,161.257370 174.122910,160.692139 174.632782,159.906723 
	C182.641495,147.569778 190.955475,135.410141 198.417450,122.748970 
	C201.598709,117.351158 202.943329,110.878395 205.199341,104.923187 
	C205.870453,103.151695 206.802460,101.479042 207.614914,99.761101 
	C208.406860,100.947731 209.198807,102.134354 210.139374,103.597084 
z"/>
<path fill="#79A43D" opacity="1.000000" stroke="none" 
	d="
M207.438370,99.474945 
	C206.802460,101.479042 205.870453,103.151695 205.199341,104.923187 
	C202.943329,110.878395 201.598709,117.351158 198.417450,122.748970 
	C190.955475,135.410141 182.641495,147.569778 174.632782,159.906723 
	C174.122910,160.692139 173.273880,161.257370 172.233322,161.973206 
	C171.884018,162.021378 171.720505,161.919098 171.720901,161.823334 
	C174.911621,156.195816 177.975418,150.586182 181.320465,145.149612 
	C187.045776,135.844543 193.111496,126.746025 198.715149,117.370049 
	C202.281189,111.403374 203.698227,104.786507 202.823486,97.759544 
	C202.715530,96.892212 203.351578,95.932259 204.027008,94.948639 
	C205.361389,96.317627 206.311615,97.753204 207.438370,99.474945 
z"/>
<path fill="#2E53A0" opacity="1.000000" stroke="none" 
	d="
M27.659584,134.693161 
	C27.550385,135.267059 27.131144,135.646881 26.402714,136.054199 
	C26.512199,135.554184 26.930872,135.026627 27.659584,134.693161 
z"/>
<path fill="#FFFFFF" opacity="1.000000" stroke="none" 
	d="
M81.043785,149.711746 
	C80.728073,149.867783 80.390762,149.739380 80.040749,149.268158 
	C80.359428,149.092651 80.690811,149.259979 81.043785,149.711746 
z"/>
<path fill="#2E53A0" opacity="1.000000" stroke="none" 
	d="
M190.772141,120.834595 
	C190.884598,121.268433 190.721649,121.958664 190.243866,122.822670 
	C190.118286,122.361298 190.307510,121.726135 190.772141,120.834595 
z"/>
</svg>