<?xml version="1.0" standalone="yes"?>
<svg xmlns="http://www.w3.org/2000/svg" width="1052" height="1072">
<path style="fill:#ffffff; stroke:none;" d="M0 0L0 506L1 506C1 458.584 12.7449 409.765 27.6667 365C82.0999 201.7 217.34 71.6812 382 22.28C421.969 10.2887 465.124 1 507 1C495.544 -3.80713 475.468 0 463 0L359 0L0 0z"/>
<path style="fill:#016bff; stroke:none;" d="M507 0.424438C469.484 5.34985 432.898 8.18262 396 17.8843C299.819 43.1731 210.799 97.3134 143.09 170C6.86551 316.238 -36.6985 533.482 32.0532 721C52.3921 776.473 82.0224 827.964 119.001 874C151.867 914.917 191.32 951.213 235 980.333C284.387 1013.26 338.456 1038.99 396 1054.12C464.593 1072.15 536.704 1076.96 607 1067.72C767.783 1046.58 912.763 951.065 996.2 812C1013.97 782.378 1028.25 751.292 1040.42 719C1046.9 701.823 1054.4 682.701 1051.7 664C1046.53 628.164 994.991 606.376 965 595.692C954.176 591.837 943.19 588.701 932 586.119C928.165 585.234 922.635 584.907 922.318 579.956C920.901 557.817 927.375 535.551 924.714 513C924.111 507.884 919.803 492.607 923.607 488.738C926.101 486.202 931.683 485.947 935 485.207C942.782 483.471 950.44 481.187 958 478.667C982.921 470.36 1006.96 458.44 1028 442.625C1039.77 433.781 1050.78 421.414 1051.91 406C1053.41 385.521 1045.34 365.806 1038.19 347C1023.78 309.093 1005.51 272.771 983 239C903.145 119.217 775.892 34.1671 634 8.57568C593.697 1.30664 547.922 -4.94812 507 0.424438z"/>
<path style="fill:#ffffff; stroke:none;" d="M565 0L565 1C602.856 1 641.577 8.98389 678 18.8488C803.512 52.843 912.427 134.131 984.333 242C1005.93 274.392 1023.69 309.596 1037.42 346C1042.65 359.865 1049.78 375.102 1051 390L1052 390L1052 0L565 0M993 676C965.192 657.24 937.185 647.929 905 640C897.092 668.915 875.994 696.176 861.281 722C843.963 752.394 827.722 784.408 804.711 811C760.356 862.261 699.213 896.827 632 906.728C596.769 911.918 560.546 910 525 910C467.312 910 410.351 907.683 358 880.111C319.242 859.698 285.25 832.194 258.895 797C237.963 769.047 222.627 736.935 204.799 707C171.747 651.501 148.222 595.683 149.004 530C149.74 468.082 175.331 415.201 205.989 363C223.231 333.643 238.443 302.312 258.895 275C285.25 239.806 319.242 212.302 358 191.889C410.35 164.317 467.312 162 525 162C560.546 162 596.769 160.082 632 165.272C699.213 175.173 760.356 209.739 804.711 261C827.722 287.592 843.963 319.606 861.281 350C875.994 375.824 897.091 403.085 905 432C937.185 424.071 965.192 414.76 993 396C981.876 347.919 954.855 299.788 926.421 260C894.768 215.707 856.31 177.09 812 145.427C673.518 46.4722 487.937 31.6249 334 102.309C157.499 183.353 53.3304 365.794 58.0147 557C59.3405 611.121 72.7069 665.921 92.8002 716C113.18 766.792 142.874 812.805 178.718 854C207.695 887.302 242.631 916.613 280 940.05C430.765 1034.61 626.624 1038.83 780 947.396C827.562 919.043 869.672 882.499 905.08 840C943.399 794.007 979.353 734.987 993 676z"/>
<path style="fill:#016bff; stroke:none;" d="M905 640C858.688 636.345 812.277 635.389 770 658.309C726.054 682.133 695.56 723.7 650 745.742C617.139 761.64 582.711 763 547 763C509.121 763 473.434 761.738 438 746.573C381.542 722.41 339.545 670.122 327.449 610C322.127 583.547 323 556.839 323 530C323 482.816 327.42 437.789 353.692 397C387.624 344.32 443.648 315.009 505 309.17C518.772 307.859 533.165 309 547 309C582.094 309 615.463 310.411 648 325.309C694.832 346.752 725.379 389.501 770 413.691C812.277 436.611 858.688 435.655 905 432C902.753 418.949 893.764 405.404 887.281 394C874.542 371.591 861.745 349.176 848.603 327C832.277 299.448 816.907 272.614 794.911 249C751.244 202.123 689.396 171.97 626 164.286C593.013 160.287 559.206 162 526 162C467.446 162 411.532 164.604 358 191.37C319.144 210.798 284.936 239.225 258.895 274C240.777 298.195 226.632 325.77 211.719 352C199.486 373.517 185.649 394.477 175.309 417C157.149 456.555 148.487 499.565 149.004 543C149.74 604.918 175.331 657.799 205.989 710C240.017 767.938 269.875 825.437 328 863.305C364.396 887.016 405.831 902.482 449 907.714C479.067 911.359 509.735 910 540 910C611.254 910 677.623 906.428 740 867.575C789.38 836.817 819.565 794.002 848.603 745C861.745 722.824 874.542 700.409 887.281 678C893.764 666.596 902.753 653.051 905 640z"/>
<path style="fill:#059afa; stroke:none;" d="M502 309L502 310L505 310L502 309z"/>
<path style="fill:#07bbf5; stroke:none;" d="M505 309L505 310L509 310L505 309z"/>
<path style="fill:#0be9ef; stroke:none;" d="M905 640C912.983 622.93 918.587 602.683 921 584C862.025 579.345 803.811 576.403 749 603.809C706.52 625.049 677.415 663.635 637 687.548C608.175 704.604 576.519 706 544 706C517.629 706 492.066 705.138 467 695.947C424.37 680.314 393.023 642.231 384.004 598C379.582 576.315 381 554.013 381 532C381 485.296 385.061 444.175 418.17 408.004C456.909 365.682 516.772 363.709 570 366.039C593.033 367.048 615.838 372.37 636 383.873C673.44 405.234 700.279 440.959 738 462.139C795.994 494.701 857.065 493.046 921 488C918.587 469.317 912.983 449.07 905 432C857.205 440.906 801.209 434.606 760 407.656C726.01 385.426 700.018 352.835 664 333.309C617.696 308.206 563.716 305.548 512 309.089C455.424 312.964 400.433 335.014 364.888 381C329.896 426.27 324 475.781 324 531C324 555.227 322.298 580.062 326.614 604C337.998 667.14 378.529 721.139 438 746.573C471.049 760.706 505.564 763 541 763C584.801 763 624.675 760.01 664 738.691C700.018 719.165 726.01 686.574 760 664.344C801.209 637.393 857.204 631.095 905 640z"/>
<path style="fill:#07bbf5; stroke:none;" d="M580 309L580 310L584 310L580 309z"/>
<path style="fill:#059afa; stroke:none;" d="M584 309L584 310L587 310L584 309M493 310L494 311L493 310z"/>
<path style="fill:#07bbf5; stroke:none;" d="M494 310L494 311L497 311L494 310M592.667 310.333L593.333 310.667L592.667 310.333z"/>
<path style="fill:#059afa; stroke:none;" d="M594.667 310.333L595.333 310.667L594.667 310.333M486 311L487 312L486 311z"/>
<path style="fill:#07bbf5; stroke:none;" d="M487.667 311.333L488.333 311.667L487.667 311.333M600 311L601 312L600 311z"/>
<path style="fill:#059afa; stroke:none;" d="M601.667 311.333L602.333 311.667L601.667 311.333M480 312L481 313L480 312z"/>
<path style="fill:#07bbf5; stroke:none;" d="M481.667 312.333L482.333 312.667L481.667 312.333M606 312L607 313L606 312z"/>
<path style="fill:#059afa; stroke:none;" d="M607 312L608 313L607 312M475 313L476 314L475 313z"/>
<path style="fill:#07bbf5; stroke:none;" d="M476 313L477 314L476 313M611 313L612 314L611 313z"/>
<path style="fill:#059afa; stroke:none;" d="M612 313L613 314L612 313z"/>
<path style="fill:#07bbf5; stroke:none;" d="M471.667 314.333L472.333 314.667L471.667 314.333M615.667 314.333L616.333 314.667L615.667 314.333M467 315L468 316L467 315M620 315L621 316L620 315z"/>
<path style="fill:#059afa; stroke:none;" d="M463 316L464 317L463 316z"/>
<path style="fill:#07bbf5; stroke:none;" d="M623 316L624 317L623 316z"/>
<path style="fill:#059afa; stroke:none;" d="M624 316L625 317L624 316M459 317L460 318L459 317z"/>
<path style="fill:#07bbf5; stroke:none;" d="M460 317L461 318L460 317z"/>
<path style="fill:#059afa; stroke:none;" d="M627 317L628 318L627 317M456 318L457 319L456 318z"/>
<path style="fill:#07bbf5; stroke:none;" d="M457 318L458 319L457 318M630 318L631 319L630 318z"/>
<path style="fill:#059afa; stroke:none;" d="M453 319L454 320L453 319z"/>
<path style="fill:#07bbf5; stroke:none;" d="M633 319L634 320L633 319z"/>
<path style="fill:#059afa; stroke:none;" d="M450 320L451 321L450 320M636 320L637 321L636 320M447 321L448 322L447 321z"/>
<path style="fill:#07bbf5; stroke:none;" d="M448 321L449 322L448 321M638 321L639 322L638 321M445 322L446 323L445 322M641 322L642 323L641 322z"/>
<path style="fill:#059afa; stroke:none;" d="M442 323L443 324L442 323z"/>
<path style="fill:#07bbf5; stroke:none;" d="M643 323L644 324L643 323M440 324L441 325L440 324z"/>
<path style="fill:#059afa; stroke:none;" d="M646 324L647 325L646 324M437 325L438 326L437 325z"/>
<path style="fill:#07bbf5; stroke:none;" d="M648 325L649 326L648 325z"/>
<path style="fill:#059afa; stroke:none;" d="M435 326L436 327L435 326z"/>
<path style="fill:#07bbf5; stroke:none;" d="M650 326L651 327L650 326M433 327L434 328L433 327M652 327L653 328L652 327M431 328L432 329L431 328M654 328L655 329L654 328M429 329L430 330L429 329M656 329L657 330L656 329M427 330L428 331L427 330M658 330L659 331L658 330M425 331L426 332L425 331M660 331L661 332L660 331M423 332L424 333L423 332z"/>
<path style="fill:#059afa; stroke:none;" d="M662 332L663 333L662 332M421 333L422 334L421 333M664 333L665 334L664 333M419 334L420 335L419 334z"/>
<path style="fill:#07bbf5; stroke:none;" d="M667 335L668 336L667 335M416 336L417 337L416 336z"/>
<path style="fill:#059afa; stroke:none;" d="M669 336L670 337L669 336M414 337L415 338L414 337M412 338L413 339L412 338z"/>
<path style="fill:#07bbf5; stroke:none;" d="M672 338L673 339L672 338M411 339L412 340L411 339z"/>
<path style="fill:#059afa; stroke:none;" d="M674 339L675 340L674 339M409 340L410 341L409 340z"/>
<path style="fill:#07bbf5; stroke:none;" d="M675 340L676 341L675 340M408 341L409 342L408 341z"/>
<path style="fill:#059afa; stroke:none;" d="M677 341L678 342L677 341M406 342L407 343L406 342z"/>
<path style="fill:#07bbf5; stroke:none;" d="M678 342L679 343L678 342M405 343L406 344L405 343z"/>
<path style="fill:#059afa; stroke:none;" d="M680 343L681 344L680 343M403 344L404 345L403 344z"/>
<path style="fill:#07bbf5; stroke:none;" d="M681 344L682 345L681 344M402 345L403 346L402 345z"/>
<path style="fill:#059afa; stroke:none;" d="M683 345L684 346L683 345z"/>
<path style="fill:#07bbf5; stroke:none;" d="M684 346L685 347L684 346z"/>
<path style="fill:#059afa; stroke:none;" d="M399 347L400 348L399 347z"/>
<path style="fill:#07bbf5; stroke:none;" d="M398 348L399 349L398 348z"/>
<path style="fill:#059afa; stroke:none;" d="M687 348L688 349L687 348z"/>
<path style="fill:#07bbf5; stroke:none;" d="M688 349L689 350L688 349z"/>
<path style="fill:#059afa; stroke:none;" d="M395 350L396 351L395 350z"/>
<path style="fill:#07bbf5; stroke:none;" d="M394 351L395 352L394 351z"/>
<path style="fill:#059afa; stroke:none;" d="M691 351L692 352L691 351z"/>
<path style="fill:#07bbf5; stroke:none;" d="M692 352L693 353L692 352z"/>
<path style="fill:#059afa; stroke:none;" d="M390 354L391 355L390 354M389 355L390 356L389 355M696 355L697 356L696 355z"/>
<path style="fill:#07bbf5; stroke:none;" d="M388 356L389 357L388 356M697 356L698 357L697 356M387 357L388 358L387 357z"/>
<path style="fill:#059afa; stroke:none;" d="M701 359L702 360L701 359z"/>
<path style="fill:#07bbf5; stroke:none;" d="M702 360L703 361L702 360M703 361L704 362L703 361z"/>
<path style="fill:#059afa; stroke:none;" d="M707 364L708 365L707 364M708 365L709 366L708 365z"/>
<path style="fill:#07bbf5; stroke:none;" d="M514 366L514 367L575 367L556 366L514 366M709 366L710 367L709 366M502.667 367.333L503.333 367.667L502.667 367.333z"/>
<path style="fill:#059afa; stroke:none;" d="M504.667 367.333L505.333 367.667L504.667 367.333M583.667 367.333L584.333 367.667L583.667 367.333z"/>
<path style="fill:#07bbf5; stroke:none;" d="M585.667 367.333L586.333 367.667L585.667 367.333M495 368L496 369L495 368z"/>
<path style="fill:#059afa; stroke:none;" d="M496.667 368.333L497.333 368.667L496.667 368.333M591 368L592 369L591 368z"/>
<path style="fill:#07bbf5; stroke:none;" d="M592.667 368.333L593.333 368.667L592.667 368.333M489.667 369.333L490.333 369.667L489.667 369.333z"/>
<path style="fill:#059afa; stroke:none;" d="M491 369L492 370L491 369M597 369L598 370L597 369z"/>
<path style="fill:#07bbf5; stroke:none;" d="M598 369L599 370L598 369M485 370L486 371L485 370z"/>
<path style="fill:#059afa; stroke:none;" d="M486 370L487 371L486 370M601 370L602 371L601 370z"/>
<path style="fill:#07bbf5; stroke:none;" d="M602 370L603 371L602 370z"/>
<path style="fill:#059afa; stroke:none;" d="M714 370L715 371L714 370z"/>
<path style="fill:#07bbf5; stroke:none;" d="M481 371L482 372L481 371z"/>
<path style="fill:#059afa; stroke:none;" d="M605 371L606 372L605 371z"/>
<path style="fill:#07bbf5; stroke:none;" d="M606 371L607 372L606 371z"/>
<path style="fill:#059afa; stroke:none;" d="M715 371L716 372L715 371z"/>
<path style="fill:#07bbf5; stroke:none;" d="M477 372L478 373L477 372z"/>
<path style="fill:#059afa; stroke:none;" d="M478 372L479 373L478 372z"/>
<path style="fill:#07bbf5; stroke:none;" d="M609 372L610 373L609 372M716 372L717 373L716 372M371 373L372 374L371 373M474 373L475 374L474 373z"/>
<path style="fill:#059afa; stroke:none;" d="M612 373L613 374L612 373z"/>
<path style="fill:#07bbf5; stroke:none;" d="M717 373L718 374L717 373M370 374L371 375L370 374M471 374L472 375L471 374z"/>
<path style="fill:#059afa; stroke:none;" d="M615 374L616 375L615 374z"/>
<path style="fill:#07bbf5; stroke:none;" d="M718 374L719 375L718 374z"/>
<path style="fill:#059afa; stroke:none;" d="M369 375L370 376L369 375z"/>
<path style="fill:#07bbf5; stroke:none;" d="M468 375L469 376L468 375M618 375L619 376L618 375z"/>
<path style="fill:#059afa; stroke:none;" d="M368 376L369 377L368 376z"/>
<path style="fill:#07bbf5; stroke:none;" d="M465 376L466 377L465 376z"/>
<path style="fill:#059afa; stroke:none;" d="M620 376L621 377L620 376M463 377L464 378L463 377z"/>
<path style="fill:#07bbf5; stroke:none;" d="M623 377L624 378L623 377M460 378L461 379L460 378M625 378L626 379L625 378z"/>
<path style="fill:#059afa; stroke:none;" d="M723 378L724 379L723 378z"/>
<path style="fill:#07bbf5; stroke:none;" d="M458 379L459 380L458 379z"/>
<path style="fill:#059afa; stroke:none;" d="M627 379L628 380L627 379M724 379L725 380L724 379z"/>
<path style="fill:#07bbf5; stroke:none;" d="M365 380L366 381L365 380z"/>
<path style="fill:#059afa; stroke:none;" d="M456 380L457 381L456 380M629 380L630 381L629 380z"/>
<path style="fill:#07bbf5; stroke:none;" d="M725 380L726 381L725 380z"/>
<path style="fill:#059afa; stroke:none;" d="M364 381L365 382L364 381M454 381L455 382L454 381M631 381L632 382L631 381z"/>
<path style="fill:#07bbf5; stroke:none;" d="M726 381L727 382L726 381z"/>
<path style="fill:#059afa; stroke:none;" d="M452 382L453 383L452 382M633 382L634 383L633 382M450 383L451 384L450 383z"/>
<path style="fill:#07bbf5; stroke:none;" d="M635 383L636 384L635 383M362 384L363 385L362 384M448 384L449 385L448 384M637 384L638 385L637 384z"/>
<path style="fill:#059afa; stroke:none;" d="M361 385L362 386L361 385z"/>
<path style="fill:#07bbf5; stroke:none;" d="M446 385L447 386L446 385z"/>
<path style="fill:#059afa; stroke:none;" d="M638 385L639 386L638 385M731 385L732 386L731 385M445 386L446 387L445 386z"/>
<path style="fill:#07bbf5; stroke:none;" d="M640 386L641 387L640 386z"/>
<path style="fill:#059afa; stroke:none;" d="M732 386L733 387L732 386M443 387L444 388L443 387z"/>
<path style="fill:#07bbf5; stroke:none;" d="M733 387L734 388L733 387M359 388L360 389L359 388z"/>
<path style="fill:#059afa; stroke:none;" d="M643 388L644 389L643 388z"/>
<path style="fill:#07bbf5; stroke:none;" d="M734 388L735 389L734 388z"/>
<path style="fill:#059afa; stroke:none;" d="M358 389L359 390L358 389M440 389L441 390L440 389z"/>
<path style="fill:#07bbf5; stroke:none;" d="M645 389L646 390L645 389M438 390L439 391L438 390z"/>
<path style="fill:#059afa; stroke:none;" d="M646 390L647 391L646 390z"/>
<path style="fill:#07bbf5; stroke:none;" d="M357 391L358 392L357 391z"/>
<path style="fill:#059afa; stroke:none;" d="M437 391L438 392L437 391M738 391L739 392L738 391M356 392L357 393L356 392M649 392L650 393L649 392z"/>
<path style="fill:#07bbf5; stroke:none;" d="M739 392L740 393L739 392M434 393L435 394L434 393M740 393L741 394L740 393M355 394L356 395L355 394z"/>
<path style="fill:#059afa; stroke:none;" d="M433 394L434 395L433 394z"/>
<path style="fill:#07bbf5; stroke:none;" d="M652 394L653 395L652 394z"/>
<path style="fill:#059afa; stroke:none;" d="M354 395L355 396L354 395M653 395L654 396L653 395M743 395L744 396L743 395z"/>
<path style="fill:#07bbf5; stroke:none;" d="M430 396L431 397L430 396z"/>
<path style="fill:#059afa; stroke:none;" d="M744 396L745 397L744 396z"/>
<path style="fill:#07bbf5; stroke:none;" d="M353 397L354 398L353 397z"/>
<path style="fill:#059afa; stroke:none;" d="M429 397L430 398L429 397z"/>
<path style="fill:#07bbf5; stroke:none;" d="M656 397L657 398L656 397M745 397L746 398L745 397z"/>
<path style="fill:#059afa; stroke:none;" d="M352 398L353 399L352 398M428 398L429 399L428 398M657 398L658 399L657 398M748 399L749 400L748 399M351 400L352 401L351 400z"/>
<path style="fill:#07bbf5; stroke:none;" d="M749 400L750 401L749 400M661 401L662 402L661 401M350 402L351 403L350 402M423 402L424 403L423 402z"/>
<path style="fill:#059afa; stroke:none;" d="M662 402L663 403L662 402M752 402L753 403L752 402M349 403L350 404L349 403z"/>
<path style="fill:#07bbf5; stroke:none;" d="M422 403L423 404L422 403M753 403L754 404L753 403M421 404L422 405L421 404z"/>
<path style="fill:#059afa; stroke:none;" d="M755 404L756 405L755 404M348 405L349 406L348 405z"/>
<path style="fill:#07bbf5; stroke:none;" d="M420 405L421 406L420 405M666 405L667 406L666 405M756 405L757 406L756 405M419 406L420 407L419 406M667 406L668 407L667 406z"/>
<path style="fill:#059afa; stroke:none;" d="M758 406L759 407L758 406z"/>
<path style="fill:#07bbf5; stroke:none;" d="M347 407L348 408L347 407M418 407L419 408L418 407z"/>
<path style="fill:#059afa; stroke:none;" d="M668 407L669 408L668 407z"/>
<path style="fill:#07bbf5; stroke:none;" d="M759 407L760 408L759 407M417 408L418 409L417 408z"/>
<path style="fill:#059afa; stroke:none;" d="M761 408L762 409L761 408z"/>
<path style="fill:#07bbf5; stroke:none;" d="M346 409L347 410L346 409M416 409L417 410L416 409M762 409L763 410L762 409z"/>
<path style="fill:#ffffff; stroke:none;" d="M1051 409C1048.86 423.258 1038.06 434.31 1027 442.625C1005.64 458.681 981.286 470.573 956 479C947.483 481.838 930.319 482.567 923.603 488.164C919.705 491.414 923.731 506.359 924.286 511C926.074 525.951 926.257 542.005 924.83 557C924.164 564.001 920.468 575.018 922.333 581.772C923.401 585.64 929.755 585.849 933 586.576C943.516 588.933 953.849 592.076 964 595.692C986.731 603.789 1008.79 615.516 1028 630.13C1038.69 638.261 1048.94 649.219 1051 663L1052 663L1052 484L1052 432L1051 409z"/>
<path style="fill:#059afa; stroke:none;" d="M764 410L765 411L764 410z"/>
<path style="fill:#07bbf5; stroke:none;" d="M345 411L346 412L345 411M673 411L674 412L673 411z"/>
<path style="fill:#059afa; stroke:none;" d="M766 411L767 412L766 411z"/>
<path style="fill:#07bbf5; stroke:none;" d="M674 412L675 413L674 412M767 412L768 413L767 412M344 413L345 414L344 413z"/>
<path style="fill:#059afa; stroke:none;" d="M675 413L676 414L675 413z"/>
<path style="fill:#07bbf5; stroke:none;" d="M769 413L770 414L769 413z"/>
<path style="fill:#059afa; stroke:none;" d="M412 414L413 415L412 414M676 414L677 415L676 414M771 414L772 415L771 414z"/>
<path style="fill:#07bbf5; stroke:none;" d="M343 415L344 416L343 415z"/>
<path style="fill:#059afa; stroke:none;" d="M411 415L412 416L411 415M773 415L774 416L773 415z"/>
<path style="fill:#07bbf5; stroke:none;" d="M410 416L411 417L410 416z"/>
<path style="fill:#059afa; stroke:none;" d="M775 416L776 417L775 416z"/>
<path style="fill:#07bbf5; stroke:none;" d="M342 417L343 418L342 417z"/>
<path style="fill:#059afa; stroke:none;" d="M777 417L778 418L777 417z"/>
<path style="fill:#07bbf5; stroke:none;" d="M681 418L682 419L681 418M779 418L780 419L779 418M341 419L342 420L341 419z"/>
<path style="fill:#059afa; stroke:none;" d="M408 419L409 420L408 419z"/>
<path style="fill:#07bbf5; stroke:none;" d="M682 419L683 420L682 419M781 419L782 420L781 419M407 420L408 421L407 420z"/>
<path style="fill:#059afa; stroke:none;" d="M683 420L684 421L683 420M784 420L785 421L784 420M340 421L341 422L340 421M684 421L685 422L684 421z"/>
<path style="fill:#07bbf5; stroke:none;" d="M786 421L787 422L786 421z"/>
<path style="fill:#059afa; stroke:none;" d="M685 422L686 423L685 422z"/>
<path style="fill:#07bbf5; stroke:none;" d="M788 422L789 423L788 422z"/>
<path style="fill:#059afa; stroke:none;" d="M789 422L790 423L789 422M339 423L340 424L339 423M405 423L406 424L405 423z"/>
<path style="fill:#07bbf5; stroke:none;" d="M791 423L792 424L791 423M794 424L795 425L794 424M797 425L798 426L797 425M338 426L339 427L338 426z"/>
<path style="fill:#059afa; stroke:none;" d="M403 426L404 427L403 426z"/>
<path style="fill:#07bbf5; stroke:none;" d="M690 426L691 427L690 426M800 426L801 427L800 426z"/>
<path style="fill:#059afa; stroke:none;" d="M801 426L802 427L801 426z"/>
<path style="fill:#07bbf5; stroke:none;" d="M691 427L692 428L691 427M804 427L805 428L804 427z"/>
<path style="fill:#059afa; stroke:none;" d="M337 428L338 429L337 428M692 428L693 429L692 428z"/>
<path style="fill:#07bbf5; stroke:none;" d="M807 428L808 429L807 428z"/>
<path style="fill:#059afa; stroke:none;" d="M808 428L809 429L808 428z"/>
<path style="fill:#07bbf5; stroke:none;" d="M401 429L402 430L401 429z"/>
<path style="fill:#059afa; stroke:none;" d="M693 429L694 430L693 429z"/>
<path style="fill:#07bbf5; stroke:none;" d="M811.667 429.333L812.333 429.667L811.667 429.333M816 430L817 431L816 430z"/>
<path style="fill:#059afa; stroke:none;" d="M817 430L818 431L817 430z"/>
<path style="fill:#07bbf5; stroke:none;" d="M336 431L337 432L336 431z"/>
<path style="fill:#059afa; stroke:none;" d="M400 431L401 432L400 431z"/>
<path style="fill:#07bbf5; stroke:none;" d="M821.667 431.333L822.333 431.667L821.667 431.333z"/>
<path style="fill:#059afa; stroke:none;" d="M823 431L824 432L823 431z"/>
<path style="fill:#07bbf5; stroke:none;" d="M399 432L400 433L399 432M697 432L698 433L697 432M827.667 432.333L828.333 432.667L827.667 432.333z"/>
<path style="fill:#059afa; stroke:none;" d="M829.667 432.333L830.333 432.667L829.667 432.333M900.667 432.333L901.333 432.667L900.667 432.333z"/>
<path style="fill:#07bbf5; stroke:none;" d="M902 432L903 433L902 432z"/>
<path style="fill:#059afa; stroke:none;" d="M905 432L906 433L905 432M335 433L336 434L335 433z"/>
<path style="fill:#07bbf5; stroke:none;" d="M698 433L699 434L698 433M835.667 433.333L836.333 433.667L835.667 433.333z"/>
<path style="fill:#059afa; stroke:none;" d="M837 433L837 434L840 434L837 433M892.667 433.333L893.333 433.667L892.667 433.333z"/>
<path style="fill:#07bbf5; stroke:none;" d="M894.667 433.333L895.333 433.667L894.667 433.333M335 434L336 435L335 434M398 434L399 435L398 434z"/>
<path style="fill:#059afa; stroke:none;" d="M699 434L700 435L699 434z"/>
<path style="fill:#07bbf5; stroke:none;" d="M846 434L846 435L850 435L846 434z"/>
<path style="fill:#059afa; stroke:none;" d="M850 434L850 435L855 435L850 434M879 434L879 435L883 435L879 434z"/>
<path style="fill:#07bbf5; stroke:none;" d="M883 434L883 435L886 435L883 434z"/>
<path style="fill:#059afa; stroke:none;" d="M906 434L907 435L906 434M700 435L701 436L700 435z"/>
<path style="fill:#07bbf5; stroke:none;" d="M906 435L907 436L906 435z"/>
<path style="fill:#059afa; stroke:none;" d="M334 436L335 437L334 436z"/>
<path style="fill:#07bbf5; stroke:none;" d="M397 436L398 437L397 436z"/>
<path style="fill:#059afa; stroke:none;" d="M907 437L908 438L907 437M396 438L397 439L396 438z"/>
<path style="fill:#07bbf5; stroke:none;" d="M704 438L705 439L704 438z"/>
<path style="fill:#059afa; stroke:none;" d="M333 439L334 440L333 439M705 439L706 440L705 439M395 440L396 441L395 440z"/>
<path style="fill:#07bbf5; stroke:none;" d="M908 440L909 441L908 440z"/>
<path style="fill:#059afa; stroke:none;" d="M332 442L333 443L332 442z"/>
<path style="fill:#07bbf5; stroke:none;" d="M394 442L395 443L394 442M709 442L710 443L709 442M332 443L333 444L332 443z"/>
<path style="fill:#059afa; stroke:none;" d="M710 443L711 444L710 443z"/>
<path style="fill:#07bbf5; stroke:none;" d="M909 443L910 444L909 443M393 444L394 445L393 444M713 445L714 446L713 445z"/>
<path style="fill:#059afa; stroke:none;" d="M910 445L911 446L910 445z"/>
<path style="fill:#07bbf5; stroke:none;" d="M331 446L332 447L331 446M392 446L393 447L392 446z"/>
<path style="fill:#059afa; stroke:none;" d="M714 446L715 447L714 446z"/>
<path style="fill:#07bbf5; stroke:none;" d="M910 446L911 447L910 446z"/>
<path style="fill:#059afa; stroke:none;" d="M392 447L393 448L392 447z"/>
<path style="fill:#07bbf5; stroke:none;" d="M717 448L718 449L717 448z"/>
<path style="fill:#059afa; stroke:none;" d="M911 448L912 449L911 448M330 449L331 450L330 449M391 449L392 450L391 449M718 449L719 450L718 449z"/>
<path style="fill:#07bbf5; stroke:none;" d="M911 449L912 450L911 449M330 450L331 451L330 450M390 451L391 452L390 451M721 451L722 452L721 451z"/>
<path style="fill:#059afa; stroke:none;" d="M912 451L913 452L912 451M390 452L391 453L390 452z"/>
<path style="fill:#07bbf5; stroke:none;" d="M912 452L913 453L912 452z"/>
<path style="fill:#059afa; stroke:none;" d="M329 453L330 454L329 453z"/>
<path style="fill:#07bbf5; stroke:none;" d="M724 453L725 454L724 453M329 454L330 455L329 454M389 454L390 455L389 454z"/>
<path style="fill:#059afa; stroke:none;" d="M725 454L726 455L725 454z"/>
<path style="fill:#07bbf5; stroke:none;" d="M727 455L728 456L727 455M913 455L914 456L913 455z"/>
<path style="fill:#059afa; stroke:none;" d="M728 456L729 457L728 456M328 457L329 458L328 457z"/>
<path style="fill:#07bbf5; stroke:none;" d="M388 457L389 458L388 457M730 457L731 458L730 457M328 458L329 459L328 458z"/>
<path style="fill:#059afa; stroke:none;" d="M914 458L915 459L914 458M733 459L734 460L733 459z"/>
<path style="fill:#07bbf5; stroke:none;" d="M914 459L915 460L914 459M387 460L388 461L387 460M735 460L736 461L735 460z"/>
<path style="fill:#059afa; stroke:none;" d="M327 461L328 462L327 461z"/>
<path style="fill:#07bbf5; stroke:none;" d="M327.333 462.667L327.667 463.333L327.333 462.667z"/>
<path style="fill:#059afa; stroke:none;" d="M738 462L739 463L738 462z"/>
<path style="fill:#07bbf5; stroke:none;" d="M915 462L916 463L915 462M386 463L387 464L386 463M740 463L741 464L740 463z"/>
<path style="fill:#059afa; stroke:none;" d="M386 464L387 465L386 464z"/>
<path style="fill:#07bbf5; stroke:none;" d="M742 464L743 465L742 464M744 465L745 466L744 465z"/>
<path style="fill:#059afa; stroke:none;" d="M916 465L917 466L916 465z"/>
<path style="fill:#07bbf5; stroke:none;" d="M916 466L917 467L916 466z"/>
<path style="fill:#059afa; stroke:none;" d="M326 467L327 468L326 467z"/>
<path style="fill:#07bbf5; stroke:none;" d="M385 467L386 468L385 467z"/>
<path style="fill:#059afa; stroke:none;" d="M747 467L748 468L747 467z"/>
<path style="fill:#07bbf5; stroke:none;" d="M326 468L327 469L326 468z"/>
<path style="fill:#059afa; stroke:none;" d="M385 468L386 469L385 468M749 468L750 469L749 468M751 469L752 470L751 469M917 469L918 470L917 469z"/>
<path style="fill:#07bbf5; stroke:none;" d="M754 470L755 471L754 470M917 470L918 471L917 470M384 471L385 472L384 471M756 471L757 472L756 471z"/>
<path style="fill:#059afa; stroke:none;" d="M384 472L385 473L384 472z"/>
<path style="fill:#07bbf5; stroke:none;" d="M758 472L759 473L758 472z"/>
<path style="fill:#059afa; stroke:none;" d="M325 473L326 474L325 473M760 473L761 474L760 473M918 473L919 474L918 473z"/>
<path style="fill:#07bbf5; stroke:none;" d="M325.333 474.667L325.667 475.333L325.333 474.667M763 474L764 475L763 474M918 474L919 475L918 474z"/>
<path style="fill:#059afa; stroke:none;" d="M765 475L766 476L765 475z"/>
<path style="fill:#07bbf5; stroke:none;" d="M383 476L384 477L383 476M768 476L769 477L768 476z"/>
<path style="fill:#059afa; stroke:none;" d="M383 477L384 478L383 477M770 477L771 478L770 477M773 478L774 479L773 478M919 478L920 479L919 478z"/>
<path style="fill:#07bbf5; stroke:none;" d="M776 479L777 480L776 479M919 479L920 480L919 479z"/>
<path style="fill:#059afa; stroke:none;" d="M324.333 480.667L324.667 481.333L324.333 480.667M779 480L780 481L779 480M782 481L783 482L782 481z"/>
<path style="fill:#07bbf5; stroke:none;" d="M783 481L784 482L783 481M324 482L324 485L325 485L324 482M382.333 482.667L382.667 483.333L382.333 482.667M786 482L787 483L786 482z"/>
<path style="fill:#059afa; stroke:none;" d="M789 483L790 484L789 483z"/>
<path style="fill:#07bbf5; stroke:none;" d="M790 483L791 484L790 483z"/>
<path style="fill:#059afa; stroke:none;" d="M920 483L921 484L920 483M382 484L383 485L382 484M793 484L794 485L793 484z"/>
<path style="fill:#07bbf5; stroke:none;" d="M794 484L795 485L794 484M920 484L921 485L920 484z"/>
<path style="fill:#059afa; stroke:none;" d="M797 485L798 486L797 485z"/>
<path style="fill:#07bbf5; stroke:none;" d="M798 485L799 486L798 485z"/>
<path style="fill:#059afa; stroke:none;" d="M802 486L803 487L802 486z"/>
<path style="fill:#07bbf5; stroke:none;" d="M803 486L804 487L803 486z"/>
<path style="fill:#059afa; stroke:none;" d="M807 487L808 488L807 487z"/>
<path style="fill:#07bbf5; stroke:none;" d="M808 487L809 488L808 487z"/>
<path style="fill:#059afa; stroke:none;" d="M812 488L813 489L812 488z"/>
<path style="fill:#07bbf5; stroke:none;" d="M813.667 488.333L814.333 488.667L813.667 488.333M916 488L917 489L916 488z"/>
<path style="fill:#059afa; stroke:none;" d="M917 488L918 489L917 488M818.667 489.333L819.333 489.667L818.667 489.333z"/>
<path style="fill:#07bbf5; stroke:none;" d="M820.667 489.333L821.333 489.667L820.667 489.333M909.667 489.333L910.333 489.667L909.667 489.333z"/>
<path style="fill:#059afa; stroke:none;" d="M911 489L912 490L911 489z"/>
<path style="fill:#07bbf5; stroke:none;" d="M381 490L381 493L382 493L381 490z"/>
<path style="fill:#059afa; stroke:none;" d="M826.667 490.333L827.333 490.667L826.667 490.333z"/>
<path style="fill:#07bbf5; stroke:none;" d="M828.667 490.333L829.333 490.667L828.667 490.333M902.667 490.333L903.333 490.667L902.667 490.333z"/>
<path style="fill:#059afa; stroke:none;" d="M904 490L905 491L904 490M836.667 491.333L837.333 491.667L836.667 491.333z"/>
<path style="fill:#07bbf5; stroke:none;" d="M838 491L838 492L842 492L838 491M891 491L891 492L894 492L891 491z"/>
<path style="fill:#059afa; stroke:none;" d="M894 491L894 492L897 492L894 491M323 492L323 498L324 498L323 492M851 492L851 493L858 493L851 492z"/>
<path style="fill:#07bbf5; stroke:none;" d="M858 492L858 493L877 493L858 492z"/>
<path style="fill:#059afa; stroke:none;" d="M877 492L877 493L883 493L877 492M381 493L381 496L382 496L381 493z"/>
<path style="fill:#07bbf5; stroke:none;" d="M323 498L323 574L324 574L324 522L323 498z"/>
<path style="fill:#ffffff; stroke:none;" d="M0 566L0 1072L507 1072L507 1071C465.124 1071 421.968 1061.71 382 1049.72C233.782 1005.25 108.821 895.477 45.8611 754C28.6897 715.414 15.924 674.581 8.42438 633C5.79666 618.431 3.59541 603.732 2.16975 589C1.49216 581.998 2.69041 572.412 0 566z"/>
<path style="fill:#059afa; stroke:none;" d="M323 574L323 580L324 580L323 574M381 576L381 579L382 579L381 576z"/>
<path style="fill:#07bbf5; stroke:none;" d="M381 579L381 582L382 582L381 579z"/>
<path style="fill:#059afa; stroke:none;" d="M851 579L851 580L858 580L851 579z"/>
<path style="fill:#07bbf5; stroke:none;" d="M858 579L858 580L877 580L858 579z"/>
<path style="fill:#059afa; stroke:none;" d="M877 579L877 580L883 580L877 579M836.667 580.333L837.333 580.667L836.667 580.333z"/>
<path style="fill:#07bbf5; stroke:none;" d="M838 580L838 581L842 581L838 580M891 580L891 581L894 581L891 580z"/>
<path style="fill:#059afa; stroke:none;" d="M894 580L894 581L897 581L894 580M826.667 581.333L827.333 581.667L826.667 581.333z"/>
<path style="fill:#07bbf5; stroke:none;" d="M828.667 581.333L829.333 581.667L828.667 581.333M902.667 581.333L903.333 581.667L902.667 581.333z"/>
<path style="fill:#059afa; stroke:none;" d="M904 581L905 582L904 581M818.667 582.333L819.333 582.667L818.667 582.333z"/>
<path style="fill:#07bbf5; stroke:none;" d="M820.667 582.333L821.333 582.667L820.667 582.333M909.667 582.333L910.333 582.667L909.667 582.333z"/>
<path style="fill:#059afa; stroke:none;" d="M911 582L912 583L911 582M812 583L813 584L812 583z"/>
<path style="fill:#07bbf5; stroke:none;" d="M813.667 583.333L814.333 583.667L813.667 583.333M916 583L917 584L916 583z"/>
<path style="fill:#059afa; stroke:none;" d="M917 583L918 584L917 583M807 584L808 585L807 584z"/>
<path style="fill:#07bbf5; stroke:none;" d="M808 584L809 585L808 584z"/>
<path style="fill:#059afa; stroke:none;" d="M802 585L803 586L802 585z"/>
<path style="fill:#07bbf5; stroke:none;" d="M803 585L804 586L803 585z"/>
<path style="fill:#059afa; stroke:none;" d="M797 586L798 587L797 586z"/>
<path style="fill:#07bbf5; stroke:none;" d="M798 586L799 587L798 586M324 587L324 590L325 590L324 587z"/>
<path style="fill:#059afa; stroke:none;" d="M382 587L383 588L382 587M793 587L794 588L793 587z"/>
<path style="fill:#07bbf5; stroke:none;" d="M794 587L795 588L794 587M920 587L921 588L920 587M382.333 588.667L382.667 589.333L382.333 588.667z"/>
<path style="fill:#059afa; stroke:none;" d="M789 588L790 589L789 588z"/>
<path style="fill:#07bbf5; stroke:none;" d="M790 588L791 589L790 588z"/>
<path style="fill:#059afa; stroke:none;" d="M920 588L921 589L920 588z"/>
<path style="fill:#07bbf5; stroke:none;" d="M786 589L787 590L786 589z"/>
<path style="fill:#059afa; stroke:none;" d="M324.333 590.667L324.667 591.333L324.333 590.667M782 590L783 591L782 590z"/>
<path style="fill:#07bbf5; stroke:none;" d="M783 590L784 591L783 590z"/>
<path style="fill:#059afa; stroke:none;" d="M779 591L780 592L779 591z"/>
<path style="fill:#07bbf5; stroke:none;" d="M776 592L777 593L776 592M919 592L920 593L919 592z"/>
<path style="fill:#059afa; stroke:none;" d="M773 593L774 594L773 593M919 593L920 594L919 593M383 594L384 595L383 594M770 594L771 595L770 594z"/>
<path style="fill:#07bbf5; stroke:none;" d="M383 595L384 596L383 595M768 595L769 596L768 595M325.333 596.667L325.667 597.333L325.333 596.667z"/>
<path style="fill:#059afa; stroke:none;" d="M765 596L766 597L765 596z"/>
<path style="fill:#07bbf5; stroke:none;" d="M763 597L764 598L763 597M918 597L919 598L918 597z"/>
<path style="fill:#059afa; stroke:none;" d="M325 598L326 599L325 598M760 598L761 599L760 598M918 598L919 599L918 598M384 599L385 600L384 599z"/>
<path style="fill:#07bbf5; stroke:none;" d="M758 599L759 600L758 599M384 600L385 601L384 600M756 600L757 601L756 600M754 601L755 602L754 601M917 601L918 602L917 601z"/>
<path style="fill:#059afa; stroke:none;" d="M751 602L752 603L751 602M917 602L918 603L917 602z"/>
<path style="fill:#07bbf5; stroke:none;" d="M326 603L327 604L326 603z"/>
<path style="fill:#059afa; stroke:none;" d="M385 603L386 604L385 603M749 603L750 604L749 603M326 604L327 605L326 604z"/>
<path style="fill:#07bbf5; stroke:none;" d="M385 604L386 605L385 604z"/>
<path style="fill:#059afa; stroke:none;" d="M747 604L748 605L747 604z"/>
<path style="fill:#07bbf5; stroke:none;" d="M916 605L917 606L916 605M744 606L745 607L744 606z"/>
<path style="fill:#059afa; stroke:none;" d="M916 606L917 607L916 606M386 607L387 608L386 607z"/>
<path style="fill:#07bbf5; stroke:none;" d="M742 607L743 608L742 607M327.333 608.667L327.667 609.333L327.333 608.667M386 608L387 609L386 608M740 608L741 609L740 608z"/>
<path style="fill:#059afa; stroke:none;" d="M738 609L739 610L738 609z"/>
<path style="fill:#07bbf5; stroke:none;" d="M915 609L916 610L915 609z"/>
<path style="fill:#059afa; stroke:none;" d="M327 610L328 611L327 610z"/>
<path style="fill:#07bbf5; stroke:none;" d="M387 611L388 612L387 611M735 611L736 612L735 611z"/>
<path style="fill:#059afa; stroke:none;" d="M733 612L734 613L733 612z"/>
<path style="fill:#07bbf5; stroke:none;" d="M914 612L915 613L914 612M328 613L329 614L328 613z"/>
<path style="fill:#059afa; stroke:none;" d="M914 613L915 614L914 613M328 614L329 615L328 614z"/>
<path style="fill:#07bbf5; stroke:none;" d="M388 614L389 615L388 614M730 614L731 615L730 614z"/>
<path style="fill:#059afa; stroke:none;" d="M728 615L729 616L728 615z"/>
<path style="fill:#07bbf5; stroke:none;" d="M727 616L728 617L727 616M913 616L914 617L913 616M329 617L330 618L329 617M389 617L390 618L389 617z"/>
<path style="fill:#059afa; stroke:none;" d="M725 617L726 618L725 617M329 618L330 619L329 618z"/>
<path style="fill:#07bbf5; stroke:none;" d="M724 618L725 619L724 618z"/>
<path style="fill:#059afa; stroke:none;" d="M390 619L391 620L390 619z"/>
<path style="fill:#07bbf5; stroke:none;" d="M912 619L913 620L912 619M390 620L391 621L390 620M721 620L722 621L721 620z"/>
<path style="fill:#059afa; stroke:none;" d="M912 620L913 621L912 620z"/>
<path style="fill:#07bbf5; stroke:none;" d="M330 621L331 622L330 621z"/>
<path style="fill:#059afa; stroke:none;" d="M330 622L331 623L330 622M391 622L392 623L391 622M718 622L719 623L718 622z"/>
<path style="fill:#07bbf5; stroke:none;" d="M911 622L912 623L911 622M717 623L718 624L717 623z"/>
<path style="fill:#059afa; stroke:none;" d="M911 623L912 624L911 623M392 624L393 625L392 624z"/>
<path style="fill:#07bbf5; stroke:none;" d="M331 625L332 626L331 625M392 625L393 626L392 625z"/>
<path style="fill:#059afa; stroke:none;" d="M714 625L715 626L714 625z"/>
<path style="fill:#07bbf5; stroke:none;" d="M910 625L911 626L910 625M713 626L714 627L713 626z"/>
<path style="fill:#059afa; stroke:none;" d="M910 626L911 627L910 626z"/>
<path style="fill:#07bbf5; stroke:none;" d="M393 627L394 628L393 627M332 628L333 629L332 628z"/>
<path style="fill:#059afa; stroke:none;" d="M710 628L711 629L710 628z"/>
<path style="fill:#07bbf5; stroke:none;" d="M909 628L910 629L909 628z"/>
<path style="fill:#059afa; stroke:none;" d="M332 629L333 630L332 629z"/>
<path style="fill:#07bbf5; stroke:none;" d="M394 629L395 630L394 629M709 629L710 630L709 629z"/>
<path style="fill:#059afa; stroke:none;" d="M395 631L396 632L395 631z"/>
<path style="fill:#07bbf5; stroke:none;" d="M908 631L909 632L908 631z"/>
<path style="fill:#059afa; stroke:none;" d="M333 632L334 633L333 632M705 632L706 633L705 632M396 633L397 634L396 633z"/>
<path style="fill:#07bbf5; stroke:none;" d="M704 633L705 634L704 633z"/>
<path style="fill:#059afa; stroke:none;" d="M907 634L908 635L907 634M334 635L335 636L334 635z"/>
<path style="fill:#07bbf5; stroke:none;" d="M397 635L398 636L397 635z"/>
<path style="fill:#059afa; stroke:none;" d="M700 636L701 637L700 636z"/>
<path style="fill:#07bbf5; stroke:none;" d="M906 636L907 637L906 636M335 637L336 638L335 637M398 637L399 638L398 637z"/>
<path style="fill:#059afa; stroke:none;" d="M699 637L700 638L699 637z"/>
<path style="fill:#07bbf5; stroke:none;" d="M846 637L846 638L850 638L846 637z"/>
<path style="fill:#059afa; stroke:none;" d="M850 637L850 638L855 638L850 637M879 637L879 638L883 638L879 637z"/>
<path style="fill:#07bbf5; stroke:none;" d="M883 637L883 638L886 638L883 637z"/>
<path style="fill:#059afa; stroke:none;" d="M906 637L907 638L906 637M335 638L336 639L335 638z"/>
<path style="fill:#07bbf5; stroke:none;" d="M698 638L699 639L698 638M835.667 638.333L836.333 638.667L835.667 638.333z"/>
<path style="fill:#059afa; stroke:none;" d="M837 638L837 639L840 639L837 638M892.667 638.333L893.333 638.667L892.667 638.333z"/>
<path style="fill:#07bbf5; stroke:none;" d="M894.667 638.333L895.333 638.667L894.667 638.333M399 639L400 640L399 639M697 639L698 640L697 639M827.667 639.333L828.333 639.667L827.667 639.333z"/>
<path style="fill:#059afa; stroke:none;" d="M829.667 639.333L830.333 639.667L829.667 639.333M900.667 639.333L901.333 639.667L900.667 639.333z"/>
<path style="fill:#07bbf5; stroke:none;" d="M902 639L903 640L902 639z"/>
<path style="fill:#059afa; stroke:none;" d="M905 639L906 640L905 639z"/>
<path style="fill:#07bbf5; stroke:none;" d="M336 640L337 641L336 640z"/>
<path style="fill:#059afa; stroke:none;" d="M400 640L401 641L400 640z"/>
<path style="fill:#07bbf5; stroke:none;" d="M821.667 640.333L822.333 640.667L821.667 640.333z"/>
<path style="fill:#059afa; stroke:none;" d="M823 640L824 641L823 640z"/>
<path style="fill:#07bbf5; stroke:none;" d="M816 641L817 642L816 641z"/>
<path style="fill:#059afa; stroke:none;" d="M817 641L818 642L817 641z"/>
<path style="fill:#07bbf5; stroke:none;" d="M401 642L402 643L401 642z"/>
<path style="fill:#059afa; stroke:none;" d="M693 642L694 643L693 642z"/>
<path style="fill:#07bbf5; stroke:none;" d="M811.667 642.333L812.333 642.667L811.667 642.333z"/>
<path style="fill:#059afa; stroke:none;" d="M337 643L338 644L337 643M692 643L693 644L692 643z"/>
<path style="fill:#07bbf5; stroke:none;" d="M807 643L808 644L807 643z"/>
<path style="fill:#059afa; stroke:none;" d="M808 643L809 644L808 643z"/>
<path style="fill:#07bbf5; stroke:none;" d="M691 644L692 645L691 644M804 644L805 645L804 644M338 645L339 646L338 645z"/>
<path style="fill:#059afa; stroke:none;" d="M403 645L404 646L403 645z"/>
<path style="fill:#07bbf5; stroke:none;" d="M690 645L691 646L690 645M800 645L801 646L800 645z"/>
<path style="fill:#059afa; stroke:none;" d="M801 645L802 646L801 645z"/>
<path style="fill:#07bbf5; stroke:none;" d="M797 646L798 647L797 646M794 647L795 648L794 647z"/>
<path style="fill:#059afa; stroke:none;" d="M339 648L340 649L339 648M405 648L406 649L405 648z"/>
<path style="fill:#07bbf5; stroke:none;" d="M791 648L792 649L791 648z"/>
<path style="fill:#059afa; stroke:none;" d="M685 649L686 650L685 649z"/>
<path style="fill:#07bbf5; stroke:none;" d="M788 649L789 650L788 649z"/>
<path style="fill:#059afa; stroke:none;" d="M789 649L790 650L789 649M340 650L341 651L340 650M684 650L685 651L684 650z"/>
<path style="fill:#07bbf5; stroke:none;" d="M786 650L787 651L786 650M407 651L408 652L407 651z"/>
<path style="fill:#059afa; stroke:none;" d="M683 651L684 652L683 651M784 651L785 652L784 651z"/>
<path style="fill:#07bbf5; stroke:none;" d="M341 652L342 653L341 652z"/>
<path style="fill:#059afa; stroke:none;" d="M408 652L409 653L408 652z"/>
<path style="fill:#07bbf5; stroke:none;" d="M682 652L683 653L682 652M781 652L782 653L781 652M681 653L682 654L681 653M779 653L780 654L779 653M342 654L343 655L342 654z"/>
<path style="fill:#059afa; stroke:none;" d="M777 654L778 655L777 654z"/>
<path style="fill:#07bbf5; stroke:none;" d="M410 655L411 656L410 655z"/>
<path style="fill:#059afa; stroke:none;" d="M775 655L776 656L775 655z"/>
<path style="fill:#07bbf5; stroke:none;" d="M343 656L344 657L343 656z"/>
<path style="fill:#059afa; stroke:none;" d="M411 656L412 657L411 656M773 656L774 657L773 656M412 657L413 658L412 657M676 657L677 658L676 657M771 657L772 658L771 657z"/>
<path style="fill:#07bbf5; stroke:none;" d="M344 658L345 659L344 658z"/>
<path style="fill:#059afa; stroke:none;" d="M675 658L676 659L675 658z"/>
<path style="fill:#07bbf5; stroke:none;" d="M769 658L770 659L769 658M674 659L675 660L674 659M767 659L768 660L767 659M345 660L346 661L345 660M673 660L674 661L673 660z"/>
<path style="fill:#059afa; stroke:none;" d="M766 660L767 661L766 660M764 661L765 662L764 661z"/>
<path style="fill:#07bbf5; stroke:none;" d="M346 662L347 663L346 662M416 662L417 663L416 662M762 662L763 663L762 662M417 663L418 664L417 663z"/>
<path style="fill:#059afa; stroke:none;" d="M761 663L762 664L761 663z"/>
<path style="fill:#07bbf5; stroke:none;" d="M347 664L348 665L347 664M418 664L419 665L418 664z"/>
<path style="fill:#059afa; stroke:none;" d="M668 664L669 665L668 664z"/>
<path style="fill:#07bbf5; stroke:none;" d="M759 664L760 665L759 664M419 665L420 666L419 665M667 665L668 666L667 665z"/>
<path style="fill:#059afa; stroke:none;" d="M758 665L759 666L758 665M348 666L349 667L348 666z"/>
<path style="fill:#07bbf5; stroke:none;" d="M420 666L421 667L420 666M666 666L667 667L666 666M756 666L757 667L756 666M421 667L422 668L421 667z"/>
<path style="fill:#059afa; stroke:none;" d="M755 667L756 668L755 667M349 668L350 669L349 668z"/>
<path style="fill:#07bbf5; stroke:none;" d="M422 668L423 669L422 668M753 668L754 669L753 668M350 669L351 670L350 669M423 669L424 670L423 669z"/>
<path style="fill:#059afa; stroke:none;" d="M662 669L663 670L662 669M752 669L753 670L752 669z"/>
<path style="fill:#07bbf5; stroke:none;" d="M661 670L662 671L661 670z"/>
<path style="fill:#059afa; stroke:none;" d="M351 671L352 672L351 671z"/>
<path style="fill:#07bbf5; stroke:none;" d="M749 671L750 672L749 671z"/>
<path style="fill:#059afa; stroke:none;" d="M748 672L749 673L748 672M352 673L353 674L352 673M428 673L429 674L428 673M657 673L658 674L657 673z"/>
<path style="fill:#07bbf5; stroke:none;" d="M353 674L354 675L353 674z"/>
<path style="fill:#059afa; stroke:none;" d="M429 674L430 675L429 674z"/>
<path style="fill:#07bbf5; stroke:none;" d="M656 674L657 675L656 674M745 674L746 675L745 674M430 675L431 676L430 675z"/>
<path style="fill:#059afa; stroke:none;" d="M744 675L745 676L744 675M354 676L355 677L354 676M653 676L654 677L653 676M743 676L744 677L743 676z"/>
<path style="fill:#07bbf5; stroke:none;" d="M355 677L356 678L355 677z"/>
<path style="fill:#059afa; stroke:none;" d="M433 677L434 678L433 677z"/>
<path style="fill:#07bbf5; stroke:none;" d="M652 677L653 678L652 677M434 678L435 679L434 678M740 678L741 679L740 678z"/>
<path style="fill:#059afa; stroke:none;" d="M356 679L357 680L356 679M649 679L650 680L649 679z"/>
<path style="fill:#07bbf5; stroke:none;" d="M739 679L740 680L739 679M357 680L358 681L357 680z"/>
<path style="fill:#059afa; stroke:none;" d="M437 680L438 681L437 680M738 680L739 681L738 680z"/>
<path style="fill:#07bbf5; stroke:none;" d="M438 681L439 682L438 681z"/>
<path style="fill:#059afa; stroke:none;" d="M646 681L647 682L646 681M358 682L359 683L358 682M440 682L441 683L440 682z"/>
<path style="fill:#07bbf5; stroke:none;" d="M645 682L646 683L645 682z"/>
<path style="fill:#ffffff; stroke:none;" d="M1051 682C1049.78 696.898 1042.65 712.135 1037.42 726C1023.69 762.403 1005.93 797.608 984.333 830C912.427 937.869 803.512 1019.16 678 1053.15C641.577 1063.02 602.857 1071 565 1071L565 1072L1052 1072L1052 796L1052 717L1051 682z"/>
<path style="fill:#07bbf5; stroke:none;" d="M359 683L360 684L359 683z"/>
<path style="fill:#059afa; stroke:none;" d="M643 683L644 684L643 683z"/>
<path style="fill:#07bbf5; stroke:none;" d="M734 683L735 684L734 683z"/>
<path style="fill:#059afa; stroke:none;" d="M443 684L444 685L443 684z"/>
<path style="fill:#07bbf5; stroke:none;" d="M733 684L734 685L733 684z"/>
<path style="fill:#059afa; stroke:none;" d="M445 685L446 686L445 685z"/>
<path style="fill:#07bbf5; stroke:none;" d="M640 685L641 686L640 685z"/>
<path style="fill:#059afa; stroke:none;" d="M732 685L733 686L732 685M361 686L362 687L361 686z"/>
<path style="fill:#07bbf5; stroke:none;" d="M446 686L447 687L446 686z"/>
<path style="fill:#059afa; stroke:none;" d="M638 686L639 687L638 686M731 686L732 687L731 686z"/>
<path style="fill:#07bbf5; stroke:none;" d="M362 687L363 688L362 687M448 687L449 688L448 687M637 687L638 688L637 687z"/>
<path style="fill:#059afa; stroke:none;" d="M450 688L451 689L450 688z"/>
<path style="fill:#07bbf5; stroke:none;" d="M635 688L636 689L635 688z"/>
<path style="fill:#059afa; stroke:none;" d="M452 689L453 690L452 689M633 689L634 690L633 689M364 690L365 691L364 690M454 690L455 691L454 690M631 690L632 691L631 690z"/>
<path style="fill:#07bbf5; stroke:none;" d="M726 690L727 691L726 690M365 691L366 692L365 691z"/>
<path style="fill:#059afa; stroke:none;" d="M456 691L457 692L456 691M629 691L630 692L629 691z"/>
<path style="fill:#07bbf5; stroke:none;" d="M725 691L726 692L725 691M458 692L459 693L458 692z"/>
<path style="fill:#059afa; stroke:none;" d="M627 692L628 693L627 692M724 692L725 693L724 692z"/>
<path style="fill:#07bbf5; stroke:none;" d="M460 693L461 694L460 693M625 693L626 694L625 693z"/>
<path style="fill:#059afa; stroke:none;" d="M723 693L724 694L723 693M463 694L464 695L463 694z"/>
<path style="fill:#07bbf5; stroke:none;" d="M623 694L624 695L623 694z"/>
<path style="fill:#059afa; stroke:none;" d="M368 695L369 696L368 695z"/>
<path style="fill:#07bbf5; stroke:none;" d="M465 695L466 696L465 695z"/>
<path style="fill:#059afa; stroke:none;" d="M620 695L621 696L620 695M369 696L370 697L369 696z"/>
<path style="fill:#07bbf5; stroke:none;" d="M468 696L469 697L468 696M618 696L619 697L618 696M370 697L371 698L370 697M471 697L472 698L471 697z"/>
<path style="fill:#059afa; stroke:none;" d="M615 697L616 698L615 697z"/>
<path style="fill:#07bbf5; stroke:none;" d="M718 697L719 698L718 697M371 698L372 699L371 698M474 698L475 699L474 698z"/>
<path style="fill:#059afa; stroke:none;" d="M612 698L613 699L612 698z"/>
<path style="fill:#07bbf5; stroke:none;" d="M717 698L718 699L717 698M477 699L478 700L477 699z"/>
<path style="fill:#059afa; stroke:none;" d="M478 699L479 700L478 699z"/>
<path style="fill:#07bbf5; stroke:none;" d="M609 699L610 700L609 699M716 699L717 700L716 699M481 700L482 701L481 700z"/>
<path style="fill:#059afa; stroke:none;" d="M605 700L606 701L605 700z"/>
<path style="fill:#07bbf5; stroke:none;" d="M606 700L607 701L606 700z"/>
<path style="fill:#059afa; stroke:none;" d="M715 700L716 701L715 700z"/>
<path style="fill:#07bbf5; stroke:none;" d="M485 701L486 702L485 701z"/>
<path style="fill:#059afa; stroke:none;" d="M486 701L487 702L486 701M601 701L602 702L601 701z"/>
<path style="fill:#07bbf5; stroke:none;" d="M602 701L603 702L602 701z"/>
<path style="fill:#059afa; stroke:none;" d="M714 701L715 702L714 701z"/>
<path style="fill:#07bbf5; stroke:none;" d="M489.667 702.333L490.333 702.667L489.667 702.333z"/>
<path style="fill:#059afa; stroke:none;" d="M491 702L492 703L491 702M597 702L598 703L597 702z"/>
<path style="fill:#07bbf5; stroke:none;" d="M598 702L599 703L598 702M495 703L496 704L495 703z"/>
<path style="fill:#059afa; stroke:none;" d="M496.667 703.333L497.333 703.667L496.667 703.333M591 703L592 704L591 703z"/>
<path style="fill:#07bbf5; stroke:none;" d="M592.667 703.333L593.333 703.667L592.667 703.333M502.667 704.333L503.333 704.667L502.667 704.333z"/>
<path style="fill:#059afa; stroke:none;" d="M504.667 704.333L505.333 704.667L504.667 704.333M583.667 704.333L584.333 704.667L583.667 704.333z"/>
<path style="fill:#07bbf5; stroke:none;" d="M585.667 704.333L586.333 704.667L585.667 704.333M514 705L514 706L575 706L555 705L514 705M709 705L710 706L709 705z"/>
<path style="fill:#059afa; stroke:none;" d="M708 706L709 707L708 706M707 707L708 708L707 707z"/>
<path style="fill:#07bbf5; stroke:none;" d="M703 710L704 711L703 710M702 711L703 712L702 711z"/>
<path style="fill:#059afa; stroke:none;" d="M701 712L702 713L701 712z"/>
<path style="fill:#07bbf5; stroke:none;" d="M387 714L388 715L387 714M388 715L389 716L388 715M697 715L698 716L697 715z"/>
<path style="fill:#059afa; stroke:none;" d="M389 716L390 717L389 716M696 716L697 717L696 716M390 717L391 718L390 717z"/>
<path style="fill:#07bbf5; stroke:none;" d="M692 719L693 720L692 719M394 720L395 721L394 720z"/>
<path style="fill:#059afa; stroke:none;" d="M691 720L692 721L691 720M395 721L396 722L395 721z"/>
<path style="fill:#07bbf5; stroke:none;" d="M688 722L689 723L688 722M398 723L399 724L398 723z"/>
<path style="fill:#059afa; stroke:none;" d="M687 723L688 724L687 723M399 724L400 725L399 724z"/>
<path style="fill:#07bbf5; stroke:none;" d="M684 725L685 726L684 725M402 726L403 727L402 726z"/>
<path style="fill:#059afa; stroke:none;" d="M683 726L684 727L683 726M403 727L404 728L403 727z"/>
<path style="fill:#07bbf5; stroke:none;" d="M681 727L682 728L681 727M405 728L406 729L405 728z"/>
<path style="fill:#059afa; stroke:none;" d="M680 728L681 729L680 728M406 729L407 730L406 729z"/>
<path style="fill:#07bbf5; stroke:none;" d="M678 729L679 730L678 729M408 730L409 731L408 730z"/>
<path style="fill:#059afa; stroke:none;" d="M677 730L678 731L677 730M409 731L410 732L409 731z"/>
<path style="fill:#07bbf5; stroke:none;" d="M675 731L676 732L675 731M411 732L412 733L411 732z"/>
<path style="fill:#059afa; stroke:none;" d="M674 732L675 733L674 732M412 733L413 734L412 733z"/>
<path style="fill:#07bbf5; stroke:none;" d="M672 733L673 734L672 733z"/>
<path style="fill:#059afa; stroke:none;" d="M414 734L415 735L414 734z"/>
<path style="fill:#07bbf5; stroke:none;" d="M416 735L417 736L416 735z"/>
<path style="fill:#059afa; stroke:none;" d="M669 735L670 736L669 735z"/>
<path style="fill:#07bbf5; stroke:none;" d="M667 736L668 737L667 736z"/>
<path style="fill:#059afa; stroke:none;" d="M419 737L420 738L419 737M421 738L422 739L421 738M664 738L665 739L664 738z"/>
<path style="fill:#07bbf5; stroke:none;" d="M423 739L424 740L423 739z"/>
<path style="fill:#059afa; stroke:none;" d="M662 739L663 740L662 739z"/>
<path style="fill:#07bbf5; stroke:none;" d="M425 740L426 741L425 740M660 740L661 741L660 740M427 741L428 742L427 741M658 741L659 742L658 741M429 742L430 743L429 742M656 742L657 743L656 742M431 743L432 744L431 743M654 743L655 744L654 743M433 744L434 745L433 744M652 744L653 745L652 744z"/>
<path style="fill:#059afa; stroke:none;" d="M435 745L436 746L435 745z"/>
<path style="fill:#07bbf5; stroke:none;" d="M650 745L651 746L650 745z"/>
<path style="fill:#059afa; stroke:none;" d="M437 746L438 747L437 746z"/>
<path style="fill:#07bbf5; stroke:none;" d="M648 746L649 747L648 746M440 747L441 748L440 747z"/>
<path style="fill:#059afa; stroke:none;" d="M646 747L647 748L646 747M442 748L443 749L442 748z"/>
<path style="fill:#07bbf5; stroke:none;" d="M643 748L644 749L643 748M445 749L446 750L445 749M641 749L642 750L641 749z"/>
<path style="fill:#059afa; stroke:none;" d="M447 750L448 751L447 750z"/>
<path style="fill:#07bbf5; stroke:none;" d="M448 750L449 751L448 750M638 750L639 751L638 750z"/>
<path style="fill:#059afa; stroke:none;" d="M450 751L451 752L450 751M636 751L637 752L636 751M453 752L454 753L453 752z"/>
<path style="fill:#07bbf5; stroke:none;" d="M633 752L634 753L633 752z"/>
<path style="fill:#059afa; stroke:none;" d="M456 753L457 754L456 753z"/>
<path style="fill:#07bbf5; stroke:none;" d="M457 753L458 754L457 753M630 753L631 754L630 753z"/>
<path style="fill:#059afa; stroke:none;" d="M459 754L460 755L459 754z"/>
<path style="fill:#07bbf5; stroke:none;" d="M460 754L461 755L460 754z"/>
<path style="fill:#059afa; stroke:none;" d="M627 754L628 755L627 754M463 755L464 756L463 755z"/>
<path style="fill:#07bbf5; stroke:none;" d="M623 755L624 756L623 755z"/>
<path style="fill:#059afa; stroke:none;" d="M624 755L625 756L624 755z"/>
<path style="fill:#07bbf5; stroke:none;" d="M467 756L468 757L467 756z"/>
<path style="fill:#059afa; stroke:none;" d="M620 756L621 757L620 756z"/>
<path style="fill:#07bbf5; stroke:none;" d="M471.667 757.333L472.333 757.667L471.667 757.333M615.667 757.333L616.333 757.667L615.667 757.333z"/>
<path style="fill:#059afa; stroke:none;" d="M475 758L476 759L475 758z"/>
<path style="fill:#07bbf5; stroke:none;" d="M476 758L477 759L476 758M611 758L612 759L611 758z"/>
<path style="fill:#059afa; stroke:none;" d="M612 758L613 759L612 758M480 759L481 760L480 759z"/>
<path style="fill:#07bbf5; stroke:none;" d="M481.667 759.333L482.333 759.667L481.667 759.333M606 759L607 760L606 759z"/>
<path style="fill:#059afa; stroke:none;" d="M607 759L608 760L607 759M486 760L487 761L486 760z"/>
<path style="fill:#07bbf5; stroke:none;" d="M487.667 760.333L488.333 760.667L487.667 760.333M600 760L601 761L600 760z"/>
<path style="fill:#059afa; stroke:none;" d="M601.667 760.333L602.333 760.667L601.667 760.333M493 761L494 762L493 761z"/>
<path style="fill:#07bbf5; stroke:none;" d="M494 761L494 762L497 762L494 761M592.667 761.333L593.333 761.667L592.667 761.333z"/>
<path style="fill:#059afa; stroke:none;" d="M594.667 761.333L595.333 761.667L594.667 761.333M502 762L502 763L505 763L502 762z"/>
<path style="fill:#07bbf5; stroke:none;" d="M505 762L505 763L509 763L505 762M580 762L580 763L584 763L580 762z"/>
<path style="fill:#059afa; stroke:none;" d="M584 762L584 763L587 763L584 762z"/>
</svg>
