<?xml version="1.0" encoding="UTF-8"?>
<!-- Created with Inkscape (http://www.inkscape.org/) -->
<svg width="1587.4" height="353.7" version="1.1" viewBox="0 0 1587.4 353.7" xmlns="http://www.w3.org/2000/svg">
 <defs>
  <clipPath id="clip4">
   <path d="m447.88 798h11.125v11h-11.125z"/>
  </clipPath>
  <clipPath id="clip5">
   <path d="m508 793.98h4v4.0156h-4z"/>
  </clipPath>
  <clipPath id="clip6">
   <path d="m558 795h8.9297v14h-8.9297z"/>
  </clipPath>
  <clipPath id="clip7">
   <path d="m508 813h7v7.5117h-7z"/>
  </clipPath>
  <clipPath id="clip8">
   <path d="m515 813h2v7.5117h-2z"/>
  </clipPath>
  <clipPath id="clip9">
   <path d="m517 815h5v5.5117h-5z"/>
  </clipPath>
  <clipPath id="clip10">
   <path d="m522 815h5v5.5117h-5z"/>
  </clipPath>
  <clipPath id="clip11">
   <path d="m530 813h6v7.5117h-6z"/>
  </clipPath>
  <clipPath id="clip12">
   <path d="m536 815h6v5.5117h-6z"/>
  </clipPath>
  <clipPath id="clip13">
   <path d="m542 813h1v7.5117h-1z"/>
  </clipPath>
  <clipPath id="clip14">
   <path d="m544 815h5v5.5117h-5z"/>
  </clipPath>
  <clipPath id="clip15">
   <path d="m549 813h5v7.5117h-5z"/>
  </clipPath>
  <clipPath id="clip16">
   <path d="m554 813h2v7.5117h-2z"/>
  </clipPath>
  <clipPath id="clip17">
   <path d="m556 815h6v5.5117h-6z"/>
  </clipPath>
  <clipPath id="clip18">
   <path d="m562 815h4.9297v5.5117h-4.9297z"/>
  </clipPath>
  <clipPath id="clip19">
   <path d="m500 813h7v7.5117h-7z"/>
  </clipPath>
 </defs>
 <g transform="translate(-1.7375e-5)">
  <g transform="matrix(13.333 0 0 13.333 -5971.7 -10586)" clip-path="url(#clip4)">
   <path d="m451.26 803.16c0 0.55078 0.1875 1.0156 0.5625 1.4024 0.37891 0.38671 0.83985 0.57812 1.3789 0.57812 0.54297 0 1.0039-0.19141 1.3828-0.57812 0.375-0.38672 0.5625-0.85157 0.5625-1.4024 0-0.54687-0.1875-1.0156-0.5625-1.4023-0.37891-0.38672-0.83984-0.57813-1.3828-0.57813-0.53906 0-1 0.19141-1.3789 0.57813-0.375 0.38672-0.5625 0.85547-0.5625 1.4023m3.8438 4.3516v-0.16406c-0.3164 0.30078-0.66797 0.52735-1.0625 0.67969-0.39453 0.14844-0.82812 0.22656-1.2891 0.22656-1.375 0-2.5312-0.49219-3.4688-1.4766-0.9375-0.98047-1.4062-2.1875-1.4062-3.6172s0.46875-2.6328 1.4062-3.6172c0.9375-0.98437 2.0938-1.4726 3.4688-1.4726 0.46094 0 0.89453 0.0742 1.2891 0.22265 0.39453 0.15235 0.7461 0.375 1.0625 0.67188v-0.17188c0-0.13281 0.043-0.24218 0.125-0.32812 0.0859-0.082 0.19531-0.125 0.32422-0.125h2.4609c0.13281 0 0.24219 0.043 0.32812 0.125 0.082 0.0859 0.125 0.19531 0.125 0.32812v8.7188c0 0.125-0.043 0.23438-0.13281 0.32422-0.0859 0.0899-0.1875 0.13672-0.30859 0.13672h-2.4531c-0.125 0-0.23437-0.0469-0.32812-0.13672-0.0937-0.0898-0.14063-0.19922-0.14063-0.32422" fill="#19303f"/>
  </g>
  <path d="m220.05 150.36c5.8854 0 10.312-1.667 13.333-5.052 3.0208-3.386 4.5312-8.334 4.5312-14.844v-66.927c0-1.459 0.625-2.709 1.927-3.802 1.3027-1.094 2.7604-1.615 4.3751-1.615h32.396c1.6147 0 3.073 0.52 4.3751 1.615 1.2493 1.093 1.9271 2.343 1.9271 3.802v72.969c0 15.677-5.6771 28.593-17.031 38.697-11.302 10.157-26.511 15.209-45.573 15.209-19.219 0-34.635-5.104-46.302-15.313-11.667-10.208-17.5-23.073-17.5-38.593v-72.969c0-1.459 0.625-2.709 1.8751-3.802 1.2493-1.094 2.6561-1.615 4.2708-1.615h32.448c1.6147 0 3.073 0.52 4.4271 1.615 1.3027 1.093 1.9792 2.343 1.9792 3.802v66.927c0 6.354 1.6145 11.25 4.7917 14.739 3.2291 3.438 7.8124 5.157 13.75 5.157" fill="#19303f"/>
  <path d="m356.56 189.11c-14.062 0-25.26-3.698-33.698-11.042-8.3853-7.396-12.604-17.552-12.604-30.573v-52.239h-13.229c-1.6145 0-3.0208-0.57-4.1667-1.823-1.1453-1.199-1.7708-2.657-1.7708-4.427v-9.271c0-2.761 0.26-4.948 0.781-6.667 0.521-1.667 1.5105-3.281 2.8646-4.844l31.927-35.416c2.7604-2.969 5-4.948 6.8229-5.782 1.823-0.89 4.1667-1.354 7.0312-1.354h8.5938c1.6666 0 3.125 0.57 4.2709 1.771 1.1973 1.145 1.7708 2.552 1.7708 4.271v26.406h28.229c1.6667 0 3.1249 0.57 4.3228 1.771 1.1987 1.145 1.8229 2.552 1.8229 4.271v24.844c0 1.77-0.625 3.229-1.8229 4.427-1.1973 1.249-2.6561 1.823-4.3228 1.823h-28.229v42.812c0 3.125 0.833 5.625 2.5 7.396 1.7187 1.823 4.0104 2.76 6.8749 2.76 1.7188 0 3.4896-0.36 5.4167-1.041 1.9792-0.68 4.1667-1.771 6.6667-3.229 2.5-1.407 4.5833-1.927 6.3021-1.511 1.7708 0.36 3.3855 1.667 4.8959 3.854l11.354 16.98c1.2493 1.927 1.8749 3.854 1.7708 5.781-0.05 1.927-0.833 3.646-2.2396 5.052-4.5833 4.687-10.677 8.333-18.177 10.99-7.5 2.656-15.469 4.01-23.958 4.01" fill="#19303f"/>
  <path d="m475.47 93.438c-6.0939 0-11.094 1.927-15.052 5.729-3.9584 3.854-5.8855 8.958-5.8855 15.416v65.938c0 1.771-0.573 3.229-1.7187 4.375-1.0933 1.093-2.5521 1.667-4.3229 1.667h-32.812c-1.7708 0-3.2292-0.57-4.323-1.667-1.1453-1.145-1.7186-2.604-1.7186-4.375v-169.53c0-1.771 0.573-3.229 1.7186-4.375 1.0934-1.094 2.5522-1.667 4.323-1.667h32.812c1.7708 0 3.2292 0.57 4.3229 1.667 1.1454 1.145 1.7187 2.604 1.7187 4.375v62.448c4.0625-6.198 9.2709-10.886 15.625-14.115 6.302-3.229 13.542-4.844 21.719-4.844 16.198 0 28.438 4.844 36.719 14.427 8.3334 9.636 12.5 23.594 12.5 41.927v69.688c0 1.771-0.573 3.229-1.6666 4.375-1.1454 1.093-2.6042 1.667-4.375 1.667h-32.76c-1.8228 0-3.2291-0.57-4.3749-1.667-1.0934-1.145-1.6667-2.604-1.6667-4.375v-65.938c0-6.458-1.9271-11.562-5.7812-15.416-3.9063-3.802-8.8543-5.729-15-5.729" fill="#19303f"/>
  <path d="m597.19 122.4c0 7.344 2.5 13.542 7.5 18.698 5.0521 5.156 11.198 7.708 18.385 7.708 7.2396 0 13.385-2.552 18.438-7.708 5-5.156 7.5-11.354 7.5-18.698 0-7.292-2.5-13.542-7.5-18.698-5.0521-5.156-11.198-7.708-18.438-7.708-7.1874 0-13.333 2.552-18.385 7.708-5 5.156-7.5 11.406-7.5 18.698m-45.104 0c0-18.802 6.9271-34.844 20.729-48.073 13.854-13.177 30.573-19.792 50.26-19.792 19.74 0 36.51 6.615 50.312 19.792 13.854 13.229 20.729 29.271 20.729 48.073s-6.8749 34.844-20.729 48.073c-13.802 13.229-30.573 19.844-50.312 19.844-19.687 0-36.406-6.615-50.26-19.844-13.802-13.229-20.729-29.271-20.729-48.073" fill="#19303f"/>
  <path d="m712.6 58.125h23.386c2.552 0 4.7396 0.57 6.5625 1.823 1.8228 1.197 3.2812 3.021 4.4271 5.417l3.5937 8.073c4.7396-5.625 9.6353-9.948 14.635-12.917 5.0522-2.969 9.948-4.427 14.792-4.427 5.2082 0 9.1666 1.145 11.875 3.437 2.7084 2.292 3.75 5.521 3.1772 9.792l-3.5939 29.323c-0.468 3.385-1.5624 5.885-3.2812 7.604-1.6666 1.667-3.9582 2.552-6.8749 2.552-0.937 0-1.9792-0.16-3.0209-0.31-1.0414-0.21-2.6042-0.62-4.6875-1.145-2.2916-0.73-4.0625-1.199-5.2604-1.406-1.1453-0.21-2.2917-0.31-3.3855-0.31-4.1145 0-7.4478 1.197-9.8957 3.645-2.5 2.396-3.75 5.677-3.75 9.896v61.979c0 1.407-0.625 2.709-1.8751 3.802-1.2493 1.094-2.6562 1.615-4.2708 1.615h-32.708c-1.7708 0-3.177-0.57-4.3229-1.719-1.1453-1.093-1.6667-2.5-1.6667-4.218v-116.46c0-1.719 0.573-3.125 1.7188-4.323 1.1454-1.145 2.6563-1.718 4.4271-1.718" fill="#19303f"/>
  <g transform="matrix(13.333 0 0 13.333 -5971.7 -10586)" clip-path="url(#clip5)">
   <path d="m511.8 795.82c0 0.4961-0.18359 0.92188-0.55469 1.2812-0.37109 0.35938-0.8125 0.53516-1.3242 0.53516-0.51562 0-0.95703-0.17578-1.332-0.53516-0.375-0.35937-0.55859-0.78515-0.55859-1.2812 0-0.49609 0.18359-0.92578 0.55859-1.2891s0.81641-0.54688 1.332-0.54688c0.51172 0 0.95313 0.1836 1.3242 0.54688 0.3711 0.36328 0.55469 0.79297 0.55469 1.2891" fill="#0073ff"/>
  </g>
  <path d="m974.74 93.229-50.886 54.948h50.677c1.6666 0 3.0729 0.63 4.2188 1.719 1.0933 1.145 1.6666 2.552 1.6666 4.219v26.51c0 1.719-0.573 3.125-1.6666 4.219-1.1454 1.145-2.5522 1.719-4.2188 1.719h-105.31c-1.6667 0-3.1251-0.63-4.3751-1.823-1.2493-1.198-1.8749-2.657-1.8749-4.323v-21.823c0-1.563 0.208-2.813 0.625-3.854 0.364-1.042 1.0933-2.136 2.1355-3.125l51.979-55.157h-46.51c-1.7186 0-3.177-0.57-4.3749-1.77-1.1973-1.25-1.8229-2.709-1.8229-4.375v-25.938c0-1.667 0.625-3.125 1.8749-4.375 1.2493-1.249 2.7084-1.875 4.3229-1.875h100.21c1.6667 0 3.125 0.62 4.323 1.875 1.1973 1.249 1.8229 2.708 1.8229 4.375v21.719c0 1.51-0.208 2.812-0.625 3.854-0.416 1.041-1.1454 2.135-2.1875 3.281" fill="#19303f"/>
  <path d="m1032.5 105.78h42.604c-0.885-5-3.2812-9.062-7.1875-12.187-3.9062-3.177-8.4374-4.74-13.698-4.74-5.1563 0-9.7396 1.563-13.802 4.74-4.0625 3.125-6.6666 7.187-7.9166 12.187m80.729 59.792c-5.1563 7.5-12.865 13.49-23.073 17.969-10.208 4.479-21.354 6.771-33.49 6.771-20.521 0-37.344-6.407-50.469-19.115-13.177-12.76-19.74-28.802-19.74-48.177 0-20.104 6.198-36.563 18.49-49.323 12.344-12.813 28.542-19.219 48.542-19.219 19.323 0 35 6.146 47.031 18.438 12.083 12.239 18.125 27.291 18.125 45.156v7.344c0 2.812-0.625 5.052-1.8229 6.771-1.1973 1.666-2.9167 2.5-5.2084 2.5h-80.052c1.1973 5.937 4.1145 10.677 8.802 14.114 4.6355 3.438 10.312 5.209 16.875 5.209 4.427 0 8.4896-0.83 12.24-2.448 3.75-1.615 7.3437-4.115 10.781-7.605 1.5625-1.51 3.125-2.343 4.7917-2.5 1.6667-0.16 3.3333 0.31 5.1041 1.459l21.719 14.218c1.5105 0.99 2.3959 2.24 2.6043 3.855 0.208 1.614-0.26 3.125-1.2494 4.583" fill="#19303f"/>
  <path d="m1185.7 161.46c0 7.917-2.8125 14.688-8.4896 20.313-5.677 5.677-12.5 8.542-20.469 8.542-7.8647 0-14.636-2.865-20.261-8.542-5.6249-5.625-8.4374-12.396-8.4374-20.313 0-7.968 2.8125-14.739 8.4374-20.364 5.6251-5.625 12.396-8.438 20.261-8.438 7.9686 0 14.792 2.813 20.469 8.438 5.6771 5.625 8.4896 12.396 8.4896 20.364" fill="#ffc200"/>
  <path d="m1265.1 93.438c-6.1459 0-11.146 1.927-15.104 5.729-3.9062 3.854-5.8853 8.958-5.8853 15.416v65.938c0 1.771-0.573 3.229-1.7188 4.375-1.0933 1.093-2.5521 1.667-4.3229 1.667h-32.813c-1.7708 0-3.177-0.57-4.3228-1.667-1.1453-1.145-1.7188-2.604-1.7188-4.375v-116.35c0-1.771 0.573-3.229 1.7188-4.375 1.1454-1.094 2.552-1.667 4.3228-1.667h32.813c1.7708 0 3.2292 0.57 4.3229 1.667 1.1453 1.145 1.7188 2.604 1.7188 4.375v9.271c4.1145-6.198 9.2708-10.886 15.625-14.115 6.3022-3.229 13.542-4.844 21.719-4.844 16.198 0 28.438 4.844 36.771 14.427 8.2812 9.636 12.448 23.594 12.448 41.927v69.688c0 1.771-0.573 3.229-1.6667 4.375-1.1453 1.093-2.6041 1.667-4.3749 1.667h-32.76c-1.7708 0-3.2292-0.57-4.3751-1.667-1.0933-1.145-1.6666-2.604-1.6666-4.375v-65.938c0-6.458-1.9271-11.562-5.7812-15.416-3.8542-3.802-8.8542-5.729-14.948-5.729" fill="#19303f"/>
  <path d="m1387.9 105.78h42.552c-0.885-5-3.2814-9.062-7.1355-12.187-3.9063-3.177-8.4896-4.74-13.698-4.74-5.1562 0-9.7396 1.563-13.802 4.74-4.0625 3.125-6.7188 7.187-7.9167 12.187m80.677 59.792c-5.1563 7.5-12.812 13.49-23.021 17.969-10.208 4.479-21.406 6.771-33.542 6.771-20.521 0-37.344-6.407-50.469-19.115-13.125-12.76-19.688-28.802-19.688-48.177 0-20.104 6.1459-36.563 18.49-49.323 12.344-12.813 28.49-19.219 48.542-19.219 19.271 0 34.948 6.146 47.031 18.438 12.031 12.239 18.073 27.291 18.073 45.156v7.344c0 2.812-0.573 5.052-1.823 6.771-1.1973 1.666-2.9166 2.5-5.1562 2.5h-80.052c1.1973 5.937 4.1145 10.677 8.802 14.114 4.6354 3.438 10.26 5.209 16.875 5.209 4.4271 0 8.4896-0.83 12.24-2.448 3.75-1.615 7.2916-4.115 10.781-7.605 1.5104-1.51 3.1251-2.343 4.7396-2.5 1.6667-0.16 3.3855 0.31 5.1563 1.459l21.667 14.218c1.5625 0.99 2.4478 2.24 2.6041 3.855 0.208 1.614-0.208 3.125-1.2493 4.583" fill="#19303f"/>
  <g transform="matrix(13.333 0 0 13.333 -5971.7 -10586)" clip-path="url(#clip6)">
   <path d="m563.6 808.17c-1.0547 0-1.8984-0.27735-2.5273-0.82813-0.63281-0.55468-0.94531-1.3164-0.94531-2.293v-3.918h-0.9961c-0.12109 0-0.22656-0.043-0.3125-0.13672-0.0859-0.0899-0.13281-0.19922-0.13281-0.33203v-0.69532c0-0.20703 0.0195-0.37109 0.0625-0.5 0.0391-0.125 0.10937-0.24609 0.21094-0.36328l2.3945-2.6562c0.20703-0.22265 0.375-0.37109 0.51172-0.43359 0.13672-0.0664 0.3125-0.10156 0.53125-0.10156h0.64062c0.12891 0 0.23438 0.043 0.32031 0.13281 0.0898 0.0859 0.13282 0.1914 0.13282 0.32031v1.9805h2.1172c0.125 0 0.23438 0.043 0.32422 0.13281 0.0899 0.0859 0.13672 0.19141 0.13672 0.32031v1.8633c0 0.13281-0.0469 0.24218-0.13672 0.33203-0.0898 0.0937-0.19922 0.13672-0.32422 0.13672h-2.1172v3.2109c0 0.23438 0.0625 0.42188 0.1875 0.55469 0.1289 0.13672 0.30078 0.20703 0.51953 0.20703 0.125 0 0.26172-0.0273 0.40625-0.0781s0.30859-0.13282 0.49609-0.24219c0.1875-0.10547 0.34375-0.14453 0.47656-0.11328 0.12891 0.0273 0.25 0.125 0.36329 0.28906l0.85156 1.2734c0.0977 0.14453 0.14062 0.28906 0.13672 0.43359-8e-3 0.14453-0.0625 0.27344-0.17188 0.37891-0.34375 0.35156-0.79687 0.625-1.3633 0.82422-0.5625 0.19922-1.1602 0.30078-1.793 0.30078" fill="#19303f"/>
  </g>
  <g transform="matrix(13.333 0 0 13.333 -5971.7 -10586)" clip-path="url(#clip7)">
   <path d="m512.31 820.32c-0.0195 0.0664-0.0391 0.0976-0.10938 0.0976h-0.89843c-0.0703 0-0.0899-0.0312-0.10938-0.0976l-2.3906-6.668c-0.0195-0.0664 8e-3 -0.0977 0.0781-0.0977h0.76172c0.0703 0 0.10156 0.0312 0.12109 0.0977l1.9883 5.7852 1.9922-5.7852c0.0195-0.0664 0.0469-0.0977 0.11719-0.0977h0.76172c0.0703 0 0.10156 0.0312 0.082 0.0977z" fill="#1e2842"/>
  </g>
  <g transform="matrix(13.333 0 0 13.333 -5971.7 -10586)" clip-path="url(#clip8)">
   <path d="m515.54 813.65c0-0.0664 0.0312-0.0977 0.0977-0.0977h0.84375c0.0664 0 0.0977 0.0312 0.0977 0.0977v0.84375c0 0.0703-0.0312 0.0976-0.0977 0.0976h-0.84375c-0.0664 0-0.0977-0.0273-0.0977-0.0976zm0.13672 1.9414c0-0.0703 0.0312-0.0976 0.0977-0.0976h0.57031c0.0664 0 0.0977 0.0273 0.0977 0.0976v4.7266c0 0.0664-0.0312 0.0976-0.0977 0.0976h-0.57031c-0.0664 0-0.0977-0.0312-0.0977-0.0976z" fill="#1e2842"/>
  </g>
  <g transform="matrix(13.333 0 0 13.333 -5971.7 -10586)" clip-path="url(#clip9)">
   <path d="m519.51 820.51c-1.1445 0-2.0664-0.67578-2.0664-1.5977 0-0.0586 0.0273-0.0976 0.0976-0.0976h0.625c0.0703 0 0.0899 0.0273 0.10156 0.0976 0.0781 0.57031 0.53907 0.8711 1.2734 0.8711 0.65625 0 1.1367-0.20313 1.1367-0.71485 0-0.50781-0.43359-0.6875-1.4336-0.84375-1.1758-0.18359-1.6758-0.5664-1.6758-1.4297 0-0.90234 0.82421-1.4023 1.8633-1.4023 1.0976 0 1.7734 0.55859 1.8945 1.4102 0 0.0586-0.0312 0.0976-0.0977 0.0976h-0.55078c-0.0703 0-0.0781-0.0273-0.0977-0.0976-0.14843-0.48047-0.64843-0.6836-1.1758-0.6836-0.6289 0-1.0703 0.21485-1.0703 0.65625 0 0.48047 0.39453 0.64453 1.3828 0.82422 0.94141 0.16406 1.7656 0.44141 1.7656 1.3711 0 0.98828-0.82422 1.5391-1.9727 1.5391" fill="#1e2842"/>
  </g>
  <g transform="matrix(13.333 0 0 13.333 -5971.7 -10586)" clip-path="url(#clip10)">
   <path d="m522.68 816.95c-0.0391 0-0.0703-0.0195-0.0703-0.0586 0-0.0195 0-0.0586 0.0117-0.0977 0.19531-0.74609 0.83203-1.4023 1.9805-1.4023 1.1367 0 1.9492 0.6875 1.9492 1.7148v2.3633c0 0.46875 0.0391 0.60937 0.16797 0.84375 8e-3 0.0195 0.0195 0.0273 0.0195 0.0469 0 0.0391-0.0312 0.0508-0.0781 0.0508h-0.77344c-0.0703 0-0.0976-0.0312-0.0976-0.0976v-0.51172c-0.31641 0.43359-0.91407 0.70703-1.6094 0.70703-0.85156 0-1.7656-0.50781-1.7656-1.5586 0-1.0898 0.88281-1.6367 1.9922-1.6367 0.48828 0 0.96875 0.0976 1.3828 0.21484v-0.27344c0-0.73437-0.4336-1.1406-1.1875-1.1406-0.57813 0-0.97266 0.27734-1.1602 0.74609-0.0273 0.0781-0.0742 0.0898-0.13672 0.0898zm1.7734 1.0898c-0.69531 0-1.2344 0.2539-1.2344 0.85937 0 0.57032 0.39063 0.88282 1.0469 0.88282 0.82422 0 1.5234-0.53907 1.5234-1.5274-0.40235-0.13672-0.81641-0.21484-1.3359-0.21484" fill="#1e2842"/>
  </g>
  <g transform="matrix(13.333 0 0 13.333 -5971.7 -10586)" clip-path="url(#clip11)">
   <path d="m532.66 813.45c1.4805 0 2.3242 0.91016 2.3516 1.9102 0 0.0703-0.0273 0.10156-0.0976 0.10156h-0.62891c-0.0664 0-0.0937-0.0312-0.0937-0.10156-0.043-0.67578-0.70703-1.125-1.5312-1.125-0.83203 0-1.4805 0.37109-1.4805 1.0078 0 0.73438 0.78516 1.0117 1.8125 1.2852 1.2539 0.33203 2.2461 0.79297 2.2461 1.8828 0 1.4102-1.0469 2.0977-2.5312 2.0977-1.4219 0-2.5273-0.88281-2.5273-2.1758 0-0.0703 0.0273-0.0977 0.0977-0.0977h0.6289c0.0664 0 0.0977 0.0273 0.0977 0.0977 0.0273 0.79297 0.68359 1.3906 1.7031 1.3906 1.0625 0 1.707-0.39062 1.707-1.2617 0-0.6875-0.84375-0.95312-1.793-1.1992-1.3438-0.33984-2.2656-0.82421-2.2656-1.9805 0-1.207 1.0781-1.832 2.3047-1.832" fill="#1e2842"/>
  </g>
  <g transform="matrix(13.333 0 0 13.333 -5971.7 -10586)" clip-path="url(#clip12)">
   <path d="m538.6 815.39c1.4102 0 2.5 1 2.5 2.5586 0 1.5586-1.0898 2.5586-2.5 2.5586-1.4141 0-2.5-1-2.5-2.5586 0-1.5586 1.0859-2.5586 2.5-2.5586m0 4.3906c1.0078 0 1.6953-0.73438 1.6953-1.832 0-1.0976-0.6875-1.832-1.6953-1.832-1.0117 0-1.6953 0.73438-1.6953 1.832 0 1.0977 0.6836 1.832 1.6953 1.832" fill="#1e2842"/>
  </g>
  <g transform="matrix(13.333 0 0 13.333 -5971.7 -10586)" clip-path="url(#clip13)">
   <path d="m542.22 813.65c0-0.0664 0.0312-0.0977 0.0977-0.0977h0.57031c0.0664 0 0.0977 0.0312 0.0977 0.0977v6.668c0 0.0664-0.0312 0.0976-0.0977 0.0976h-0.57031c-0.0664 0-0.0977-0.0312-0.0977-0.0976z" fill="#1e2842"/>
  </g>
  <g transform="matrix(13.333 0 0 13.333 -5971.7 -10586)" clip-path="url(#clip14)">
   <path d="m548.39 820.32c0 0.0664-0.0273 0.0976-0.0977 0.0976h-0.57031c-0.0664 0-0.0977-0.0312-0.0977-0.0976v-0.5586c-0.3789 0.46094-0.92968 0.75391-1.625 0.75391-1.0312 0-1.707-0.63672-1.707-1.7852v-3.1367c0-0.0664 0.0312-0.0976 0.0977-0.0976h0.57031c0.0664 0 0.0977 0.0312 0.0977 0.0976v3.0195c0 0.79297 0.41015 1.1758 1.1172 1.1758 0.82422 0 1.4492-0.59766 1.4492-1.7852v-2.4102c0-0.0664 0.0312-0.0976 0.0977-0.0976h0.57031c0.0703 0 0.0977 0.0312 0.0977 0.0976z" fill="#1e2842"/>
  </g>
  <g transform="matrix(13.333 0 0 13.333 -5971.7 -10586)" clip-path="url(#clip15)">
   <path d="m552.85 815.49c0.0703 0 0.0976 0.0312 0.0976 0.0976v0.52735c0 0.0703-0.0273 0.10156-0.0976 0.10156h-1.625v2.7344c0 0.55079 0.2539 0.83204 0.77343 0.83204 0.32422 0 0.57813-0.0195 0.92969-0.14454 0.0195-0.0117 0.0508-0.0234 0.0703-0.0234 0.0469 0 0.0664 0.043 0.0664 0.10156v0.46094c0 0.0859 0 0.13672-0.0781 0.16406-0.28125 0.10937-0.63671 0.16797-1.0469 0.16797-0.92188 0-1.4805-0.5586-1.4805-1.4922v-2.8008h-0.87109c-0.0703 0-0.10157-0.0312-0.10157-0.10156v-0.52735c0-0.0664 0.0312-0.0976 0.10157-0.0976h0.87109v-1.4102c0-0.0703 0.0273-0.0977 0.0977-0.0977h0.57031c0.0664 0 0.0977 0.0273 0.0977 0.0977v1.4102z" fill="#1e2842"/>
  </g>
  <g transform="matrix(13.333 0 0 13.333 -5971.7 -10586)" clip-path="url(#clip16)">
   <path d="m554.05 813.65c0-0.0664 0.0273-0.0977 0.0976-0.0977h0.84375c0.0664 0 0.0977 0.0312 0.0977 0.0977v0.84375c0 0.0703-0.0312 0.0976-0.0977 0.0976h-0.84375c-0.0703 0-0.0976-0.0273-0.0976-0.0976zm0.13672 1.9414c0-0.0703 0.0273-0.0976 0.0976-0.0976h0.57031c0.0664 0 0.0977 0.0273 0.0977 0.0976v4.7266c0 0.0664-0.0312 0.0976-0.0977 0.0976h-0.57031c-0.0703 0-0.0976-0.0312-0.0976-0.0976z" fill="#1e2842"/>
  </g>
  <g transform="matrix(13.333 0 0 13.333 -5971.7 -10586)" clip-path="url(#clip17)">
   <path d="m558.52 815.39c1.4141 0 2.5 1 2.5 2.5586 0 1.5586-1.0859 2.5586-2.5 2.5586-1.4102 0-2.5-1-2.5-2.5586 0-1.5586 1.0898-2.5586 2.5-2.5586m0 4.3906c1.0117 0 1.6953-0.73438 1.6953-1.832 0-1.0976-0.68359-1.832-1.6953-1.832-1.0078 0-1.6953 0.73438-1.6953 1.832 0 1.0977 0.6875 1.832 1.6953 1.832" fill="#1e2842"/>
  </g>
  <g transform="matrix(13.333 0 0 13.333 -5971.7 -10586)" clip-path="url(#clip18)">
   <path d="m562.01 815.59c0-0.0703 0.0312-0.0976 0.0977-0.0976h0.57031c0.0664 0 0.0977 0.0273 0.0977 0.0976v0.5586c0.38281-0.46094 0.92187-0.75391 1.6289-0.75391 1.0274 0 1.7031 0.63672 1.7031 1.7852v3.1367c0 0.0664-0.0273 0.0976-0.0977 0.0976h-0.5664c-0.0703 0-0.0977-0.0312-0.0977-0.0976v-3.0195c0-0.79296-0.41406-1.1758-1.1172-1.1758-0.82422 0-1.4531 0.59766-1.4531 1.7852v2.4102c0 0.0664-0.0312 0.0976-0.0977 0.0976h-0.57031c-0.0664 0-0.0977-0.0312-0.0977-0.0976z" fill="#1e2842"/>
  </g>
  <g transform="matrix(13.333 0 0 13.333 -5971.7 -10586)" clip-path="url(#clip19)">
   <path d="m505.04 818.42h-2.8047l-0.67578 1.8945c-0.0195 0.0664-0.0391 0.0976-0.11719 0.0976h-0.66016c-0.0664 0-0.10547-0.0312-0.10547-0.0976 0-0.0195 0-0.0312 8e-3 -0.0586l2.4336-6.6094c0.0195-0.0664 0.0273-0.0977 0.0977-0.0977h0.84375c0.0664 0 0.0781 0.0312 0.0976 0.0977l2.4297 6.6094c0.0117 0.0274 0.0117 0.0391 0.0117 0.0586 0 0.0664-0.0391 0.0976-0.10938 0.0976h-0.65625c-0.0781 0-0.0976-0.0312-0.11718-0.0976zm-2.5195-0.78125h2.2344l-1.1172-3.0976z" fill="#1e2842"/>
  </g>
  <path d="m849.58 64.167v116.35c0 1.719-0.573 3.125-1.7708 4.271-1.1453 1.197-2.6043 1.771-4.3751 1.771h-32.552c-1.7709 0-3.2292-0.57-4.4272-1.771-1.1453-1.146-1.7186-2.552-1.7186-4.271v-116.35c0-1.719 0.573-3.125 1.7186-4.271 1.1987-1.197 2.6563-1.771 4.4272-1.771h32.552c1.7708 0 3.2292 0.57 4.3751 1.771 1.1973 1.145 1.7708 2.552 1.7708 4.271" fill="#19303f"/>
 </g>
</svg>
