<?xml version="1.0" encoding="utf-8"?>
<!-- Generator: Adobe Illustrator 19.0.0, SVG Export Plug-In . SVG Version: 6.00 Build 0)  -->
<svg version="1.1" id="layer" xmlns="http://www.w3.org/2000/svg" xmlns:xlink="http://www.w3.org/1999/xlink" x="0px" y="0px"
	 viewBox="-153 -46 652 652" style="enable-background:new -153 -46 652 652;" xml:space="preserve">
<path d="M-3.4,271.4h-19.3c0,0.7,0,1.4,0,2.1c0,28.6-23.6,45.7-45,45.7s-45-17.1-45-45.7c0-0.7,0-1.4,0-2.1H-132c0,0.7,0,1.4,0,2.1
	c0,39.3,32.1,65,64.3,65s64.3-25.7,64.3-65C-3.4,272.9-3.4,272.1-3.4,271.4z M-67.7,192.1l13.6,18.6h24.3
	c-11.4-15-23.6-30-37.9-42.9c-14.3,12.9-26.4,27.9-37.9,42.9h24.3L-67.7,192.1z M-106.3,228.6c7.1,0,12.9,5.8,12.9,12.9
	c0,7.1-5.8,12.9-12.9,12.9c-7.1,0-12.9-5.8-12.9-12.9C-119.1,234.3-113.4,228.6-106.3,228.6z M-67.7,228.6c7.1,0,12.9,5.8,12.9,12.9
	c0,7.1-5.8,12.9-12.9,12.9s-12.9-5.8-12.9-12.9C-80.6,234.3-74.8,228.6-67.7,228.6z M-29.1,228.6c7.1,0,12.9,5.8,12.9,12.9
	c0,7.1-5.8,12.9-12.9,12.9S-42,248.5-42,241.4C-42,234.3-36.2,228.6-29.1,228.6z M159.4,335.7h-22.9v-18.6
	c-12.1,15-28.6,22.1-47.9,22.1s-36.4-6.4-47.9-17.9c-11.4-11.4-18.6-27.9-18.6-47.1c0-20,6.4-35.7,18.6-47.1
	c12.1-11.4,28.6-17.9,47.9-17.9c20.7,0,35,6.4,47.9,20.7v-62.1h22.9V335.7z M90.9,229.3c-27.9,0-45,16.4-45,45
	c0,27.9,17.1,44.3,45,44.3c28.6,0,45.7-16.4,45.7-44.3S119.4,229.3,90.9,229.3z M262.3,231.4h-55v107.9h-22.1V210.7h77.1V231.4z
	 M279.4,181.4c0-5,2.1-9.3,6.4-11.4c4.3-2.9,8.6-2.9,12.9,0c4.3,2.1,6.4,6.4,6.4,11.4s-2.1,10-6.4,12.1c-4.3,2.9-8.6,2.9-12.9,0
	C281.6,191.4,279.4,186.4,279.4,181.4z M281.6,212.1H303v127.1h-21.4V212.1z M330.9,213.6h22.9v18.6c11.4-13.6,26.4-21.4,47.9-21.4
	c19.3,0,35.7,6.4,47.9,17.9c12.1,11.4,18.6,27.9,18.6,47.1c0,20-6.4,35.7-18.6,47.1c-12.1,11.4-28.6,17.9-48.6,17.9
	c-20,0-34.3-6.4-47.1-20.7v62.1h-22.9V213.6z M398.7,320.7c28.6,0,45.7-16.4,45.7-45c0-27.9-17.1-44.3-45.7-44.3
	c-27.9,0-45,16.4-45,44.3S370.9,320.7,398.7,320.7z"/>
</svg>
