<?xml version="1.0" encoding="iso-8859-1"?>
<!-- Generator: Adobe Illustrator 18.0.0, SVG Export Plug-In . SVG Version: 6.00 Build 0)  -->
<!DOCTYPE svg PUBLIC "-//W3C//DTD SVG 1.1//EN" "http://www.w3.org/Graphics/SVG/1.1/DTD/svg11.dtd">
<svg version="1.1" id="Capa_1" xmlns="http://www.w3.org/2000/svg" xmlns:xlink="http://www.w3.org/1999/xlink" x="0px" y="0px"
	 viewBox="0 0 58.201 58.201" style="enable-background:new 0 0 58.201 58.201; fill: #1585ef" xml:space="preserve">
<g>
	<path d="M48.78,39.629l-5.596,8.04l-3.949-3.241c-0.426-0.351-1.057-0.287-1.407,0.138c-0.351,0.427-0.289,1.058,0.139,1.407
		l4.786,3.929c0.18,0.148,0.404,0.228,0.634,0.228c0.045,0,0.091-0.003,0.137-0.01c0.276-0.038,0.524-0.19,0.684-0.419l6.214-8.929
		c0.315-0.453,0.204-1.076-0.25-1.392C49.717,39.061,49.095,39.175,48.78,39.629z"/>
	<path d="M43.6,32.201c-7.168,0-13,5.832-13,13s5.832,13,13,13s13-5.832,13-13S50.769,32.201,43.6,32.201z M43.6,56.201
		c-6.065,0-11-4.935-11-11s4.935-11,11-11s11,4.935,11,11S49.666,56.201,43.6,56.201z"/>
	<path d="M24.236,29.965c0.326,0.009,0.651,0.018,0.982,0.023C25.674,29.996,26.135,30,26.6,30s0.926-0.004,1.383-0.011
		c0.33-0.005,0.656-0.015,0.982-0.023c0.116-0.003,0.234-0.005,0.349-0.008c11.253-0.359,19.648-2.915,22.286-5.668V23v-0.5V22
		v-7.111C46.733,18.232,36.444,20,26.6,20s-20.133-1.768-25-5.111V22v0.5V23v1.289c2.638,2.754,11.033,5.31,22.286,5.668
		C24.002,29.96,24.12,29.962,24.236,29.965z"/>
	<path d="M51.6,11.306V9.5V9c0-0.168-0.056-0.319-0.135-0.458C50.343,4.241,41.715,0,26.6,0C11.523,0,2.904,4.22,1.747,8.51
		C1.662,8.657,1.6,8.818,1.6,9v0.5v1.806C4.437,14.267,13.917,17,26.6,17S48.764,14.267,51.6,11.306z"/>
	<path d="M27.755,43.095c0.544-4.111,2.64-7.74,5.698-10.254c-1.359,0.105-2.764,0.188-4.246,0.229
		c-0.87,0.027-1.74,0.041-2.606,0.041c-0.869,0-1.742-0.014-2.614-0.042c-7.341-0.201-13.191-1.238-17.403-2.717
		C4.604,29.685,2.909,28.899,1.6,28v7.111v0.5v0.5V37.4c2.846,2.971,12.394,5.711,25,5.711
		C26.991,43.111,27.37,43.101,27.755,43.095z"/>
	<path d="M27.65,46.188c-0.351,0.004-0.693,0.012-1.05,0.012c-12.346,0-20.866-2.29-25-5.201v8.201c0,0.162,0.043,0.315,0.117,0.451
		c1.181,4.895,11.747,8.549,24.883,8.549c2.508,0,4.92-0.135,7.194-0.385C30.278,55.076,27.941,50.909,27.65,46.188z"/>
</g>
<g>
</g>
<g>
</g>
<g>
</g>
<g>
</g>
<g>
</g>
<g>
</g>
<g>
</g>
<g>
</g>
<g>
</g>
<g>
</g>
<g>
</g>
<g>
</g>
<g>
</g>
<g>
</g>
<g>
</g>
</svg>
