
<svg xmlns="http://www.w3.org/2000/svg" width="330.48" height="330.48" viewBox="0 0 330.479 330.48"><path fill="#81409b" d="M327.23 265.2c-4.33-4.33-11.36-4.33-15.68 0v.02l-.02-.02c-10.08 10.1-24 16.38-39.38 16.38-30.65 0-55.6-24.94-55.6-55.6l.02-23c0-1.18.96-2.14 2.14-2.14 1.2 0 2.2.96 2.2 2.14h-.02v22.98c0 28.3 23.03 51.32 51.32 51.32 28.3 0 51.3-23.02 51.3-51.32 0-6.2-5.04-11.24-11.24-11.24S301 219.75 301 225.96c0 15.9-12.94 28.84-28.85 28.84-15.9 0-28.85-12.93-28.85-28.84h-.02l.02-22.98c0-1.18.96-2.14 2.14-2.14 1.18 0 2.14.96 2.14 2.14h-.02v22.98c0 13.58 11 24.6 24.6 24.6 13.57 0 24.58-11.02 24.58-24.6v-11.24c0-6.2-5.02-11.22-11.22-11.22-6.2 0-11.23 5.02-11.23 11.22v11.24c0 1.18-1 2.14-2.2 2.14-1.18 0-2.14-.96-2.14-2.14l.02-121.18C270 46.9 223.1 0 165.24 0S60.47 46.9 60.47 104.78v121.17c0 1.2-.96 2.15-2.14 2.15-1.18 0-2.14-.96-2.14-2.14v-11.24c0-6.2-5.08-11.22-11.28-11.22s-11.23 5.02-11.23 11.22v11.24c0 13.58 11 24.6 24.6 24.6 13.57 0 24.6-11.02 24.6-24.6v-22.98c0-1.18.95-2.14 2.13-2.14s2.14.96 2.14 2.14v22.98h-.04c0 15.9-12.94 28.84-28.85 28.84-15.9 0-28.85-12.94-28.85-28.84 0-6.2-5.04-11.24-11.25-11.24-6.2 0-11.2 5.03-11.2 11.24 0 28.3 23 51.3 51.3 51.3 28.3 0 51.32-23 51.32-51.3V203c0-1.18.96-2.14 2.14-2.14s2.13.96 2.13 2.14v23c0 30.66-24.96 55.6-55.6 55.6-15.4 0-29.3-6.27-39.4-16.38v.02-.02c-4.34-4.33-11.37-4.33-15.7 0-4.33 4.34-4.33 11.36 0 15.7v-.02c13.66 13.64 32.32 22.23 52.94 22.8v.04h4.28v-.05c42.05-1.18 75.9-35.7 75.9-78V203c0-1.18.97-2.14 2.15-2.14 1.2 0 2.14.96 2.14 2.14v22.73c0 45.4-36.9 82.33-82.3 82.34-6.2 0-11.24 5.03-11.24 11.22 0 6.2 5.03 11.2 11.23 11.2 57.73 0 104.7-46.95 104.75-104.67V203c0-1.2.98-2.15 2.16-2.15 1.2 0 2.15.96 2.15 2.14h-.02v22.8c.08 57.72 47.04 104.65 104.77 104.66 6.2 0 11.2-5.03 11.2-11.23s-5-11.23-11.2-11.23c-45.4 0-82.35-36.92-82.35-82.3l.02-22.7c0-1.2.94-2.16 2.12-2.16 1.2 0 2.13.95 2.13 2.14h.03l.03 22.7c0 42.3 33.85 76.84 75.9 78v.03l4.27-.03c20.63-.57 39.3-9.16 52.94-22.8 4.33-4.33 4.33-11.35 0-15.7z"/><path fill="#FFF" d="M203.48 86c0 6.63 5.37 12 12 12s12-5.37 12-12-5.37-12-12-12-12 5.37-12 12zM103 86c0 6.63 5.37 12 12 12s12-5.37 12-12-5.37-12-12-12-12 5.37-12 12z"/></svg>
