<?xml version="1.0" encoding="utf-8"?>
<!-- Generator: Adobe Illustrator 22.1.0, SVG Export Plug-In . SVG Version: 6.00 Build 0)  -->
<svg version="1.1" id="Layer_1" xmlns="http://www.w3.org/2000/svg" xmlns:xlink="http://www.w3.org/1999/xlink" x="0px" y="0px"
	 viewBox="0 0 512 512" style="enable-background:new 0 0 512 512;" xml:space="preserve">
<g>
	<path d="M362.9,243.5c3.1-0.4,6.2-0.4,9.3,0c1.7-3.8,2-10.5,0.5-17.6c-2.2-10.7-5.3-17.2-11.5-16.2c-6.2,1-6.5,8.8-4.2,19.5
		C358.1,235.1,360.4,240.3,362.9,243.5L362.9,243.5z M309.2,252c4.5,2,7.2,3.3,8.3,2.1c1.9-1.9-3.5-9.4-12.1-13.1
		c-10.2-4.2-21.8-2.8-30.7,3.7c-3,2.2-5.8,5.2-5.4,7.1c0.9,3.7,10-2.7,22.7-3.5C298.9,247.8,304.7,250,309.2,252L309.2,252z
		 M300.2,257.1c-9.1,1.4-15,6.5-13.5,10.1c0.9,0.3,1.2,0.8,5.2-0.8c6-2.3,12.4-2.9,18.8-2c2.9,0.3,4.3,0.5,5-0.5
		C317,261.8,309.9,256,300.2,257.1L300.2,257.1z M354.4,274.3c3.4-6.9-10.9-14-14.3-7C336.7,274.2,351.1,281.2,354.4,274.3
		L354.4,274.3z M370.1,253.8c-7.7-0.1-8,15.8-0.3,16C377.6,269.8,377.9,253.9,370.1,253.8L370.1,253.8z M150.9,332.8
		c-1.3,0.3-6,1.5-8.5-2.4c-5.2-8,11.1-20.4,3-35.9c-9.1-17.5-27.9-13.6-35.1-5.6c-8.7,9.6-8.7,23.6-5,24.1c4.3,0.6,4.1-6.5,7.4-11.7
		c3.9-6,11.8-7.7,17.8-3.8c0,0,0.1,0,0.1,0.1c11.6,7.6,1.4,17.8,2.3,28.7c1.4,16.7,18.5,16.4,21.6,9c0.4-0.7,0.3-1.7-0.2-2.3
		C154.3,334.1,154.9,331.9,150.9,332.8L150.9,332.8z M451.3,315.7c-3.4-11.8-2.6-9.2-6.8-20.6c2.5-3.7,15.3-24.1-3.1-43.3
		c-10.4-10.9-34-16.6-41.2-18.6c-1.5-11.4,4.7-58.8-21.6-83.2c20.8-21.6,33.8-45.4,33.8-65.8c-0.1-39.2-48.3-51.1-107.7-26.5
		l-12.6,5.3c-0.1-0.1-22.8-22.3-23.1-22.6C201.4-18.6-10.4,216.7,57.3,273.9l14.8,12.5c-4,10.7-5.4,22.2-4.1,33.6
		c3.4,33.5,36.1,60.6,67.7,60.5c57.9,133.4,268.5,133.6,323,3c1.7-4.5,9.1-24.7,9.1-42.5C467.8,323.2,457.7,315.7,451.3,315.7
		L451.3,315.7z M134.5,364c-22.9-0.6-47.6-21.2-50-45.6c-6.2-61.4,74.4-75.4,84.2-12.4C173.3,335.7,164,364.6,134.5,364L134.5,364z
		 M116,249.5c-15.2,3-28.6,11.6-36.8,23.5c-4.9-4.1-14-12-15.6-15c-13-24.9,14.3-73.2,33.4-100.4C144.2,90.2,218.1,39.2,252.4,48.4
		c5.6,1.6,24,22.9,24,22.9s-34.2,19-65.9,45.5C167.6,149.8,135.3,197.6,116,249.5L116,249.5z M355.4,350.9c0,0-35.8,5.3-69.7-7.1
		c6.2-20.2,27.1,6.1,96.6-13.8c15.3-4.4,35.4-13,51.1-25.4c3.4,7.8,5.8,16,7.1,24.3c3.7-0.7,14.3-0.5,11.5,18.1
		c-3.3,19.9-11.8,36.1-26,51c-8.9,9.6-19.5,17.6-31.2,23.4c-6.5,3.4-13.4,6.3-20.4,8.6c-53.6,17.5-108.5-1.7-126.3-43.1
		c-1.4-3.2-2.6-6.4-3.6-9.8c-7.5-27.3-1.1-60,18.9-80.6c1.2-1.3,2.5-2.9,2.5-4.8c-0.2-1.7-0.8-3.3-1.9-4.6
		c-7-10.2-31.3-27.5-26.4-61c3.5-24.1,24.5-41,44.2-40l5,0.3c8.5,0.5,15.9,1.6,22.9,1.9c11.7,0.5,22.3-1.2,34.7-11.6
		c4.2-3.5,7.6-6.6,13.3-7.5c4.7-1.2,9.6-0.3,13.6,2.2c10,6.7,11.4,22.8,11.9,34.6c0.3,6.7,1.1,23.1,1.4,27.7
		c0.6,10.7,3.4,12.2,9.1,14c3.2,1.1,6.2,1.8,10.5,3.1c13.2,3.7,21,7.5,26.1,12.3c2.6,2.5,4.2,5.8,4.8,9.3
		c1.6,11.4-8.8,25.5-36.4,38.2c-46.8,21.7-93.9,14.5-100.7,13.7c-20.2-2.7-31.7,23.4-19.6,41.2c22.7,33.5,122.7,20,151.7-21.4
		c0.7-1,0.1-1.6-0.7-1c-41.9,28.6-97.3,38.3-128.8,26.1c-4.8-1.9-14.8-6.5-16-16.7c43.7,13.5,71.2,0.7,71.2,0.7
		S358,350.6,355.4,350.9L355.4,350.9z M203.2,157.3c16.8-19.4,37.4-36.3,56-45.7c0.3-0.2,0.8-0.1,1,0.3c0.1,0.2,0.1,0.5,0,0.7
		c-1.5,2.7-4.3,8.4-5.2,12.7c-0.1,0.4,0.2,0.8,0.6,0.9c0.2,0.1,0.4,0,0.6-0.1c11.5-7.8,31.6-16.3,49.1-17.3c0.4,0,0.8,0.3,0.8,0.7
		c0,0.3-0.1,0.5-0.3,0.7c-2.9,2.2-5.5,4.8-7.7,7.8c-0.2,0.3-0.2,0.8,0.2,1c0.1,0.1,0.3,0.1,0.4,0.1c12.3,0.1,29.7,4.4,41.1,10.8
		c0.8,0.4,0.2,1.9-0.6,1.7c-69.7-16-123.4,18.6-134.8,26.9c-0.4,0.2-0.8,0.1-1.1-0.2C203,157.9,203,157.5,203.2,157.3L203.2,157.3z"
		/>
</g>
</svg>
