<svg width="591" height="467" viewBox="0 0 591 467" fill="none" xmlns="http://www.w3.org/2000/svg">
<path d="M157.783 238.421C214.567 238.421 258.457 195.723 258.457 143.053C258.457 93.7087 217.224 63.5795 189.913 63.5795C151.883 63.5795 121.401 90.1413 117.058 129.574C116.254 136.875 110.441 142.999 103.064 142.947C90.7998 142.859 72.9708 142.755 61.6845 142.794C56.8255 142.811 52.8081 138.886 53.0484 134.054C54.7516 99.8549 66.2402 67.8783 88.1483 43.3149C112.492 16.0206 147.943 0 189.913 0C260.429 0 327 63.7715 327 143.053C327 230.837 253.923 302 159.284 302C91.7913 302 23.8155 258.1 0.0827135 196.725C-0.00532986 196.498 -0.0195591 196.26 0.0233509 196.013C0.339062 194.197 0.966702 192.538 1.58478 190.904C2.48345 188.53 3.36188 186.208 3.2336 183.532L2.82339 174.983C2.62129 170.765 5.01537 166.843 8.88795 165.049L12.3188 163.459C16.2307 161.647 19.0114 158.077 19.7811 153.881C20.931 147.611 26.4613 143.053 32.9162 143.053C42.9956 143.053 51.7613 149.724 55.054 159.21C70.9017 204.865 96.0954 238.421 157.783 238.421Z" transform="translate(124)" fill="#FB6970"/>
<path d="M8.8369 17.1121C2.07808 17.1121 0 13.0932 0 8.55606C0 3.75965 1.68844 0 8.8369 0C15.9828 0 17.6712 3.75965 17.6712 8.55606C17.6712 13.0932 15.8529 17.1121 8.8369 17.1121Z" transform="translate(524.349 374.573)" fill="#212F4F"/>
<path d="M9.50411 63.2632V29.9464L0 29.8999V26.021C0 21.7971 3.44308 18.3786 7.67817 18.3994L9.50411 18.4085V4.27788L24.7077 0V18.4085H38.4825V22.3248C38.4825 26.534 35.0624 29.9464 30.8425 29.9464H24.7077V61.3186C24.7077 66.1477 27.4504 67.844 30.9852 68.4273C35.1489 69.114 38.6124 72.1203 38.6124 76.3297V82.0602C24.2161 82.0602 9.50411 81.4271 9.50411 63.2632Z" transform="translate(400.332 384.072)" fill="#212F4F"/>
<path fill-rule="evenodd" clip-rule="evenodd" d="M33.9166 0.0113491C18.7126 -0.377863 0 9.21525 0 33.1983C0 56.7921 18.7126 66.1261 33.9166 65.7374C49.5106 66.1261 68.0933 56.7921 68.0933 33.1983C68.0933 9.21525 49.5106 -0.377863 33.9166 0.0113491ZM34.0292 53.9617C22.9833 53.9617 15.1468 45.9333 15.1468 32.7105C15.1468 20.1355 22.9882 11.8513 34.0343 11.8513C45.0794 11.8513 52.8337 20.1185 52.8337 32.6932C52.8337 45.9163 45.0746 53.9617 34.0292 53.9617Z" transform="translate(75.9812 401.033)" fill="#212F4F"/>
<path d="M29.7585 0C43.0128 0 56.7882 3.62968 56.7882 29.557V64.3002H48.3139C44.0946 64.3002 40.6739 60.8878 40.6739 56.6786V28.2608C40.6739 15.945 36.1264 11.2783 28.1991 11.2783C23.7804 11.2783 18.0637 14.6488 15.3342 17.3712V56.6786C15.3342 60.8878 11.914 64.3002 7.69422 64.3002H0V1.55532H8.57332C11.6181 1.55532 14.2598 3.65178 14.9443 6.61127C18.8427 2.33324 23.9111 0 29.7585 0Z" transform="translate(154.254 401.187)" fill="#212F4F"/>
<path d="M10.9886 0C14.218 0 17.0985 2.02532 18.1842 5.05925L32.0981 43.9472L46.0107 5.05975C47.0956 2.02532 49.9759 0 53.205 0H64.1938L41.5337 57.8955C40.3877 60.8197 37.5634 62.7447 34.416 62.7447H24.6906L0 0H10.9886Z" transform="translate(217.431 402.631)" fill="#212F4F"/>
<path fill-rule="evenodd" clip-rule="evenodd" d="M56.136 60.6134C51.3279 62.5579 41.5742 65.148 31.4385 65.148C13.6348 65.148 0 54.9078 0 31.8323C0 11.0903 13.2171 0 29.3324 0C49.2192 0 57.7047 13.317 56.8185 31.4464C56.6351 35.1922 53.3677 37.9243 49.6089 37.9243H15.3258C16.1051 48.0364 23.5107 53.3513 33.2568 53.3513C37.0844 53.3513 41.1082 53.1572 45.929 52.2588C51.0427 51.3056 56.136 54.9353 56.136 60.1251V60.6134ZM43.0563 27.2941C44.1005 17.3718 37.3875 11.9269 29.3324 11.9269C21.2748 11.9269 15.8428 17.9604 15.3258 27.2941H43.0563Z" transform="translate(285.567 401.714)" fill="#212F4F"/>
<path d="M8.17731 1.55558C11.0805 1.55558 13.6093 3.53695 14.2944 6.35213C19.4921 2.46281 25.9912 0 30.537 0C30.9291 0 33.3968 -8.70714e-07 37.2958 0.518525V7.2459C37.2958 10.8624 34.1634 13.6115 30.537 13.6115C26.3808 13.6115 20.2714 15.1676 15.4633 17.8898V64.3H0V1.55558H8.17731Z" transform="translate(354.459 401.206)" fill="#212F4F"/>
<path d="M15.3334 55.1228V0H7.63997C3.42016 0 0 3.41221 0 7.62164V62.7444H7.69344C11.9133 62.7444 15.3334 59.3322 15.3334 55.1228Z" transform="translate(525.648 402.575)" fill="#212F4F"/>
<path d="M10.2656 63.2632V29.9462H0V26.03C0 21.8208 3.42016 18.4083 7.63997 18.4083H10.2656V4.27818L25.4691 0V18.4083H39.244V22.3246C39.244 26.534 35.8238 29.9462 31.604 29.9462H25.4691V61.3187C25.4691 66.148 28.2144 67.8443 31.7492 68.4274C35.9104 69.1144 39.3739 72.1203 39.3739 76.3295V82.0605C24.9776 82.0605 10.2656 81.4271 10.2656 63.2632Z" transform="translate(551.626 384.204)" fill="#212F4F"/>
<path d="M0 45.7298C0.0969917 16.3932 22.2733 0 43.5542 0C55.3743 0 66.2126 2.54056 75.1259 8.89192L71.5196 13.8276C69.1079 17.1292 64.4304 18.3734 60.6224 16.8711C55.2457 14.7502 50.1821 14.3024 46.4093 14.3024C28.9967 14.3024 15.9682 25.5316 15.8743 45.729C15.9682 65.9261 29.0044 76.9709 46.4169 76.9709C50.1895 76.9709 55.253 76.5232 60.6298 74.4021C64.4381 72.8999 69.1079 74.3305 71.5196 77.6322L75.1259 82.5677C66.2126 88.9191 55.3743 91.4596 43.5542 91.4596C22.2733 91.4596 0.0969917 75.0665 0 45.7298Z" transform="translate(0 375.541)" fill="#212F4F"/>
<path d="M8.08565 0C12.3055 0 15.7256 3.41231 15.7256 7.62165V42.5644L46.9986 3.3627C48.4374 1.41323 50.7218 0.262677 53.1487 0.262677H67.0407L31.683 44.8003L67.0407 89.3209H53.1487C50.7218 89.3209 48.4374 88.1703 46.9986 86.2207L15.7256 47.0297V81.6987C15.7256 85.9079 12.3055 89.3204 8.08565 89.3204H0V0H8.08565Z" transform="translate(449.711 375.999)" fill="#212F4F"/>
</svg>
