<?xml version="1.0" encoding="utf-8"?>
<!-- Generator: Adobe Illustrator 19.2.1, SVG Export Plug-In . SVG Version: 6.00 Build 0)  -->
<svg version="1.1" id="layer" xmlns="http://www.w3.org/2000/svg" xmlns:xlink="http://www.w3.org/1999/xlink" x="0px" y="0px"
	 viewBox="0 0 652 652" style="enable-background:new 0 0 652 652;" xml:space="preserve">
<path d="M146.3,245.8H46.1C32.3,245.8,21,257,21,270.9v100.1c0,13.9,11.3,25.1,25.1,25.1h100.1c13.9,0,25.1-11.3,25.1-25.1V270.9
	C171.4,257,160.2,245.8,146.3,245.8z M144.1,360.9c0,4.4-3.6,7.9-7.9,7.9H56.3c-4.4,0-7.9-3.6-7.9-7.9v-79.8c0-4.4,3.6-7.9,7.9-7.9
	h79.8c4.4,0,7.9,3.6,7.9,7.9V360.9z M80.2,341.4c-2.5,0-4.6-2-4.6-4.6V305c0-2.5,2-4.6,4.6-4.6h31.9c2.5,0,4.6,2,4.6,4.6v31.9
	c0,2.5-2,4.6-4.6,4.6L80.2,341.4L80.2,341.4z M211.3,339.2h16.4c0.8,9.3,7.1,16.6,19.8,16.6c11.4,0,18.3-5.6,18.3-14.1
	c0-7.9-5.5-11.5-15.3-13.8l-12.7-2.7c-13.8-3-24.2-11.9-24.2-26.4c0-16,14.2-27,32.7-27c19.6,0,32.2,10.3,33.3,25.5h-15.9
	c-1.9-7.1-7.8-11.3-17.4-11.3c-10.1,0-17.1,5.5-17.1,12.5c0,7,6,11.2,16.4,13.5l12.6,2.7c13.8,3,23.3,11.4,23.3,26
	c0,18.6-14,29.7-33.9,29.7C225.1,370.3,212.7,358.1,211.3,339.2z M340.2,396.2V369l1.1-11.9h-1.1c-3.8,8.6-11.7,13.3-22.4,13.3
	c-17.3,0-30.2-14.1-30.2-35.7s12.9-35.7,30.2-35.7c10.6,0,18.1,5,22.4,12.7h1.1v-11.4h14.2v96H340.2z M340.8,334.6
	c0-13.8-8.5-21.9-18.8-21.9c-10.3,0-18.8,8.1-18.8,21.9c0,13.8,8.5,21.9,18.8,21.9C332.3,356.5,340.8,348.4,340.8,334.6z
	 M366.9,341.7v-41.5h15.3v40.1c0,10.9,5.2,16.1,14,16.1c10.7,0,17.7-7.7,17.7-19.6v-36.6h15.3v68.7H415v-14.2h-1.1
	c-3.4,9.1-10.7,15.6-22.1,15.6C375.4,370.3,366.9,359.8,366.9,341.7z M438.5,349.8c0-12.9,9-20.4,25-21.3l18.9-1.2v-5.4
	c0-6.4-4.7-10.3-13-10.3c-7.7,0-12.2,3.9-13.4,9.4h-15.3c1.6-14,13.2-22,28.7-22c17.6,0,28.3,7.5,28.3,22v48h-14.2v-12.7h-1.1
	c-3.2,8.5-9.9,14.1-22.8,14.1C447.2,370.3,438.5,362,438.5,349.8z M482.4,341.3v-3.6l-15.4,1.1c-8.3,0.5-12.1,3.6-12.1,9.8
	c0,5.2,4.3,9,10.3,9C476.1,357.5,482.4,350.6,482.4,341.3z M509.1,369v-68.7h14.2v13.2h1.1c2-9,8.9-13.2,19.1-13.2h7V314h-8.7
	c-9.9,0-17.3,6.4-17.3,18.7v36.2L509.1,369L509.1,369z M620.5,337.4h-52.2c0.8,12.6,9.7,19.7,19.5,19.7c8.3,0,13.5-3.4,16.5-9h15.2
	c-4.2,14-16.4,22.1-31.8,22.1c-20.3,0-34.5-15.2-34.5-35.7c0-20.5,14.6-35.7,34.6-35.7c20.1,0,33.3,13.8,33.3,31
	C621,333.3,620.7,335,620.5,337.4z M605.8,326.8c-0.5-9.5-8.5-16-18.1-16c-9.1,0-16.8,5.8-18.7,16H605.8z"/>
</svg>
