<?xml version="1.0" encoding="UTF-8"?>
<svg fill="#000000" xmlns="http://www.w3.org/2000/svg" viewBox="0 0 150 110" width="150" height="110">
	<style id="style2" type="text/css">
		.st0 {
			fill: #00baff;
		}
		.st1 {
			fill: #ffffff;
		}
	</style>
	<path class="st0"
		d="m 135,88.7 c 0,2.8 -2.3,5 -5,5 H 22.2 c -2.7,0.1 -5,-2.2 -5,-5 V 23.8 c 0,-2.7 2.3,-5 5,-5 h 107.6 c 2.8,0 5,2.3 5,5 v 64.9 z"
		id="path4"></path>
	<path class="st1"
		d="M 133.9,18.7 C 119.9,40.3 98.3,60.2 76,59.7 67.8,59.6 58.4,57.1 50.5,50.7 44.6,45.9 38.7,38.3 36.4,27.6 c -0.9,0 -1.6,0 -2.4,0 -3.6,0 -5.8,3.2 -5.4,6.2 0.1,0.7 0.3,1.5 0.4,2.3 1.7,10.5 7.9,22.3 18.3,30 8.1,5.9 18,9.8 28.9,9.8 19.6,0 40.6,-12.5 58.9,-44.6 v -9.4 c -0.1,-1.1 -0.5,-2.4 -1.2,-3.2 z"
		id="path6"></path>
</svg>