<svg xmlns="http://www.w3.org/2000/svg" viewBox="0 0 72.47 69.79">
  <defs>
    <style>
      .cls-1 {
        isolation: isolate;
      }

      .cls-2 {
        fill: #4367b1;
      }

      .cls-3 {
        fill: #f0546a;
        mix-blend-mode: multiply;
      }
    </style>
  </defs>
  <title>hero-icon</title>
  <g class="cls-1">
    <g id="type">
      <path class="cls-2" d="M179.37,182.93l-21.46-12.39a7,7,0,0,0-6.29,0l-21.46,12.39a7,7,0,0,0-3.14,5.45v24.78a7,7,0,0,0,3.14,5.44l2.39,1.38h0l22.22,13.37L177,220h0l2.36-1.36a7,7,0,0,0,3.14-5.44V188.37A7,7,0,0,0,179.37,182.93ZM142,214.13a2.84,2.84,0,0,1-2-.84l-10.61-10.62a2.86,2.86,0,0,1,0-4L140,188a2.86,2.86,0,1,1,4,4l-8.62,8.62,8.59,8.59A2.86,2.86,0,0,1,142,214.13Zm8.22,2.51a2.88,2.88,0,0,1-2.59,1.65,2.86,2.86,0,0,1-2.59-4.08l14.58-31a2.86,2.86,0,1,1,5.18,2.43Zm29.94-14-10.64,10.64a2.86,2.86,0,1,1-4-4l8.62-8.62L165.5,192a2.86,2.86,0,0,1,0-4,2.93,2.93,0,0,1,4,0l10.62,10.61A2.86,2.86,0,0,1,180.16,202.65Z" transform="translate(-127.02 -169.79)"/>
      <path id="_Compound_Path_" data-name="&lt;Compound Path&gt;" class="cls-3" d="M197.19,232.58l1.55-3.06a1,1,0,0,0-.36-1.24l-3.32-2a11.46,11.46,0,0,0,.24-3.15l3.59-1.46a1,1,0,0,0,.54-1.17l-1.07-3.26a1,1,0,0,0-1.13-.63l-3.76.94a11.45,11.45,0,0,0-2.06-2.4l1.5-3.57a1,1,0,0,0-.45-1.21l-3.06-1.55a1,1,0,0,0-1.24.36l-2,3.32a11.56,11.56,0,0,0-3.15-.24l-1.46-3.59a1,1,0,0,0-1.17-.54l-3.26,1.07a1,1,0,0,0-.63,1.13l0.94,3.76a11.44,11.44,0,0,0-2.4,2.06l-3.57-1.5a1,1,0,0,0-1.21.45l-1.55,3.06a1,1,0,0,0,.36,1.24l3.32,2a11.47,11.47,0,0,0-.24,3.15L168.56,226a1,1,0,0,0-.54,1.17l1.07,3.26a1,1,0,0,0,1.13.63l3.76-.94a11.44,11.44,0,0,0,2.06,2.4l-1.5,3.57a1,1,0,0,0,.45,1.21l3.06,1.55a1,1,0,0,0,1.24-.36l2-3.32a11.53,11.53,0,0,0,3.15.24l1.46,3.59a0.95,0.95,0,0,0,1.17.54l3.26-1.07a1,1,0,0,0,.63-1.13L190,233.58a11.43,11.43,0,0,0,2.4-2.06L196,233A1,1,0,0,0,197.19,232.58Zm-9.6-6.8a4.33,4.33,0,1,1,.25-3.3A4.3,4.3,0,0,1,187.58,225.78Z" transform="translate(-127.02 -169.79)"/>
    </g>
  </g>
</svg>
