<?xml version="1.0" encoding="utf-8"?>
<!-- Uploaded to: SVG Repo, www.svgrepo.com, Generator: SVG Repo Mixer Tools -->
<svg width="800px" height="800px" viewBox="0 0 64 64" fill="none" xmlns="http://www.w3.org/2000/svg">
<g clip-path="url(#clip0_14_1995)">
<path d="M27.865 31.758C33.5972 31.758 38.244 27.1112 38.244 21.379C38.244 15.6468 33.5972 11 27.865 11C22.1328 11 17.486 15.6468 17.486 21.379C17.486 27.1112 22.1328 31.758 27.865 31.758Z" stroke="#000000" stroke-width="4" stroke-linecap="round" stroke-linejoin="round"/>
<path d="M40 36.346C37.0313 33.3973 33.0142 31.7466 28.83 31.756H26.9C22.6831 31.756 18.6388 33.4312 15.657 36.413C12.6752 39.3948 11 43.4391 11 47.656V52.516H44.73V51.756" stroke="#000000" stroke-width="4" stroke-linecap="round" stroke-linejoin="round"/>
<path d="M48.621 38.146V46.123" stroke="#426AB2" stroke-width="4" stroke-linecap="round" stroke-linejoin="round"/>
<path d="M52.609 42.134H44.632" stroke="#426AB2" stroke-width="4" stroke-linecap="round" stroke-linejoin="round"/>
</g>
<defs>
<clipPath id="clip0_14_1995">
<rect width="45.609" height="45.516" fill="white" transform="translate(9 9)"/>
</clipPath>
</defs>
</svg>