<?xml version="1.0" encoding="iso-8859-1"?>
<!-- Generator: Adobe Illustrator 19.0.0, SVG Export Plug-In . SVG Version: 6.00 Build 0)  -->
<svg version="1.1" id="Layer_1" xmlns="http://www.w3.org/2000/svg" xmlns:xlink="http://www.w3.org/1999/xlink" x="0px" y="0px"
	 viewBox="0 0 488 488" style="enable-background:new 0 0 488 488;" xml:space="preserve">
<g>
	<path style="fill:#0A3249;" d="M117.6,1.6H4c-2.4,0-4,1.6-4,4V120c0,1.6,1.6,4,4,4h114.4c2.4,0,4-1.6,4-4V5.6
		C121.6,3.2,120,1.6,117.6,1.6z M30.4,92.8v-60h60v60H30.4z"/>
	<path style="fill:#0A3249;" d="M71.2,48.8h-20c-2.4,0-4,1.6-4,4v20c0,2.4,1.6,4,4,4h20c2.4,0,4-1.6,4-4v-20
		C74.4,50.4,72.8,48.8,71.2,48.8z"/>
	<path style="fill:#0A3249;" d="M482.4,1.6H368c-2.4,0-4,1.6-4,4V120c0,2.4,1.6,4,4,4h114.4c2.4,0,4-1.6,4-4V5.6
		C485.6,3.2,484,1.6,482.4,1.6z M394.4,92.8v-60h60v60H394.4z"/>
	<path style="fill:#0A3249;" d="M435.2,48.8h-20c-2.4,0-4,1.6-4,4v20c0,2.4,1.6,4,4,4h20c2.4,0,4-1.6,4-4v-20
		C438.4,50.4,436.8,48.8,435.2,48.8z"/>
	<path style="fill:#0A3249;" d="M117.6,364H4c-2.4,0-4,1.6-4,4v114.4c0,2.4,1.6,4,4,4h114.4c2.4,0,4-1.6,4-4V368
		C121.6,366.4,120,364,117.6,364z M30.4,455.2v-60h60v60H30.4z"/>
	<path style="fill:#0A3249;" d="M71.2,411.2h-20c-2.4,0-4,1.6-4,4v20c0,2.4,1.6,4,4,4h20c2.4,0,4-1.6,4-4v-20
		C74.4,412.8,72.8,411.2,71.2,411.2z"/>
	<path style="fill:#0A3249;" d="M482.4,364H368c-2.4,0-4,1.6-4,4v114.4c0,2.4,1.6,4,4,4h114.4c2.4,0,4-1.6,4-4V368
		C485.6,366.4,484,364,482.4,364z M394.4,455.2v-60h60v60H394.4z"/>
	<path style="fill:#0A3249;" d="M435.2,411.2h-20c-2.4,0-4,1.6-4,4v20c0,2.4,1.6,4,4,4h20c2.4,0,4-1.6,4-4v-20
		C438.4,412.8,436.8,411.2,435.2,411.2z"/>
</g>
<g>
	<rect x="2.4" y="309.6" style="fill:#0B3249;" width="155.2" height="22.4"/>
	<polygon style="fill:#0B3249;" points="272,487.2 240.8,487.2 240.8,332 217.6,332 217.6,487.2 185.6,487.2 185.6,332 156.8,332 
		156.8,487.2 332.8,487.2 332.8,487.2 301.6,487.2 301.6,332 272,332 	"/>
	<rect x="272" y="300" style="fill:#0B3249;" width="28.8" height="10.4"/>
	<rect x="217.6" y="300" style="fill:#0B3249;" width="23.2" height="10.4"/>
	<rect x="301.6" y="284.8" style="fill:#0B3249;" width="186.4" height="14.4"/>
	<rect x="185.6" y="29.6" style="fill:#0B3249;" width="40" height="32.8"/>
	<rect x="185.6" y="284.8" style="fill:#0B3249;" width="32" height="14.4"/>
	<rect x="177.6" y="430.4" style="fill:#0B3249;" width="48" height="34.4"/>
	<rect x="2.4" y="284.8" style="fill:#0B3249;" width="20" height="14.4"/>
	<rect x="54.4" y="284.8" style="fill:#0B3249;" width="103.2" height="14.4"/>
	<rect x="240.8" y="284.8" style="fill:#0B3249;" width="32" height="14.4"/>
	<rect x="232.8" y="362.4" style="fill:#0B3249;" width="48" height="14.4"/>
	<rect x="232.8" y="439.2" style="fill:#0B3249;" width="48" height="5.6"/>
	<rect x="232.8" y="413.6" style="fill:#0B3249;" width="48" height="5.6"/>
	<rect x="232.8" y="388" style="fill:#0B3249;" width="48" height="5.6"/>
	<rect x="240.8" y="309.6" style="fill:#0B3249;" width="32" height="22.4"/>
	<rect x="173.6" y="309.6" style="fill:#0B3249;" width="32" height="22.4"/>
	<rect x="330.4" y="309.6" style="fill:#0B3249;" width="9.6" height="22.4"/>
	<rect x="311.2" y="309.6" style="fill:#0B3249;" width="9.6" height="22.4"/>
	<rect x="372" y="309.6" style="fill:#0B3249;" width="116" height="22.4"/>
	<rect x="2.4" y="154.4" style="fill:#0B3249;" width="132" height="8.8"/>
	<rect x="372" y="154.4" style="fill:#0B3249;" width="116" height="8.8"/>
	<rect x="353.6" y="154.4" style="fill:#0B3249;" width="10.4" height="8.8"/>
	<rect x="334.4" y="154.4" style="fill:#0B3249;" width="10.4" height="8.8"/>
	<rect x="315.2" y="154.4" style="fill:#0B3249;" width="10.4" height="8.8"/>
	<rect x="240.8" y="176" style="fill:#0B3249;" width="32" height="32.8"/>
	<rect x="240.8" y="109.6" style="fill:#0B3249;" width="40" height="32.8"/>
	<rect x="92" y="176" style="fill:#0B3249;" width="10.4" height="32.8"/>
	<rect x="71.2" y="176" style="fill:#0B3249;" width="10.4" height="32.8"/>
	<rect x="50.4" y="176" style="fill:#0B3249;" width="10.4" height="32.8"/>
	<rect x="388" y="176" style="fill:#0B3249;" width="100" height="32.8"/>
	<rect x="2.4" y="176" style="fill:#0B3249;" width="36.8" height="32.8"/>
	<rect x="135.2" y="176" style="fill:#0B3249;" width="22.4" height="32.8"/>
	<rect x="301.6" y="176" style="fill:#0B3249;" width="37.6" height="32.8"/>
	<rect x="360.8" y="176" style="fill:#0B3249;" width="16.8" height="32.8"/>
	<rect x="156.8" y="64" style="fill:#0B3249;" width="28.8" height="112"/>
	<rect x="156.8" y="0.8" style="fill:#0B3249;" width="28.8" height="28"/>
	<rect x="217.6" y="0.8" style="fill:#0B3249;" width="23.2" height="106.4"/>
	<rect x="217.6" y="148.8" style="fill:#0B3249;" width="23.2" height="27.2"/>
	<rect x="272" y="0.8" style="fill:#0B3249;" width="28.8" height="24"/>
	<rect x="272" y="54.4" style="fill:#0B3249;" width="28.8" height="122.4"/>
	<rect x="316.8" y="54.4" style="fill:#0B3249;" width="13.6" height="75.2"/>
	<rect x="316.8" y="4.8" style="fill:#0B3249;" width="13.6" height="35.2"/>
</g>
<path style="fill:#E05407;" d="M483.2,248.8H6.4c-2.4,0-4.8-2.4-4.8-4.8c0-2.4,2.4-4.8,4.8-4.8h476.8c2.4,0,4.8,2.4,4.8,4.8
	C488,246.4,485.6,248.8,483.2,248.8z"/>
<path style="fill:#FF7631;" d="M483.2,239.2H6.4c-1.6,0-3.2,0.8-4,2.4c0.8,1.6,2.4,2.4,4,2.4h476.8c1.6,0,3.2-0.8,4-2.4
	C487.2,240.8,485.6,239.2,483.2,239.2z"/>
<g>
	<rect x="316.8" y="410.4" style="fill:#0B3249;" width="13.6" height="75.2"/>
	<rect x="316.8" y="361.6" style="fill:#0B3249;" width="13.6" height="35.2"/>
</g>
<g>
</g>
<g>
</g>
<g>
</g>
<g>
</g>
<g>
</g>
<g>
</g>
<g>
</g>
<g>
</g>
<g>
</g>
<g>
</g>
<g>
</g>
<g>
</g>
<g>
</g>
<g>
</g>
<g>
</g>
</svg>
