<svg version="1.2" xmlns="http://www.w3.org/2000/svg" viewBox="0 0 2516.5 500" height="26" width="131"><path fill="#333" d="M492.4 454.4L692 60.6c4.7-8.2 6.5-12.9 10.6-12.9h1.8c4.7 0 5.9 4.7 10.6 12.9l199.6 393.9c3.5 6.4-.6 12.9-8.2 12.9h-57.5c-8.8 0-11.7-2.9-17-12.9l-37-76.9h-182l-37 76.9c-5.3 10-8.2 12.9-17 12.9h-58.1c-7.8-.1-11.3-6.5-8.4-13m277-140.9L704.3 175h-1.2L638 313.5h131.4zM820.6 47.6c9.4 0 13.5 2.9 17 12.7L955.4 307l101.5-247.3c.6-1.7 1.2-3.5 1.8-4.6 2.3-5.2 4.1-7.5 7.6-7.5h9.4c3.5 0 5.3 2.3 7.6 7.5 1.2 1.2 1.8 2.9 2.3 4.6L1186.5 307l118.8-246.7c3.5-9.8 7.6-12.7 17-12.7h60.5c9.4 0 10.6 2.9 6.5 12.7L1193 454.6c-3.5 8.6-5.3 12.7-9.4 12.7h-5.3c-3.5 0-5.9-4-9.4-12.7l-98-241.4-98 241.4c-3.5 8.1-5.3 12.7-9.4 12.7h-5.3c-3.5 0-5.3-4-9.4-12.7L754.2 60.3c-4.7-9.8-3.5-12.7 5.9-12.7h60.5zM1470.3 155.6c96.8 0 146.2 77.5 146.2 164.9 0 10.6-1.8 14.1-12.3 14.1l-214.8-.6c8.8 50.5 48.1 72.8 85.7 72.8 20 0 47.5-4.1 78.7-21.1 5.3-2.3 8.2-4.7 11.2-4.7 2.3 0 4.7 1.8 7.6 5.3l18.2 22.3c5.9 7.6 7.1 11.7 1.8 17-27.6 27-75.7 41.7-119.2 41.7-88.6 0-157.9-69.9-157.9-155.5s69.1-156.2 154.8-156.2m74 129.8c-4.7-36.4-28.2-72.2-75.1-72.2-40.5 0-69.9 31.7-78.7 72.2h153.8zM1719.4 207.3c8.2-14.7 41.1-51.7 96.3-51.7 79.2 0 135 70.4 135 156.1 0 83.3-55.8 155.5-135 155.5-55.2 0-87.5-29.3-108.6-54.6l-8.8 35.2c-5.3 8.8-7.6 12.9-15.3 12.9h-21.7c-10 0-12.9-2.9-12.9-12.9l1-435c0-10 2.9-12.9 12.9-12.9h45.2c10 0 12.9 2.9 12.9 12.9l-1 194.5zm160.8 104.5c0-51.7-34-92.7-80.4-92.7-47 0-81 42.3-81 92.7 0 50.5 34 93.3 81 93.3 46.4 0 80.4-40.5 80.4-93.3M2134 155.6c96.8 0 146.2 77.5 146.2 164.9 0 10.6-1.8 14.1-12.3 14.1l-214.8-.6c8.8 50.5 48.1 72.8 85.7 72.8 20 0 47.5-4.1 78.7-21.1 5.3-2.3 8.2-4.7 11.2-4.7 2.3 0 4.7 1.8 7.6 5.3l18.2 22.3c5.9 7.6 7 11.7 1.8 17-27.6 27-75.7 41.7-119.2 41.7-88.6 0-157.9-69.9-157.9-155.5s69.1-156.2 154.8-156.2m74 129.8c-4.7-36.4-28.2-72.2-75.1-72.2-40.5 0-69.9 31.7-78.7 72.2H2208zM2381.3 321.2v133.2c0 10-2.9 12.9-12.9 12.9h-45.2c-10 0-12.9-2.9-12.9-12.9V181.5c0-10 2.9-12.9 12.9-12.9h22.3c7.6 0 10.6 3.5 15.3 12.9l13.5 43.4c17-29.9 59.7-62.8 130.2-62.8 11.7 0 12.9 3.5 11.7 11.7l-7 45.8c-1.8 10-4.7 12.3-14.1 12.3-66.4.1-113.8 42.3-113.8 89.3"></path><linearGradient id="logoGradient" gradientUnits="userSpaceOnUse" x1="250" y1="22" x2="250" y2="500"><stop offset="0" stop-color="#246be8"></stop><stop offset="1" stop-color="#3293f2"></stop></linearGradient><path fill="url(#logoGradient)" d="M276.4 22.3c-11.4 0-22.3 5.1-29.3 14-49.6 63.3-79.5 138.2-93 212.7-11.8 65.1-6.3 148 15.8 224.2 4.6 15.8 12.5 26.9 75.1 26.9 168.7 0 243.7-65.7 243.7-239C488.8 93 417.2 22.3 276.4 22.3m-4.6 456.2c-10.2 5.2-22.8 1.2-28.1-8.8-.1-.2-.1-.3-.2-.5-33.9-64.6-45.3-137.8-32.1-210.4 13.2-72.8 49.8-137.9 104.5-187.1.1-.1.2-.3.4-.4 8.6-7.5 21.8-6.8 29.4 1.6 7.7 8.4 7 21.3-1.6 28.8l-.3.3c-46.3 42-79.5 98.5-91.4 163.9-11.8 65.3-.6 129.4 28 184.2l-.1.1c.2.3.4.6.5.9 5.3 9.9 1.3 22.2-9 27.4m127-305.7c-.2.2-.5.3-.8.5-34 26.8-58.4 63.6-67 106.4-8.6 43 .2 85.1 22 120.8l-.2.1c.2.3.4.5.6.8 3.6 6.1.8 13.7-6.1 16.8-6.9 3.2-15.4.7-18.9-5.4l-.3-.6c-24.6-40.4-34.6-88.2-24.9-136.9 9.7-48.6 37.6-90.3 76.3-120.8.3-.2.5-.5.7-.7 5.9-4.5 14.9-4 20 1.3 5.1 5.2 4.5 13.2-1.4 17.7M75.1 443.1c1.7 8.4-8.7 14.1-15.1 8.3C23.1 418 0 375.7 0 261 0 113.6 57.9 50.6 136.7 29.2c7.8-2.1 14.3 6.3 10.2 13.1C111 101.2 86.1 166.7 73.7 235c-12.5 69.1-12 139.9 1.4 208.1z"></path></svg>
